<svg xmlns="http://www.w3.org/2000/svg" xmlns:xlink="http://www.w3.org/1999/xlink" width="295" height="300.117" viewBox="0 0 295 300.117">
  <defs>
    <clipPath id="clip-path">
      <rect id="Rect치ngulo_297811" data-name="Rect치ngulo 297811" width="300.117" height="151.655" fill="#fbe9b8"/>
    </clipPath>
    <clipPath id="clip-path-2">
      <rect id="Rect치ngulo_297811-2" data-name="Rect치ngulo 297811" width="149.235" height="75.411" fill="#f38e1e"/>
    </clipPath>
  </defs>
  <g id="Grupo_880014" data-name="Grupo 880014" transform="translate(-285 -6385.557)">
    <g id="Grupo_878004" data-name="Grupo 878004" transform="translate(580 6385.557) rotate(90)">
      <g id="Grupo_877996" data-name="Grupo 877996" transform="translate(0 0)" clip-path="url(#clip-path)">
        <path id="Trazado_599836" data-name="Trazado 599836" d="M150.059,151.655A150.058,150.058,0,0,1,0,1.6C0,1.063.015.533.021,0H300.1c.006.533.021,1.063.021,1.6A150.058,150.058,0,0,1,150.059,151.655" transform="translate(0 0)" fill="#fbe9b8"/>
      </g>
    </g>
    <g id="Grupo_879158" data-name="Grupo 879158" transform="translate(465 6535.616)">
      <path id="Trazado_597847" data-name="Trazado 597847" d="M0,3.6A3.6,3.6,0,1,0,3.6,0,3.6,3.6,0,0,0,0,3.6" transform="translate(40.792)" fill="#294ddc"/>
      <path id="Trazado_599892" data-name="Trazado 599892" d="M0,3.6A3.6,3.6,0,1,0,3.6,0,3.6,3.6,0,0,0,0,3.6" transform="translate(32.539 14.617)" fill="#294ddc"/>
      <path id="Trazado_597848" data-name="Trazado 597848" d="M30.8,3.6a3.6,3.6,0,1,0,3.6-3.6,3.6,3.6,0,0,0-3.6,3.6" transform="translate(-6.28)" fill="#294ddc"/>
      <path id="Trazado_599891" data-name="Trazado 599891" d="M30.8,3.6a3.6,3.6,0,1,0,3.6-3.6,3.6,3.6,0,0,0-3.6,3.6" transform="translate(-14.534 14.617)" fill="#294ddc"/>
      <path id="Trazado_599886" data-name="Trazado 599886" d="M46.41,27.99a3.6,3.6,0,1,0,3.6-3.6,3.6,3.6,0,0,0-3.6,3.6" transform="translate(-38.156 -24.386)" fill="#294ddc"/>
      <path id="Trazado_599890" data-name="Trazado 599890" d="M46.41,27.99a3.6,3.6,0,1,0,3.6-3.6,3.6,3.6,0,0,0-3.6,3.6" transform="translate(-46.41 -9.769)" fill="#294ddc"/>
    </g>
    <g id="Grupo_880010" data-name="Grupo 880010" transform="translate(360.411 6460.998) rotate(90)">
      <g id="Grupo_877996-2" data-name="Grupo 877996" clip-path="url(#clip-path-2)">
        <path id="Trazado_599836-2" data-name="Trazado 599836" d="M74.618,0A74.617,74.617,0,0,0,0,74.618c0,.265.007.529.01.794H149.225c0-.265.01-.529.01-.794A74.617,74.617,0,0,0,74.618,0" fill="#f38e1e"/>
      </g>
    </g>
    <g id="Grupo_880006" data-name="Grupo 880006" transform="translate(279.712 6385.557)">
      <g id="Grupo_880005" data-name="Grupo 880005" transform="translate(14441 11009.404)">
        <path id="Trazado_600100" data-name="Trazado 600100" d="M85.494,208.808a1.942,1.942,0,0,1-1.62-.861L11.681,100.888A1.952,1.952,0,1,1,14.916,98.7L87.11,205.765a1.952,1.952,0,0,1-.528,2.71,1.919,1.919,0,0,1-1.089.334" transform="translate(-14371.747 -10932.152)" fill="#8b558e"/>
        <path id="Trazado_600101" data-name="Trazado 600101" d="M13.3,204.254a1.95,1.95,0,0,1-1.63-3.021L74.7,105.209a1.952,1.952,0,0,1,3.264,2.143L14.93,203.373a1.948,1.948,0,0,1-1.634.882" transform="translate(-14371.747 -10927.6)" fill="#8b558e"/>
        <path id="Trazado_600102" data-name="Trazado 600102" d="M54.788,120.225l-29.5-.635a1.952,1.952,0,0,1,.083-3.9l29.458.633a1.952,1.952,0,0,1-.041,3.9" transform="translate(-14363.302 -10919.629)" fill="#8b558e"/>
        <path id="Trazado_600103" data-name="Trazado 600103" d="M21.356,52.331S-5.014,68.1.851,102.7c6.748,39.806,46.433,52.712,80.86,43.308S110.4,109.483,110.4,109.483Z" transform="translate(-14379.712 -10964.101)" fill="#5d2866"/>
        <path id="Trazado_600104" data-name="Trazado 600104" d="M13.944,105.1a.5.5,0,0,1-.344-.134C4.806,96.829,3.174,81.472,3.109,80.822a.505.505,0,0,1,1.006-.1c.014.155,1.661,15.629,10.173,23.5a.506.506,0,0,1-.344.877" transform="translate(-14377.531 -10944.492)" fill="#8b558e"/>
        <path id="Trazado_600105" data-name="Trazado 600105" d="M67.259,133.1v23.135L49.642,162.9l-11.1-12.448-1.825-21.4Z" transform="translate(-14353.938 -10910.243)" fill="#f48462"/>
        <path id="Trazado_600106" data-name="Trazado 600106" d="M87.459,130.285V153.42l-18.773,6.665L56.858,147.637l-1.945-21.4Z" transform="translate(-14341.165 -10912.222)" fill="#f48462"/>
        <path id="Trazado_600107" data-name="Trazado 600107" d="M68.449,67.325s38.5,19.69,44.008,28.862-.558,83.91-.558,83.91l-39.792.531L66.6,138.862,36.353,68.506Z" transform="translate(-14354.193 -10953.575)" fill="#a76fa8"/>
        <path id="Trazado_600108" data-name="Trazado 600108" d="M19.963,68.423S18.151,88.479,18.8,95.06,40.21,117.149,40.21,117.149l1.028,64.2L87.244,183.4s1-73.363.235-80.273S56.1,71.092,56.1,71.092Z" transform="translate(-14366.614 -10952.805)" fill="#a76fa8"/>
        <path id="Trazado_600109" data-name="Trazado 600109" d="M58.262,24.78s17.961,1.59,24.7,10.261-2.167,63.037-2.65,63.8-12.989,6.3-34.8,5.816-27.105-4.646-27.829-5.816-5.3-62.547,0-67.748,27.429-7.9,40.571-6.309" transform="translate(-14369.065 -10983.76)" fill="#3f9e97"/>
        <path id="Trazado_600110" data-name="Trazado 600110" d="M34.2,19.081l.259,11.684s2.182,3.31,9.029,3.715c5.1.3,6.864-.89,6.864-.89l-.841-5.9-.829-5.754-12.4-2.441Z" transform="translate(-14355.704 -10987.44)" fill="#f48462"/>
        <path id="Trazado_600111" data-name="Trazado 600111" d="M35.424,19.323a3.888,3.888,0,0,0,.364,1.12c2.744,5.778,9.919,6.878,12.865,7.075l-.827-5.754Z" transform="translate(-14354.846 -10987.271)"/>
        <path id="Trazado_600112" data-name="Trazado 600112" d="M54.176,6.8s6.457,14.513,4.221,22.7S48.7,36.463,44.233,34.912a14.757,14.757,0,0,1-6.554-4.272,6.286,6.286,0,0,1-6.966-2.413c-2.81-3.853-1.125-8.311,1.244-9.345s5.21.662,5.21.662l-2.243-4.214S44.1-6.229,54.176,6.8" transform="translate(-14359.182 -10998.998)" fill="#f48462"/>
        <path id="Trazado_600113" data-name="Trazado 600113" d="M44.3,18.875a.469.469,0,0,1-.151-.024.511.511,0,0,1-.339-.64c.824-2.66-1.169-5.531-1.188-5.56a.512.512,0,1,1,.837-.591c.094.134,2.3,3.319,1.331,6.454a.515.515,0,0,1-.49.361" transform="translate(-14349.856 -10992.522)"/>
        <path id="Trazado_600114" data-name="Trazado 600114" d="M35.379,18.752a.514.514,0,0,1-.373-.16L31.051,14.4a.513.513,0,1,1,.747-.7l3.954,4.189a.514.514,0,0,1-.022.727.505.505,0,0,1-.351.138" transform="translate(-14358.013 -10991.331)"/>
        <path id="Trazado_600115" data-name="Trazado 600115" d="M31.288,16.537a.513.513,0,0,1-.077-1.019l2.735-.415a.513.513,0,0,1,.153,1.014l-2.735.415a.578.578,0,0,1-.077.005" transform="translate(-14358.107 -10990.238)"/>
        <path id="Trazado_600116" data-name="Trazado 600116" d="M40.049,14.325a.512.512,0,0,1-.507-.448L39.2,11.166a.511.511,0,0,1,.443-.574.521.521,0,0,1,.574.443l.345,2.713a.512.512,0,0,1-.443.574c-.022,0-.044,0-.066,0" transform="translate(-14352.2 -10993.402)"/>
        <path id="Trazado_600117" data-name="Trazado 600117" d="M44.8,13.942a.512.512,0,0,1-.505-.437l-.4-2.7a.512.512,0,1,1,1.013-.15l.4,2.7a.512.512,0,0,1-.432.582.554.554,0,0,1-.075.005" transform="translate(-14348.9 -10993.666)"/>
        <path id="Trazado_600118" data-name="Trazado 600118" d="M38.817,10.767a.5.5,0,0,1-.247-.065.51.51,0,0,1-.2-.694c1.057-1.923,3.509-1.346,3.612-1.321a.514.514,0,0,1,.376.62.523.523,0,0,1-.62.378c-.071-.019-1.794-.412-2.471.817a.51.51,0,0,1-.449.266" transform="translate(-14352.823 -10994.808)"/>
        <path id="Trazado_600119" data-name="Trazado 600119" d="M46.129,10.03a.514.514,0,0,1-.407-.2A2.016,2.016,0,0,0,44.553,9.1a1.122,1.122,0,0,0-.865.328.513.513,0,1,1-.674-.773,2.1,2.1,0,0,1,1.646-.575,3.066,3.066,0,0,1,1.876,1.13.511.511,0,0,1-.407.822" transform="translate(-14349.641 -10995.173)"/>
        <path id="Trazado_600120" data-name="Trazado 600120" d="M39.455,22.362s3.945-2.669,3.709-6.718-1.125-5.082-1.125-5.082a38.1,38.1,0,0,0,8.413-1.479A11.466,11.466,0,0,0,54,7.387l1.067,1.254c1.162-.053,3.819-7.1,2.07-8.355S46.012,2.3,46.012,2.3,36.139-.022,30.375,7s.694,15.287.694,15.287,1.707-3.618,8.386.078" transform="translate(-14360.07 -11000.835)" fill="#431949"/>
        <path id="Trazado_600121" data-name="Trazado 600121" d="M45,30.424a16.844,16.844,0,0,1-10.755-3.865.514.514,0,0,1,.645-.8,15.852,15.852,0,0,0,15.369,2.754.514.514,0,0,1,.4.946A16.065,16.065,0,0,1,45,30.424" transform="translate(-14355.809 -10982.834)" fill="#ffba57"/>
        <path id="Trazado_600122" data-name="Trazado 600122" d="M42.36,20.162a3.1,3.1,0,0,1-.88-.128,1.946,1.946,0,0,1-1.229-.953,2.518,2.518,0,0,1-.1-1.818.512.512,0,0,1,.266-.3.5.5,0,0,1,.4-.017l3.773,1.413a.512.512,0,0,1,.17.854,3.812,3.812,0,0,1-2.4.948M41.051,18.13a1.1,1.1,0,0,0,.111.48.932.932,0,0,0,.608.441,2.244,2.244,0,0,0,1.484-.1Z" transform="translate(-14351.617 -10988.963)"/>
        <path id="Trazado_600123" data-name="Trazado 600123" d="M85.433,49.141l.414-2.609s10-7.615,16.16-10.128c2.59-1.057,6.219-.175,3.157,3.252a14.5,14.5,0,0,0-2.475,4.051,39.559,39.559,0,0,0,8.335-3.809c2.172-1.44,5.346-7.227,7.21-5.972,2.961,1.995-.443,7.644-.443,7.644s1.539-7.155,4.461-4.362S117.209,54.041,113.42,57.4s-23.776,7.262-23.776,7.262Z" transform="translate(-14319.741 -10977.145)" fill="#f48462"/>
        <path id="Trazado_600124" data-name="Trazado 600124" d="M98.022,43.7a.514.514,0,0,1-.049-1.026c4.325-.425,8.455-4.274,8.5-4.311a.514.514,0,1,1,.7.747c-.179.168-4.423,4.127-9.1,4.587l-.051,0" transform="translate(-14311.265 -10974.003)"/>
        <path id="Trazado_600125" data-name="Trazado 600125" d="M104.682,45.969a.525.525,0,0,1-.267-.075L95.65,40.575a.515.515,0,0,1,.534-.88l8.467,5.138,3.9-2.922a.514.514,0,0,1,.618.822l-4.18,3.132a.513.513,0,0,1-.308.1" transform="translate(-14312.742 -10973.021)"/>
        <path id="Trazado_600126" data-name="Trazado 600126" d="M91.162,45.8a.514.514,0,0,1-.155-1,19.32,19.32,0,0,0,7.86-5,.514.514,0,0,1,.774.677,20.069,20.069,0,0,1-8.324,5.305.49.49,0,0,1-.155.024" transform="translate(-14316.08 -10973.021)"/>
        <path id="Trazado_600127" data-name="Trazado 600127" d="M56.183,29.261s8.971,6.675,19.069,12.606c0,0,11.6,4.619,19.436,3.319s15.641-3.319,15.641-3.319l11.713,30.646s-34.269,28.7-68.1,3.9c-9.722-7.126,2.245-47.156,2.245-47.156" transform="translate(-14344.521 -10980.295)" fill="#3f9e97"/>
        <path id="Trazado_600128" data-name="Trazado 600128" d="M57.119,54.011A.514.514,0,0,1,56.6,53.5c0-2.359-3.543-13.7-5.417-19.373a.515.515,0,0,1,.977-.323c.223.676,5.468,16.584,5.468,19.7a.514.514,0,0,1-.514.514" transform="translate(-14343.798 -10977.356)" fill="#ffba57"/>
        <path id="Trazado_600129" data-name="Trazado 600129" d="M53.063,172.612s.825-37.195,6.605-36.419,11.56,6.2,11.56,6.2,13.211-6.975,18.991-3.1,9.1,12.4,9.1,12.4L131.5,172.612s3.891,6.2,2.771,9.3c-.873,2.418-49.82,1.064-71.294.351-5.536-.184-9.916-4.449-9.916-9.648" transform="translate(-14342.464 -10905.24)" fill="#1f5e68"/>
        <path id="Trazado_600130" data-name="Trazado 600130" d="M82.645,162.094s-8.069-19.748-13.28-23.157-18.245,7.412-18.245,7.412-10.915-11.492-13.6-5.463-3.986,27.618-1.95,32.383,17.008,12.7,36.677,12.647c9.271-.026,22.638-2.888,22.646-6.074.012-5.007-9.087-14.45-12.247-17.748" transform="translate(-14355.443 -10903.772)" fill="#286c7c"/>
        <path id="Trazado_600131" data-name="Trazado 600131" d="M64.5,148.982H49.4a.515.515,0,0,1,0-1.03H64.5a.515.515,0,0,1,0,1.03" transform="translate(-14345.395 -10896.978)" fill="#fff"/>
        <path id="Trazado_600132" data-name="Trazado 600132" d="M66.333,152.995H50.343a.514.514,0,1,1,0-1.028h15.99a.514.514,0,1,1,0,1.028" transform="translate(-14344.733 -10894.159)" fill="#fff"/>
        <path id="Trazado_600133" data-name="Trazado 600133" d="M75.773,148.164a.515.515,0,0,1-.068-1.025l9.619-1.312a.514.514,0,1,1,.14,1.019l-9.62,1.312a.526.526,0,0,1-.071.005" transform="translate(-14326.883 -10898.473)" fill="#fff"/>
        <path id="Trazado_600134" data-name="Trazado 600134" d="M77.191,152.546a.514.514,0,0,1-.077-1.023L93.3,149.062a.514.514,0,1,1,.155,1.016l-16.189,2.463a.607.607,0,0,1-.078.005" transform="translate(-14325.887 -10896.204)" fill="#fff"/>
        <path id="Trazado_600135" data-name="Trazado 600135" d="M68.661,178.037a.523.523,0,0,1-.516-.548c.046-.689,4.577-68.85,2.9-76.786C69.906,95.318,49.269,76.874,49.06,76.689a.514.514,0,0,1,.165-.866L61.631,71.27a.514.514,0,1,1,.354.965l-11.6,4.258c3.595,3.244,20.565,18.781,21.668,24,1.707,8.074-2.689,74.253-2.878,77.067a.514.514,0,0,1-.511.48" transform="translate(-14345.395 -10950.829)" fill="#fff"/>
        <path id="Trazado_600136" data-name="Trazado 600136" d="M31.732,103.49a.516.516,0,0,1-.511-.565c.026-.269.674-6.627,3.821-8.736a4.068,4.068,0,0,1,3.591-.465c1.147.347,1.775.936,1.864,1.748.311,2.837-7.036,7.121-8.513,7.952a.512.512,0,0,1-.252.066m5.518-8.954a2.872,2.872,0,0,0-1.636.507c-2.056,1.377-2.919,5.13-3.225,6.956,3.3-1.974,7.245-4.961,7.087-6.415-.041-.364-.424-.659-1.139-.875a3.737,3.737,0,0,0-1.088-.174" transform="translate(-14357.798 -10935.195)" fill="#fff"/>
        <path id="Trazado_600137" data-name="Trazado 600137" d="M50.959,67.09h55.619l15.884-35.93H69.037a3.37,3.37,0,0,0-3.081,2Z" transform="translate(-14343.94 -10978.962)" fill="#fff"/>
        <path id="Trazado_600138" data-name="Trazado 600138" d="M53.8,67.09h55.619l14.176-32.067a2.75,2.75,0,0,0-2.515-3.863H69.682Z" transform="translate(-14341.947 -10978.962)" fill="#5d2866"/>
        <path id="Trazado_600139" data-name="Trazado 600139" d="M40.941,56.81h78.527a2.27,2.27,0,0,0,0-4.539H40.941a2.27,2.27,0,0,0,0,4.539" transform="translate(-14352.565 -10964.143)"/>
        <path id="Trazado_600140" data-name="Trazado 600140" d="M41.624,52.607s10.346-5.344,12.5-5.251,9.887.233,10.35,1.819l-2.422,5.2s-1.319,1.4,1.722,2.638,12.239.334,13.163,2.578-2.463,2.092-2.463,2.092,4,2-.614,4.463-25.1,7.387-34.244,2.769,2.012-16.31,2.012-16.31" transform="translate(-14354.435 -10967.593)" fill="#f48462"/>
        <path id="Trazado_600141" data-name="Trazado 600141" d="M53.274,58.463c-.371,0-.6-.01-.64-.012a.5.5,0,0,1-.48-.528.524.524,0,0,1,.528-.482,25.57,25.57,0,0,0,10.249-1.92.5.5,0,1,1,.414.921,26.011,26.011,0,0,1-10.071,2.02" transform="translate(-14343.102 -10961.892)"/>
        <path id="Trazado_600142" data-name="Trazado 600142" d="M27.621,28.3S-3.481,62.158,1.577,84.2,69.85,93.471,69.85,93.471l-3-33.081-31.4.688Z" transform="translate(-14378.995 -10980.97)" fill="#3f9e97"/>
        <path id="Trazado_600143" data-name="Trazado 600143" d="M16.827,50.371c-2.078,0-3.755-.267-4.182-1.057-.289-.533-.112-1.151.528-1.836,3.846-4.122,13.063.7,13.454.905a.515.515,0,0,1-.153.962,64.344,64.344,0,0,1-9.647,1.026m.82-3.535a4.911,4.911,0,0,0-3.724,1.343c-.374.4-.4.606-.374.647.465.856,5.838.577,11.114-.228a19.443,19.443,0,0,0-7.015-1.762" transform="translate(-14370.93 -10968.674)" fill="#ffba57"/>
        <path id="Trazado_600144" data-name="Trazado 600144" d="M19.852,71.351c-.291,0-.584,0-.878,0a.515.515,0,0,1,.005-1.03A125.283,125.283,0,0,0,47.31,67.2a.515.515,0,0,1,.255,1,125.96,125.96,0,0,1-27.713,3.152" transform="translate(-14366.75 -10953.672)" fill="#ffba57"/>
        <path id="Trazado_600145" data-name="Trazado 600145" d="M20.877,52.069a.514.514,0,0,1-.293-.938c2.771-1.916.337-8.421.313-8.488a.514.514,0,0,1,.96-.366c.114.3,2.744,7.327-.689,9.7a.512.512,0,0,1-.291.092" transform="translate(-14365.419 -10971.392)" fill="#ffba57"/>
      </g>
    </g>
  </g>
</svg>
