<svg xmlns="http://www.w3.org/2000/svg" xmlns:xlink="http://www.w3.org/1999/xlink" width="400" height="266.606" viewBox="0 0 400 266.606">
  <defs>
    <clipPath id="clip-path">
      <rect id="Rectángulo_341254" data-name="Rectángulo 341254" width="330.708" height="200.065" transform="translate(0 0)" fill="#fbe9b8"/>
    </clipPath>
    <clipPath id="clip-path-2">
      <rect id="Rectángulo_341263" data-name="Rectángulo 341263" width="11.902" height="22.507" transform="translate(0 0)" fill="none"/>
    </clipPath>
  </defs>
  <g id="Grupo_946737" data-name="Grupo 946737" transform="translate(-685 -1823.328)">
    <g id="Grupo_946733" data-name="Grupo 946733" transform="translate(716.105 1839.818)" clip-path="url(#clip-path)">
      <path id="Trazado_633960" data-name="Trazado 633960" d="M379.216,98.687c-.005-33.674-28.043-70.574-62.939-72.8q-.92-.059-1.858-.1c-50.027-2.332-53.838,58.684-99.1,65.565S123.278,65.3,81.18,87.745C34.651,112.553,19.516,220.9,162.434,225.487c114.347,3.67,216.8-26.33,216.782-126.8" transform="translate(-48.508 -25.716)" fill="#fbe9b8"/>
    </g>
    <path id="Trazado_633961" data-name="Trazado 633961" d="M570.867,84.371a8.627,8.627,0,0,0,2.224-.755l2.341,2.634,2.886-2.566-2.242-2.521a8.588,8.588,0,0,0,1.24-2.214l3.939.231.226-3.855-3.634-.213a8.662,8.662,0,0,0-.883-3.143l2.634-2.342-2.566-2.886-2.521,2.242a8.588,8.588,0,0,0-2.66-1.391l.192-3.269-3.855-.226L568,67.255a8.645,8.645,0,0,0-3.266,1.155L562.5,65.89l-2.886,2.566,2.342,2.634a8.6,8.6,0,0,0-1.01,2.12l-3.723-.218-.226,3.855,3.613.212a8.646,8.646,0,0,0,1.154,3.266l-2.521,2.241L561.8,85.45l2.634-2.341a8.679,8.679,0,0,0,2.568,1.147l-.212,3.611,3.855.226Zm-4.307-6.164a3.539,3.539,0,1,1,5,.293,3.543,3.543,0,0,1-5-.293" transform="translate(485.176 1800.333)" fill="#dbccba"/>
    <path id="Trazado_633962" data-name="Trazado 633962" d="M554.148,52.982a4.708,4.708,0,0,0,1.217-.408l1.274,1.444,1.582-1.4L557,51.239a4.679,4.679,0,0,0,.682-1.207l2.153.135.132-2.106-1.986-.124a4.723,4.723,0,0,0-.476-1.719l1.444-1.274-1.4-1.583-1.383,1.22a4.7,4.7,0,0,0-1.451-.766l.112-1.786-2.106-.131-.108,1.725a4.728,4.728,0,0,0-1.787.625l-1.22-1.383-1.583,1.4L549.3,45.7a4.686,4.686,0,0,0-.557,1.157l-2.034-.127-.132,2.106,1.974.123a4.719,4.719,0,0,0,.624,1.788L547.8,51.97l1.4,1.583,1.444-1.274a4.735,4.735,0,0,0,1.4.633l-.124,1.973,2.106.132ZM551.807,49.6a1.934,1.934,0,1,1,2.73.171,1.937,1.937,0,0,1-2.73-.171" transform="translate(488.911 1808.297)" fill="#dbccba"/>
    <path id="Trazado_633963" data-name="Trazado 633963" d="M28.107,256.939l3.079-2.33L29,251.724a8.659,8.659,0,0,0,1.5-2.381l3.491.484.53-3.825-3.341-.463a8.648,8.648,0,0,0-.854-3.358L33.214,240l-2.33-3.08-2.974,2.25a8.608,8.608,0,0,0-2.018-1.2l.484-3.492-3.824-.53-.464,3.341a8.656,8.656,0,0,0-3.357.854l-1.908-2.523-3.08,2.329,1.975,2.612a8.6,8.6,0,0,0-1.44,2.634l-3.342-.464-.531,3.825,3.492.484a8.641,8.641,0,0,0,1.011,3.1l-2.9,2.195,2.33,3.08,3.148-2.38a8.574,8.574,0,0,0,2.26,1.152l-.464,3.342,3.825.531.484-3.491a8.622,8.622,0,0,0,2.269-.607Zm-6.084-7.474a3.539,3.539,0,1,1,3.992-3.02,3.544,3.544,0,0,1-3.992,3.02" transform="translate(681.266 1739.399)" fill="#dbccba"/>
    <path id="Trazado_633964" data-name="Trazado 633964" d="M28.631,218.124l1.677-1.279-1.2-1.572a4.752,4.752,0,0,0,.814-1.3l1.908.257.282-2.092-1.826-.246a4.739,4.739,0,0,0-.474-1.833l1.572-1.2-1.279-1.678-1.621,1.236a4.711,4.711,0,0,0-1.106-.653l.258-1.908-2.092-.282L25.3,207.4a4.727,4.727,0,0,0-1.833.474L22.419,206.5l-1.678,1.28,1.085,1.422a4.7,4.7,0,0,0-.781,1.443l-1.828-.247-.282,2.092,1.909.257a4.715,4.715,0,0,0,.559,1.694l-1.582,1.206,1.279,1.678,1.715-1.307a4.688,4.688,0,0,0,1.238.625l-.247,1.827,2.092.282.257-1.909A4.7,4.7,0,0,0,27.4,216.5Zm-3.341-4.071a1.934,1.934,0,1,1,2.175-1.658,1.936,1.936,0,0,1-2.175,1.658" transform="translate(678.207 1749.579)" fill="#dbccba"/>
    <path id="Trazado_633965" data-name="Trazado 633965" d="M404.443,400.137c0,4.073-84.823,7.375-189.457,7.375s-189.457-3.3-189.457-7.375,84.823-7.375,189.457-7.375,189.457,3.3,189.457,7.375" transform="translate(675.841 1682.423)" fill="#dbccba"/>
    <path id="Trazado_633966" data-name="Trazado 633966" d="M141.315,375.439l.755,5.995h7.646l.445-6.31Z" transform="translate(634.302 1688.75)" fill="#a75436"/>
    <path id="Trazado_633967" data-name="Trazado 633967" d="M173.195,373.982l.929,6.967h7.646l-.295-7.175Z" transform="translate(622.865 1689.235)" fill="#a75436"/>
    <path id="Trazado_633968" data-name="Trazado 633968" d="M199.586,395.851h-28.92a4.035,4.035,0,0,1-.38-1.606c-.181-2.446.6-6.35.981-8.812.046-.287.086-.556.117-.8a8.482,8.482,0,0,0,.086-1,1.476,1.476,0,0,1,1.779-1.665c2.926,2.87,6.24-1.434,8.175-.022,0,0,.833.6,3.129,2.663s6.2,3.429,9.525,4.82c4.291,1.794,5.508,3.586,5.746,4.82a2.261,2.261,0,0,1-.238,1.606" transform="translate(623.919 1686.41)" fill="#c47b38"/>
    <path id="Trazado_633969" data-name="Trazado 633969" d="M199.6,402.9h-28.92a4.034,4.034,0,0,1-.38-1.606h29.538a2.261,2.261,0,0,1-.238,1.606" transform="translate(623.904 1679.362)" fill="#9e5022"/>
    <path id="Trazado_633970" data-name="Trazado 633970" d="M174.18,397.521h-.859a6.348,6.348,0,0,0,1.555-4.63,8.158,8.158,0,0,0-3.045-5.788c.046-.287.086-.556.117-.8a8.862,8.862,0,0,1,3.617,6.552,7.015,7.015,0,0,1-1.384,4.665" transform="translate(623.355 1684.74)" fill="#9e5022"/>
    <path id="Trazado_633971" data-name="Trazado 633971" d="M191.518,388.136a.477.477,0,0,1-.114-.939l1.806-.448a.476.476,0,0,1,.23.925l-1.806.448a.449.449,0,0,1-.115.015" transform="translate(616.463 1684.585)" fill="#f5efe0"/>
    <path id="Trazado_633972" data-name="Trazado 633972" d="M188.718,385.79a.477.477,0,0,1-.114-.939l1.806-.448a.476.476,0,1,1,.23.925l-1.806.449a.48.48,0,0,1-.115.014" transform="translate(617.467 1685.427)" fill="#f5efe0"/>
    <path id="Trazado_633973" data-name="Trazado 633973" d="M194.335,389.773a.477.477,0,0,1-.114-.939l1.806-.448a.476.476,0,1,1,.23.925l-1.806.449a.48.48,0,0,1-.115.014" transform="translate(615.452 1683.998)" fill="#f5efe0"/>
    <path id="Trazado_633974" data-name="Trazado 633974" d="M197.153,391.348a.477.477,0,0,1-.114-.939l1.806-.448a.476.476,0,0,1,.23.925l-1.806.449a.477.477,0,0,1-.115.014" transform="translate(614.441 1683.433)" fill="#f5efe0"/>
    <path id="Trazado_633975" data-name="Trazado 633975" d="M200.224,392.8a.476.476,0,0,1-.114-.939l1.806-.448a.476.476,0,1,1,.23.925l-1.806.449a.511.511,0,0,1-.115.013" transform="translate(613.339 1682.911)" fill="#f5efe0"/>
    <path id="Trazado_633976" data-name="Trazado 633976" d="M203.556,394.045a.477.477,0,0,1-.114-.939l1.806-.448a.477.477,0,0,1,.23.925l-1.807.448a.471.471,0,0,1-.115.014" transform="translate(612.144 1682.465)" fill="#f5efe0"/>
    <path id="Trazado_633977" data-name="Trazado 633977" d="M122.323,202.853c.075.3.156.6.245.884,0,.011.006.023.009.034q.181.585.4,1.122c1.3,3.172,11.308,3.636,21.164,2.534,7.644-.855,15.2-2.655,18.511-4.869,3.113-2.078-3.517-21.257-3.517-21.257l-37.394,7.848s-.841,7.975.583,13.7" transform="translate(641.414 1758.285)" fill="#1f271d"/>
    <path id="Trazado_633978" data-name="Trazado 633978" d="M157.835,216.42,163.96,269.3c-1.409,8.9,2.387,45.33,2.387,45.33l11.011-.333,3.2-48.259c-.073-13.971-1.544-33.286-3.713-54.357-.033-.323-.065-.645-.1-.97q-.165-1.612-.34-3.24-.045-.434-.092-.869l-3.6,1.658-.883.407-14.138,6.511Z" transform="translate(628.427 1749.209)" fill="#1f271d"/>
    <path id="Trazado_633979" data-name="Trazado 633979" d="M169.222,318.7a.555.555,0,0,0,.056,0,.459.459,0,0,0,.4-.512c-3.917-31.824-1.377-44.906-1.351-45.034a.443.443,0,0,0,.005-.151l-6.607-50.431a.459.459,0,1,0-.909.119l6.6,50.358c-.208,1.139-2.427,14.526,1.354,45.251a.459.459,0,0,0,.455.4" transform="translate(627.308 1743.624)" fill="#514933"/>
    <path id="Trazado_633980" data-name="Trazado 633980" d="M173.536,196.66a18.734,18.734,0,0,0,3.974,8.244,10.636,10.636,0,0,0,2.1,1.8,8.882,8.882,0,0,0,1.951.946,7.965,7.965,0,0,0,.959.271c-.033-.323-.065-.645-.1-.97-.155-.04-.308-.084-.459-.135a8.033,8.033,0,0,1-1.854-.884,9.393,9.393,0,0,1-1.718-1.433,17.975,17.975,0,0,1-3.955-8.005.459.459,0,1,0-.9.168" transform="translate(622.746 1752.97)" fill="#514933"/>
    <path id="Trazado_633981" data-name="Trazado 633981" d="M160.487,207.744a.376.376,0,0,1-.361.387h0a.376.376,0,0,1-.4-.35c-.067-1.383-.149-2.8-.238-4.213-.015-.249-.031-.5-.048-.746-.3-4.622-.682-9.16-.971-12.363-.024-.259-.046-.51-.069-.752-.064-.7-.122-1.327-.172-1.854.254-.039.507-.08.757-.122.05.528.108,1.157.173,1.867.022.241.045.493.069.752.285,3.175.664,7.673.964,12.267.018.253.034.508.051.761.092,1.466.176,2.935.246,4.366" transform="translate(628.236 1755.979)" fill="#514933"/>
    <path id="Trazado_633982" data-name="Trazado 633982" d="M159.838,203.122a10.045,10.045,0,0,1-1.336.512c-.238.072-.493.138-.755.19a5.435,5.435,0,0,1-.723.094,2.641,2.641,0,0,1-1.283-.2,1.565,1.565,0,0,1-.87-1.168c-.278-1.425-.861-7.313-1.254-11.477-.025-.256-.048-.506-.071-.748-.062-.666-.118-1.272-.165-1.786.253-.031.507-.062.761-.095.048.517.1,1.131.168,1.806.023.241.046.491.07.748.394,4.154.975,10.032,1.245,11.414a.82.82,0,0,0,.461.645,2.7,2.7,0,0,0,1.615.021c.257-.056.514-.128.753-.205a9.1,9.1,0,0,0,1.049-.411.388.388,0,0,1,.512.167.365.365,0,0,1-.174.494" transform="translate(629.974 1755.723)" fill="#514933"/>
    <path id="Trazado_633983" data-name="Trazado 633983" d="M121.968,202.959s.265,2.975.687,7.535c.026.285.054.575.081.873a.03.03,0,0,1,0,.01.13.13,0,0,0,0,.034c.028.3.056.6.083.908,1.067,11.486,2.9,30.56,4.1,39.732,0,0-.179,17.26.46,30.581.592,12.377,4.86,27.223,5.462,30.893H144.2l.111-1.629v-102.9a111.023,111.023,0,0,0-10.584-4.3c-.3-.1-.594-.2-.893-.3-.566-.183-1.133-.36-1.7-.525q-.451-.133-.9-.255c-3.377-.925-6.512-1.384-8.271-.653" transform="translate(641.243 1750.645)" fill="#1f271d"/>
    <path id="Trazado_633984" data-name="Trazado 633984" d="M136,319.008a.447.447,0,0,0,.087-.008.459.459,0,0,0,.364-.538c-.031-.161-3.138-16.266-4.482-25.388-1.34-9.093-.68-34.672-.673-34.929a.454.454,0,0,0,0-.066c-1.006-8.556-3.064-38.094-3.085-38.392a.459.459,0,0,0-.916.063c.021.3,2.075,29.783,3.086,38.4-.027,1.063-.646,26.033.683,35.054,1.347,9.143,4.458,25.266,4.489,25.429a.459.459,0,0,0,.45.372" transform="translate(639.335 1744.667)" fill="#514933"/>
    <path id="Trazado_633985" data-name="Trazado 633985" d="M149.675,393.473c0,.069,0,.136,0,.2-.006.307-.02.582-.033.817-.031.519-.069.838-.069.838H132.343a9.47,9.47,0,0,1-.02-1.655A8.61,8.61,0,0,1,135.4,387.3c3.257-2.518,2-1.992,2.668-3.14.075-.128.661-2.078.723-2.212.56-1.192,1.076-1.756,4.162-1.756,4.094,0,4.454,1.986,4.891,3.032a19.549,19.549,0,0,1,.682,2.432c.1.435.206.9.308,1.374.252,1.187.488,2.426.648,3.416a17.961,17.961,0,0,1,.193,3.031" transform="translate(637.537 1686.933)" fill="#c47b38"/>
    <path id="Trazado_633986" data-name="Trazado 633986" d="M158.174,396.521c0,.069,0,.136,0,.2-.006.307-.02.582-.033.817a4.806,4.806,0,0,1-1.79-2.32c-1.066-2.9.573-6.387.642-6.535l.035.017c.1.435.206.9.308,1.374a7.827,7.827,0,0,0-.215,4.865,4,4,0,0,0,1.056,1.582" transform="translate(629.038 1683.886)" fill="#9e5022"/>
    <path id="Trazado_633987" data-name="Trazado 633987" d="M149.671,401.219c-.023.98-.1,1.655-.1,1.655H132.342a9.516,9.516,0,0,1-.019-1.655Z" transform="translate(637.537 1679.389)" fill="#9e5022"/>
    <path id="Trazado_633988" data-name="Trazado 633988" d="M147.148,387.849a.479.479,0,0,1-.123-.016,8.523,8.523,0,0,0-3.994-.082.491.491,0,0,1-.262-.947,9.441,9.441,0,0,1,4.5.078.491.491,0,0,1-.122.967" transform="translate(633.91 1684.643)" fill="#f5efe0"/>
    <path id="Trazado_633989" data-name="Trazado 633989" d="M147.567,384.955a.485.485,0,0,1-.124-.016,8.52,8.52,0,0,0-3.994-.082.491.491,0,0,1-.262-.947,9.451,9.451,0,0,1,4.5.078.491.491,0,0,1-.122.967" transform="translate(633.76 1685.681)" fill="#f5efe0"/>
    <path id="Trazado_633990" data-name="Trazado 633990" d="M146,390.276a.478.478,0,0,1-.123-.016,8.614,8.614,0,0,0-3.995-.082.491.491,0,0,1-.261-.947,9.454,9.454,0,0,1,4.5.078.491.491,0,0,1-.123.967" transform="translate(634.322 1683.772)" fill="#f5efe0"/>
    <path id="Trazado_633991" data-name="Trazado 633991" d="M144.65,393.036a.486.486,0,0,1-.124-.016,8.612,8.612,0,0,0-3.994-.082.491.491,0,0,1-.261-.946,9.438,9.438,0,0,1,4.5.078.491.491,0,0,1-.123.967" transform="translate(634.806 1682.782)" fill="#f5efe0"/>
    <path id="Trazado_633992" data-name="Trazado 633992" d="M123.165,210.823a.026.026,0,0,1,0,.01.134.134,0,0,0,0,.034q.042.446.083.909a7.393,7.393,0,0,0,3.809-.342,12.234,12.234,0,0,0,5.531-4.687,22.585,22.585,0,0,0,1.561-2.6,22.119,22.119,0,0,0,1.093-2.45.459.459,0,1,0-.864-.308,21.675,21.675,0,0,1-1.121,2.461,22.046,22.046,0,0,1-1.456,2.4,11.3,11.3,0,0,1-5.059,4.326,6.525,6.525,0,0,1-3.583.251" transform="translate(640.814 1751.189)" fill="#514933"/>
    <path id="Trazado_633994" data-name="Trazado 633994" d="M160.946,148.968c-.421.394-.873.778-1.35,1.151-.113.092-.231.18-.349.267a25.522,25.522,0,0,1-2.5,1.662q-.192.115-.387.224a40.187,40.187,0,0,1-12.136,4.3c-1.059.2-2.139.373-3.233.505-1.236.149-2.492.252-3.758.306q-1.4.058-2.821.032c-.195,0-.387-.008-.582-.015a40.545,40.545,0,0,1-16.245-3.787c-.067-.03-.131-.062-.2-.094-.037-.1-.075-.21-.112-.323-1.037-3.136-2.124-10.539-2.907-16.79-.019-.143-.037-.287-.053-.428-.345-2.764-.627-5.273-.816-7.047-.017-.165-.034-.323-.049-.475q-.048-.437-.083-.8-.148-1.463-.242-2.927a128.16,128.16,0,0,1-.017-14.373l.038-.808c0-.078.008-.155.011-.233.008-.15.017-.3.023-.45q.11-2.076.244-4.21c.008-.143.017-.289.028-.434v0c.147-2.411.314-4.884.475-7.445.439-6.937,2.344-11.793,5.613-13.973.147-.1.3-.19.45-.276h0a7.582,7.582,0,0,1,2.6-.911,21.591,21.591,0,0,0,4.319-1.136c.5-.189.95-.383,1.361-.578.171-.079.332-.158.487-.239a16.061,16.061,0,0,0,2.6-1.607h11.476a8.757,8.757,0,0,0,3.57,2.986c.147.069.3.137.451.2.224.1.451.189.68.272.539.2,1.086.376,1.632.537.152.045.3.088.455.13,3.231.925,6.273,1.562,7.034,5.383.366,1.838-.325,4.834-.892,9.682-.021.188-.043.376-.064.571-.1.877-.19,1.812-.269,2.811-.015.169-.028.338-.043.511-.186,2.509-.295,5.395-.231,8.717.017.943.051,1.923.1,2.937q.067,1.425.18,2.948.106,1.419.255,2.922.132,1.32.3,2.7c.071.582.144,1.17.225,1.771v0c.023.165.045.329.071.5.028.212.058.428.09.644.122.851.276,1.885.458,3.046.021.141.045.287.066.432.216,1.374.464,2.911.736,4.533.026.146.051.291.074.439.526,3.1,1.136,6.48,1.763,9.6.036.189.074.374.113.56.456,2.242.918,4.332,1.361,6.067" transform="translate(644.492 1795.324)" fill="#3d4c83"/>
    <path id="Trazado_633995" data-name="Trazado 633995" d="M149.647,87.772c-4.585,0-8.109-4.99-8.26-5.207a.321.321,0,0,1,.526-.366c.036.051,3.621,5.131,8,4.925a5.581,5.581,0,0,0,5.358-3.759.321.321,0,0,1,.618.172,6.313,6.313,0,0,1-5.946,4.228c-.1,0-.195.006-.292.006" transform="translate(634.297 1793.888)" fill="#1f294a"/>
    <path id="Trazado_633996" data-name="Trazado 633996" d="M149.783,175.921a32.069,32.069,0,0,1-13.977-3.652,56.569,56.569,0,0,1-11.814-7.872.321.321,0,1,1,.432-.474A55.919,55.919,0,0,0,136.1,171.7c6.173,3.023,15.2,5.68,23.138,1.166a.321.321,0,0,1,.317.558,19.492,19.492,0,0,1-9.773,2.5" transform="translate(640.555 1764.55)" fill="#1f294a"/>
    <path id="Trazado_633997" data-name="Trazado 633997" d="M158.757,171.451h-.006c-6.732-.108-12.227-9.079-12.457-9.46a.321.321,0,0,1,.55-.332c.055.09,5.542,9.048,11.918,9.151a.321.321,0,0,1-.005.642" transform="translate(632.533 1765.388)" fill="#1f294a"/>
    <path id="Trazado_633998" data-name="Trazado 633998" d="M121.482,144.158a5.651,5.651,0,0,1-4.877,2.482,8.721,8.721,0,0,1-2.973-.559q-.026-.247-.049-.475c3.558,1.363,6.3.244,7.541-1.681a3.816,3.816,0,0,0-.845-5.306c-2.3-1.724-1.692-3.136-1.048-4.627.634-1.467,1.288-2.984-.282-5.262a5.213,5.213,0,0,0-3.374-2.362,5.556,5.556,0,0,0-2.285.1c.009-.15.017-.3.024-.45a5.877,5.877,0,0,1,2.334-.072,5.612,5.612,0,0,1,3.651,2.539c1.705,2.475.939,4.248.325,5.675-.625,1.448-1.119,2.593.911,4.116a4.287,4.287,0,0,1,.948,5.881" transform="translate(644.357 1778.174)" fill="#1f294a"/>
    <path id="Trazado_633999" data-name="Trazado 633999" d="M142.291,122.133c-3.628-1.386-3.639-3.647-3.647-6.263-.011-2.5-.024-5.335-3.145-7.926-.064-.054-.128-.105-.192-.156a3.392,3.392,0,0,0-5.356,3.71c.828,2.477.915,5.917.252,9.947a8.014,8.014,0,0,0,2.133,7.1,13.947,13.947,0,0,0,9.391,3.788,9.071,9.071,0,0,0,1.072-.062,4.893,4.893,0,0,0,4.28-4.148c.306-2.488-1.485-4.725-4.788-5.99m4.362,5.939a4.456,4.456,0,0,1-3.906,3.776,13.334,13.334,0,0,1-10.1-3.6,7.511,7.511,0,0,1-2.022-6.736,31.444,31.444,0,0,0,.454-5.068,16.152,16.152,0,0,0-.721-5.082,2.907,2.907,0,0,1,1.118-3.376,2.92,2.92,0,0,1,3.564.133l.186.154c2.97,2.462,2.98,5.072,2.991,7.6.01,2.659.019,5.172,3.923,6.663,3.106,1.19,4.794,3.258,4.514,5.538" transform="translate(638.446 1784.936)" fill="#1f294a"/>
    <path id="Trazado_634000" data-name="Trazado 634000" d="M168.3,100.643c-2.678-.543-4.957-2.485-5.2-3.861a.781.781,0,0,1,.36-.886c2.83-1.763,3.658-4.024,3.161-8.643a3.42,3.42,0,0,1,.762-2.732l.088-.1c-.152-.043-.3-.085-.456-.13a3.84,3.84,0,0,0-.819,3.006c.475,4.419-.3,6.573-2.963,8.231a1.215,1.215,0,0,0-.554,1.327c.272,1.512,2.616,3.611,5.54,4.2a7.664,7.664,0,0,0,1.508.154,6.784,6.784,0,0,0,3.821-1.155c.022-.195.043-.383.065-.571a6.557,6.557,0,0,1-5.308,1.153" transform="translate(626.65 1793.086)" fill="#1f294a"/>
    <path id="Trazado_634001" data-name="Trazado 634001" d="M149.372,98.478a4.638,4.638,0,0,0-4.148-1.769,2.676,2.676,0,0,0-2.509,2.017c-.4,1.517.641,2.135,1.647,2.732,1.145.682,2.33,1.386,2.212,3.4-.115,1.94.7,3.369,2.185,3.825a3.026,3.026,0,0,0,.873.133,2.346,2.346,0,0,0,2.051-1.055c1.593-2.674-.571-7.117-2.31-9.288m1.942,9.07a2.12,2.12,0,0,1-2.432.73c-1.279-.392-1.983-1.66-1.883-3.389.135-2.28-1.281-3.121-2.419-3.8-1.027-.61-1.769-1.05-1.452-2.257a2.252,2.252,0,0,1,2.146-1.7,3.878,3.878,0,0,1,.441-.026,4.307,4.307,0,0,1,3.325,1.636c1.666,2.081,3.758,6.313,2.276,8.8" transform="translate(633.831 1788.643)" fill="#1f294a"/>
    <path id="Trazado_634002" data-name="Trazado 634002" d="M164.951,124.417a5.2,5.2,0,0,0-5.455-3.46,2.447,2.447,0,0,0-2.432,1.994c-.263,1.585.98,2.441,2.182,3.268,1.411.973,2.745,1.891,1.882,3.955-.744,1.782-.691,3.14.142,3.726a1.7,1.7,0,0,0,.993.289,4.748,4.748,0,0,0,2.954-1.42,3.627,3.627,0,0,0,.93-2.764,18.249,18.249,0,0,0-1.2-5.59m-.024,8.037c-1.275,1.164-2.676,1.615-3.41,1.1-.657-.46-.654-1.63,0-3.209,1-2.385-.614-3.5-2.034-4.473-1.143-.787-2.221-1.53-2-2.85.158-.956.832-1.491,2.058-1.638a4.424,4.424,0,0,1,.535-.032,4.671,4.671,0,0,1,2.714.884,4.839,4.839,0,0,1,1.752,2.327c1.418,4.022,1.553,6.824.381,7.894" transform="translate(628.665 1779.946)" fill="#1f294a"/>
    <path id="Trazado_634003" data-name="Trazado 634003" d="M174.643,157.246c-2.032-.229-2.522.991-3.082,2.383a5.608,5.608,0,0,1-2.861,3.483,4.776,4.776,0,0,1-5.737-1.617,3.465,3.465,0,0,1-.03-4.518,2.764,2.764,0,0,0,.862-1.958,3.355,3.355,0,0,0-1.5-2.066c-.914-.773-1.778-1.5-1.492-2.736a2.7,2.7,0,0,1,1.966-2.039,4.1,4.1,0,0,1,1.143-.155,7.294,7.294,0,0,1,4.9,2.3,7.935,7.935,0,0,0,5.093,2.394c-.021-.146-.045-.291-.066-.432a7.527,7.527,0,0,1-4.728-2.266c-1.949-1.933-4.484-2.817-6.46-2.248a3.1,3.1,0,0,0-2.264,2.353c-.346,1.489.7,2.376,1.63,3.159.668.563,1.3,1.1,1.348,1.774a2.361,2.361,0,0,1-.757,1.64,3.851,3.851,0,0,0,.013,5.057,5.508,5.508,0,0,0,4.27,2.194,4.644,4.644,0,0,0,1.989-.447,6.033,6.033,0,0,0,3.074-3.712c.562-1.395.95-2.357,2.762-2.1-.024-.147-.049-.293-.075-.439" transform="translate(627.484 1770.377)" fill="#1f294a"/>
    <path id="Trazado_634004" data-name="Trazado 634004" d="M146.909,153.848a4.848,4.848,0,0,0-1.726-3.138,3.168,3.168,0,0,0-2.706-.314,5.4,5.4,0,0,1-4.464-.567,8.922,8.922,0,0,0-3.084-1.008,2.808,2.808,0,0,0-3.143,2.454,3.219,3.219,0,0,0,2.644,3.744,7.145,7.145,0,0,0,4.384-.458c1.116-.408,1.925-.7,2.956.064a5.4,5.4,0,0,0,3.076,1.157,2.489,2.489,0,0,0,1.136-.248,1.735,1.735,0,0,0,.93-1.662c0-.009,0-.015,0-.024m-1.123,1.3c-.9.46-2.451.1-3.761-.873a2.54,2.54,0,0,0-1.561-.56,5.353,5.353,0,0,0-1.8.439,6.67,6.67,0,0,1-4.144.441,2.8,2.8,0,0,1-2.312-3.254,2.394,2.394,0,0,1,2.669-2.1,8.471,8.471,0,0,1,2.946.969,5.814,5.814,0,0,0,4.766.594,2.77,2.77,0,0,1,2.353.255,4.473,4.473,0,0,1,1.54,2.825,1.307,1.307,0,0,1-.7,1.265" transform="translate(637.737 1769.945)" fill="#1f294a"/>
    <path id="Trazado_634005" data-name="Trazado 634005" d="M119.922,175.22c.886-.881,1.99-1.976,1.337-4.178a3.715,3.715,0,0,0-1.891-2.355,7.015,7.015,0,0,0-4.274-.392c.017.142.034.285.053.428a9.817,9.817,0,0,1,1.656-.152,5.182,5.182,0,0,1,2.368.5,3.3,3.3,0,0,1,1.677,2.1c.58,1.955-.34,2.868-1.228,3.752-.967.962-1.881,1.87-.071,3.8a4.58,4.58,0,0,1,.7,5.784,2.577,2.577,0,0,1-2.19,1.01c.036.113.074.22.111.323.067.032.131.064.2.094a2.973,2.973,0,0,0,2.219-1.161,5.014,5.014,0,0,0-.719-6.343c-1.526-1.63-.895-2.257.06-3.207" transform="translate(643.709 1763.007)" fill="#1f294a"/>
    <path id="Trazado_634006" data-name="Trazado 634006" d="M165.894,188.66a4.716,4.716,0,0,0-4.109-.21,6.562,6.562,0,0,0-3.656,2.811c-.973,1.358-1.56,2.18-5.573.616-4.323-1.684-7.378-.732-8.387.866-.755,1.2-.482,2.7.719,4.131.194.006.387.013.582.015-1.284-1.372-1.635-2.811-.937-3.917.567-.9,1.872-1.561,3.752-1.561a11.451,11.451,0,0,1,4.118.866c4.12,1.6,4.954.8,6.075-.768a6.116,6.116,0,0,1,3.442-2.653,4.319,4.319,0,0,1,3.744.162,4.465,4.465,0,0,1,1.754,2.728c.131-.073.259-.147.387-.224a4.779,4.779,0,0,0-1.91-2.863" transform="translate(633.43 1755.85)" fill="#1f294a"/>
    <path id="Trazado_634007" data-name="Trazado 634007" d="M135.836,183.6c-1.382-.571-1.279-.97-1.052-1.842a4.768,4.768,0,0,0-.062-3.081,2.579,2.579,0,0,0-1.467-1.624c-1.656-.68-3.862.374-3.953.419a.2.2,0,0,0-.035.019c-1.9,1.406-1.64,3.679-1.078,5.93.727,2.911,2.569,4.612,5.185,4.789.073.006.148.008.221.008a3.759,3.759,0,0,0,3.517-2.528,1.77,1.77,0,0,0-1.275-2.092m.858,2a3.357,3.357,0,0,1-3.292,2.19c-3.1-.212-4.317-2.546-4.8-4.469-.716-2.866-.455-4.453.9-5.468.205-.1,2.178-.977,3.587-.4a2.174,2.174,0,0,1,1.228,1.372,4.345,4.345,0,0,1,.049,2.83c-.261,1.011-.338,1.666,1.3,2.344.832.342,1.185.9,1.02,1.6" transform="translate(639.159 1759.89)" fill="#1f294a"/>
    <path id="Trazado_634008" data-name="Trazado 634008" d="M184.481,186.048a3.786,3.786,0,0,1-1.645-2.815,7.151,7.151,0,0,1,1.679-4.368c-.038-.186-.077-.373-.113-.56-.864,1.078-2.118,3-1.992,4.956a4.15,4.15,0,0,0,1.767,3.089c.118-.087.235-.175.349-.267l-.045-.034" transform="translate(619.563 1759.361)" fill="#1f294a"/>
    <path id="Trazado_634009" data-name="Trazado 634009" d="M151.756,99.221a3.5,3.5,0,0,0,2.142-1.365c3.288-4.25.834-16.918.728-17.455a.469.469,0,0,0-.549-.37h0a.469.469,0,0,0-.369.551c.025.128,2.479,12.786-.55,16.7a2.54,2.54,0,0,1-1.942,1.062c-4.994.3-9.941-13.461-11.426-18.787a.469.469,0,1,0-.9.252,79.45,79.45,0,0,0,3.552,9.774c2.966,6.606,5.937,9.869,8.834,9.7a3.851,3.851,0,0,0,.487-.06" transform="translate(635.181 1794.909)" fill="#f5efe0"/>
    <path id="Trazado_634010" data-name="Trazado 634010" d="M143.553,42.072l-1.733-7.2a2.868,2.868,0,0,1,.773-4.3,5.614,5.614,0,0,1,5.59-.327s.663-3.061,3-3.591,3.5,2.452,3.5,2.452,1.377-2.84,3.914-2.384,1.929,3.2,1.929,3.2,2.963-1.987,4.879-.295-.947,4.982-.947,4.982,2.716.734,2.319,2.716-3.332,2.353-3.332,2.353l-1.872,7.034Z" transform="translate(634.36 1813.786)" fill="#1f271d"/>
    <path id="Trazado_634011" data-name="Trazado 634011" d="M166.51,58.175s1.581-2.907,3.965-1.713.857,9.6-3.892,8.411Z" transform="translate(625.264 1803.175)" fill="#853922"/>
    <path id="Trazado_634012" data-name="Trazado 634012" d="M142.022,72.128s-.847.9,3.477,3.311a10.232,10.232,0,0,0,7.083.836,9.35,9.35,0,0,0,1.093-.394,13.051,13.051,0,0,1,1.57-6.337c.047-.076.074-.115.074-.115L144.7,60.493Z" transform="translate(634.073 1801.626)" fill="#a75436"/>
    <path id="Trazado_634013" data-name="Trazado 634013" d="M147.116,68.531s.967,8.682,7.318,10.628a9.35,9.35,0,0,0,1.093-.394,13.059,13.059,0,0,1,1.57-6.337Z" transform="translate(632.221 1798.742)" fill="#1f271d"/>
    <path id="Trazado_634014" data-name="Trazado 634014" d="M149.992,63.121c4.756,2.128,9.224.909,10.692-3.252.356-1,.757-2.481,1.138-4.03l.012-.047c.08-.329.16-.662.24-1,.058-.24.114-.482.169-.721.641-2.772,1.145-5.3,1.145-5.3.881-7.049-5.338-11.194-11.4-9.848s-5.908,10.211-6.841,14.3a8.384,8.384,0,0,0,4.849,9.891" transform="translate(633.019 1809.454)" fill="#a75436"/>
    <path id="Trazado_634015" data-name="Trazado 634015" d="M162.706,64.75a27.948,27.948,0,0,1-5.04-1.736s-1.03,3.311,1.867,3.836c2.325.421,3.172-2.1,3.172-2.1" transform="translate(628.5 1800.721)" fill="#f5efe0"/>
    <path id="Trazado_634016" data-name="Trazado 634016" d="M159.5,55.6c-.128.474-.457.8-.734.723s-.4-.52-.273-.994.457-.8.734-.723.4.52.273.994" transform="translate(628.159 1803.743)" fill="#1f271d"/>
    <path id="Trazado_634017" data-name="Trazado 634017" d="M168,57.724c-.128.475-.456.8-.734.723s-.4-.519-.273-.993.457-.8.734-.723.4.52.273.993" transform="translate(625.11 1802.979)" fill="#1f271d"/>
    <path id="Trazado_634018" data-name="Trazado 634018" d="M159.8,70.08a.239.239,0,0,1,.071.1.244.244,0,0,1-.146.313,1.972,1.972,0,0,1-2.037-.608.244.244,0,0,1,.352-.339,1.5,1.5,0,0,0,1.518.488.244.244,0,0,1,.242.044" transform="translate(628.452 1798.404)" fill="#853922"/>
    <path id="Trazado_634019" data-name="Trazado 634019" d="M157.269,52.055c-1.478-.085-1.467-1.688.007-2.123a3.843,3.843,0,0,1,2.037-.158c1.846.491,1.548,1.8.482,2.08a10.3,10.3,0,0,1-2.525.2" transform="translate(628.975 1805.5)" fill="#1f271d"/>
    <path id="Trazado_634020" data-name="Trazado 634020" d="M169.193,54.221c1.422.414,1.946-1.1.7-2a3.839,3.839,0,0,0-1.867-.828c-1.9-.155-2.062,1.184-1.148,1.8a10.3,10.3,0,0,0,2.313,1.033" transform="translate(625.325 1804.896)" fill="#1f271d"/>
    <path id="Trazado_634021" data-name="Trazado 634021" d="M169.18,64.262a5.569,5.569,0,0,0,.581.065l.012-.047c.08-.329.16-.662.24-.995.058-.241.114-.482.168-.721a5.787,5.787,0,0,0-.7-.158c-1.273-.208-2.372.038-2.456.55s.879,1.1,2.152,1.307" transform="translate(625.08 1800.967)" fill="#853922"/>
    <path id="Trazado_634022" data-name="Trazado 634022" d="M163.58,60.7a.23.23,0,0,0,.119-.012,3.977,3.977,0,0,0,1.672-.922.228.228,0,0,0,.032-.215l-1.031-2.841c0-.008-.007-.017-.011-.024a4.325,4.325,0,0,1,.087-2.356.229.229,0,1,0-.45-.088,4.6,4.6,0,0,0-.053,2.637l.975,2.686a5.5,5.5,0,0,1-1.385.7.229.229,0,0,0,.045.441" transform="translate(626.384 1803.934)" fill="#1f271d"/>
    <path id="Trazado_634023" data-name="Trazado 634023" d="M150.381,58.6c-.084.512.88,1.1,2.153,1.306s2.373-.038,2.457-.551-.88-1.1-2.153-1.306-2.373.038-2.457.551" transform="translate(631.052 1802.53)" fill="#853922"/>
    <path id="Trazado_634024" data-name="Trazado 634024" d="M147.094,45.245a2.453,2.453,0,0,0,.017.262s1.032.684,1.045,3.025l1.505.3a11.209,11.209,0,0,0,1.153-4.856,2.659,2.659,0,0,1,.139-.723c.945-2.682,6.307-4.023,9.477-2.591a6.688,6.688,0,0,1,3.783,5.108,11.6,11.6,0,0,1-.153,2.712,8.534,8.534,0,0,0-.39-7.206c-2.475-4.791-9.539-6.269-13.312-2.929a8.845,8.845,0,0,0-3.265,6.9" transform="translate(632.231 1810.219)" fill="#1f271d"/>
    <path id="Trazado_634025" data-name="Trazado 634025" d="M147.1,49a2.451,2.451,0,0,0,.017.262s1.032.684,1.045,3.025l1.505.3a11.209,11.209,0,0,0,1.153-4.856,2.659,2.659,0,0,1,.139-.723Z" transform="translate(632.228 1806.465)" fill="#853922"/>
    <path id="Trazado_634026" data-name="Trazado 634026" d="M157.256,42.54s2.747-.373,3.843.4,2.7,1.824,4.254,1.192,2.386,2.56,2.386,2.56-.46-5.436-4.864-5.4-4.292-.351-5.619,1.248" transform="translate(628.584 1808.52)" fill="#1f271d"/>
    <path id="Trazado_634027" data-name="Trazado 634027" d="M145.82,51.779a3.057,3.057,0,0,0-3.493-2.062c-2.606.57-3.194,9.1,1.7,9.11Z" transform="translate(634.649 1805.521)" fill="#a75436"/>
    <path id="Trazado_634028" data-name="Trazado 634028" d="M143.628,61.082a.589.589,0,1,0,.589-.589.589.589,0,0,0-.589.589" transform="translate(633.473 1801.626)" fill="#f5efe0"/>
    <path id="Trazado_634029" data-name="Trazado 634029" d="M144.417,56.992a.211.211,0,0,0,.049,0,.229.229,0,0,0,.217-.241c-.006-.108-.165-2.649-2.249-3.5a.229.229,0,0,0-.174.425c1.819.746,1.964,3.081,1.965,3.1a.23.23,0,0,0,.192.214" transform="translate(634.015 1804.231)" fill="#1f271d"/>
    <path id="Trazado_634030" data-name="Trazado 634030" d="M142.741,56.539a.225.225,0,0,0,.168-.038c.006,0,.539-.373,1.152-.723a.229.229,0,1,0-.227-.4c-.633.361-1.165.73-1.187.746a.229.229,0,0,0,.094.415" transform="translate(633.86 1803.472)" fill="#1f271d"/>
    <path id="Trazado_634031" data-name="Trazado 634031" d="M154.482,114.856a4.687,4.687,0,0,0-5.705-3.375c-1.74.448-3.356.941-4.949,1.456s-3.15,1.043-4.7,1.575q-1.853.636-3.678,1.278l-1.238.43q-2.125.742-4.233,1.453c-3.016,1.027-6.023,1.992-8.977,2.811-1.475.408-2.939.775-4.362,1.066a29.883,29.883,0,0,1-4.023.576c-.294.017-.576.026-.837.023l.006-.057.054-.5c.078-.668.181-1.347.306-2.034.252-1.374.576-2.778.964-4.189s.84-2.829,1.326-4.25,1.028-2.834,1.59-4.249c.282-.705.576-1.409.877-2.112s.6-1.4.918-2.1.63-1.391.956-2.077l.489-1.021.244-.5.224-.448.09-.18a5.806,5.806,0,0,0-10.276-5.4l-.348.626-.316.581c-.207.385-.408.768-.6,1.153-.392.768-.777,1.535-1.143,2.31s-.727,1.554-1.076,2.337-.683,1.576-1.01,2.371q-.989,2.386-1.83,4.857t-1.527,5.051a52.745,52.745,0,0,0-1.12,5.311q-.215,1.369-.347,2.786l-.058.712-.046.721-.03.728-.01.368,0,.183,0,.1v.142a11.425,11.425,0,0,0,.261,2.49,9.571,9.571,0,0,0,1.129,2.847,9.063,9.063,0,0,0,2.159,2.456,9.429,9.429,0,0,0,1.249.84,10.526,10.526,0,0,0,1.222.585,11.94,11.94,0,0,0,2.217.642,15.071,15.071,0,0,0,1.924.237,21.768,21.768,0,0,0,3.289-.072c1.013-.1,1.969-.238,2.889-.41s1.812-.369,2.682-.581c1.74-.428,3.406-.916,5.038-1.436,2.727-.872,5.357-1.84,7.946-2.836.327-.124.655-.251.98-.376l.528-.206c3.068-1.213,6.087-2.453,9.065-3.681,1.49-.61,2.971-1.214,4.432-1.793s2.914-1.134,4.289-1.593l.063-.021a4.687,4.687,0,0,0,3.038-5.606" transform="translate(649.096 1791.022)" fill="#a75436"/>
    <path id="Trazado_634032" data-name="Trazado 634032" d="M168.32,120.229c-.469-3.111-1.243-6.66-2.068-10.025-1.631-6.645-3.467-12.563-3.581-12.932a5.808,5.808,0,0,0-8.726-3.131c.042.956.142,2.089.324,3.431a77.242,77.242,0,0,1,.121,13.1q.221.856.442,1.735c.551,2.212,1.079,4.509,1.5,6.667-.784.019-1.831,0-3.212-.09-3.127-.207-6.865-.711-10.82-1.244-8.147-1.1-16.571-2.23-22.8-1.245a5.808,5.808,0,1,0,1.815,11.473c4.553-.721,12.46.344,19.437,1.284a120.81,120.81,0,0,0,14.887,1.447c4.558,0,8.079-.817,10.435-3.21a8.323,8.323,0,0,0,2.25-7.258" transform="translate(643.889 1789.895)" fill="#a75436"/>
    <path id="Trazado_634033" data-name="Trazado 634033" d="M115.179,110.762a77.221,77.221,0,0,1,2.791-8.427c.983-2.456,2.371-4.719,3.538-7.087a.194.194,0,0,1,.119-.108,34.343,34.343,0,0,0,1.538-4.484,9.056,9.056,0,0,0-5.115-3.867s-5.838-.694-9.153,3.67c-.335.441-.68.944-1.031,1.495-.087.135-.174.274-.26.414a104.571,104.571,0,0,0-5.873,11.8c-.071.165-.135.317-.194.452-.207.486-.323.766-.323.766s8,4.914,14.263,6.231Z" transform="translate(648.688 1792.206)" fill="#3d4c83"/>
    <path id="Trazado_634034" data-name="Trazado 634034" d="M101.72,107.529a4.574,4.574,0,0,0,.753.062,4.518,4.518,0,0,0,.742-.06,3.369,3.369,0,0,0,3.024-3.457c-.039-1.968,1.579-2.471,3.144-2.956,1.372-.427,2.793-.868,2.782-2.353-.013-1.976-2.41-3.245-4.118-3.9-.087.136-.174.274-.26.414,1.6.6,3.892,1.765,3.9,3.486.008,1.132-1.129,1.486-2.447,1.9-1.652.512-3.525,1.094-3.479,3.42a2.9,2.9,0,0,1-2.625,2.977,4.139,4.139,0,0,1-1.224.017c-.071.165-.135.317-.194.452" transform="translate(648.507 1789.294)" fill="#1f294a"/>
    <path id="Trazado_634035" data-name="Trazado 634035" d="M123.72,113.924a.238.238,0,0,0,.221-.15l4.754-12.007a.238.238,0,1,0-.442-.175L123.5,113.6a.238.238,0,0,0,.134.309.229.229,0,0,0,.087.017" transform="translate(640.7 1786.935)" fill="#1f294a"/>
    <path id="Trazado_634036" data-name="Trazado 634036" d="M129.108,106.115a.236.236,0,0,0,.133-.041l2.43-1.644a.238.238,0,1,0-.267-.394l-2.429,1.644a.238.238,0,0,0,.133.435" transform="translate(638.767 1786.019)" fill="#1f294a"/>
    <path id="Trazado_634037" data-name="Trazado 634037" d="M118.485,120.536l-.715,3.1s-2.165-.661-4.032-1.238c-.753,1.545-1.72,3.024-2.454,4.461-.816,1.6-1.605,3.207-2.394,4.817a49.223,49.223,0,0,0,8.851,3.388c2.916.48,4.254-7.612,4.254-7.612s-1.313-5.9-3.51-6.911" transform="translate(645.935 1780.085)" fill="#a75436"/>
    <path id="Trazado_634038" data-name="Trazado 634038" d="M120.829,125.231c-.185-.056-.274-.069-.463-.127-.861,3.784-1.861,8.118-2.72,11.689a.283.283,0,0,0,.543.159c0-.008.006-.017.008-.026.862-3.582,1.852-7.874,2.714-11.667a.362.362,0,0,0-.082-.028" transform="translate(642.797 1778.446)" fill="#853922"/>
    <path id="Trazado_634039" data-name="Trazado 634039" d="M175.943,91.885c.043.956.143,2.089.324,3.431a48.05,48.05,0,0,1,.344,6.005c0,.172,0,.343,0,.513,0,2.58-.127,5.027-.224,6.58-.067,1.05-.121,1.692-.121,1.692.186.017.374.033.564.042s.4.019.607.023c.16,0,.323,0,.487,0a20.383,20.383,0,0,0,2.33-.178c.158-.02.315-.042.473-.066.518-.076,1.038-.169,1.553-.275.156-.032.314-.064.469-.1.768-.167,1.522-.359,2.245-.561l.459-.132c1-.292,1.93-.6,2.747-.893l.05-.018.445-.162c1.669-.614,2.748-1.106,2.748-1.106s-1.946-5.817-4.171-10.784c-.069-.153-.138-.307-.207-.458a18.2,18.2,0,0,0-2.146-3.429c-2.03-3.031-5.2-4.925-6.9-5.072-.19-.017-.366-.026-.522-.031a6.164,6.164,0,0,0-.885.029s-.864.539-.671,4.95" transform="translate(621.889 1792.151)" fill="#3d4c83"/>
    <path id="Trazado_634040" data-name="Trazado 634040" d="M178.594,115.7a.238.238,0,0,0,.132-.233L177.674,102.6a.238.238,0,0,0-.474.038l1.051,12.871a.238.238,0,0,0,.256.218.241.241,0,0,0,.086-.024" transform="translate(621.429 1786.599)" fill="#1f294a"/>
    <path id="Trazado_634041" data-name="Trazado 634041" d="M182.667,120.425c.158-.019.316-.042.473-.066a5.8,5.8,0,0,1,.226-2.2,2.11,2.11,0,0,1,1.8-1.7,1.408,1.408,0,0,1,1.063.414,5.128,5.128,0,0,1,1.175,2.551l.459-.132a5.565,5.565,0,0,0-1.308-2.766,1.891,1.891,0,0,0-1.409-.542,2.523,2.523,0,0,0-2.237,2.033,6.22,6.22,0,0,0-.246,2.409" transform="translate(619.477 1781.719)" fill="#1f294a"/>
    <path id="Trazado_634042" data-name="Trazado 634042" d="M189.982,104.442a3.675,3.675,0,0,0,1.911,3.04c.735.491,1.18.787.717,2.1a3.007,3.007,0,0,0,.629,3.164l.05-.018.445-.162c-.028-.024-.055-.05-.082-.078a2.518,2.518,0,0,1-.593-2.748,1.863,1.863,0,0,0-.9-2.651,3.229,3.229,0,0,1-1.7-2.7,4.23,4.23,0,0,1,1.856-3.717c-.069-.153-.138-.307-.207-.458a4.713,4.713,0,0,0-2.121,4.228" transform="translate(616.852 1787.376)" fill="#1f294a"/>
    <path id="Trazado_634043" data-name="Trazado 634043" d="M139.365,146.833q-.489.189-.98.377c-8.824-1.789-20.371-3.4-20.5-3.422a.283.283,0,1,1,.08-.561c.136.02,12.467,1.742,21.4,3.606" transform="translate(642.797 1771.946)" fill="#853922"/>
    <path id="Trazado_634044" data-name="Trazado 634044" d="M117.323,142.358a.287.287,0,0,0,.135.018.284.284,0,0,0,.251-.313,9.036,9.036,0,0,0-.793-2.428.283.283,0,1,0-.509.249,8.645,8.645,0,0,1,.738,2.241.282.282,0,0,0,.178.233" transform="translate(643.249 1773.29)" fill="#853922"/>
    <path id="Trazado_634045" data-name="Trazado 634045" d="M172.538,132.378a.283.283,0,0,1-.282.257h-.027c-6.316-.608-14.987-1.571-18.916-2.013.412-.143.824-.288,1.238-.431,4.3.482,11.992,1.327,17.732,1.88a.284.284,0,0,1,.255.309" transform="translate(629.998 1776.622)" fill="#853922"/>
    <path id="Trazado_634046" data-name="Trazado 634046" d="M178.981,131.711a.277.277,0,0,1-.131-.033.283.283,0,0,1-.119-.383,9.023,9.023,0,0,1,1.627-1.969.283.283,0,0,1,.382.419,8.618,8.618,0,0,0-1.508,1.813.283.283,0,0,1-.251.151" transform="translate(620.891 1776.958)" fill="#853922"/>
    <path id="Trazado_634047" data-name="Trazado 634047" d="M402.412,260.012H303.524a.178.178,0,0,1-.178-.178v-.441a4.961,4.961,0,0,1,4.961-4.96h89.323a4.959,4.959,0,0,1,4.959,4.96v.441a.177.177,0,0,1-.177.178" transform="translate(576.173 1732.049)" fill="#1f271d"/>
    <path id="Trazado_634048" data-name="Trazado 634048" d="M395.363,242.029v6.6H328.929v-6.6a4.056,4.056,0,0,1,4.057-4.057h58.319a4.056,4.056,0,0,1,4.057,4.057" transform="translate(566.995 1737.954)" fill="#c47b38"/>
    <rect id="Rectángulo_341255" data-name="Rectángulo 341255" width="66.434" height="2.541" transform="translate(895.924 1984.044)" fill="#9e5022"/>
    <rect id="Rectángulo_341256" data-name="Rectángulo 341256" width="3.394" height="112.697" transform="translate(927.444 1859.17)" fill="#1f271d"/>
    <rect id="Rectángulo_341257" data-name="Rectángulo 341257" width="8.506" height="40.123" transform="translate(924.888 1935.804)" fill="#1f271d"/>
    <rect id="Rectángulo_341258" data-name="Rectángulo 341258" width="8.506" height="1.093" transform="translate(924.888 1967.169)" fill="#514933"/>
    <rect id="Rectángulo_341259" data-name="Rectángulo 341259" width="8.506" height="1.093" transform="translate(924.888 1960.35)" fill="#514933"/>
    <rect id="Rectángulo_341260" data-name="Rectángulo 341260" width="8.506" height="1.093" transform="translate(924.888 1953.53)" fill="#514933"/>
    <path id="Trazado_634049" data-name="Trazado 634049" d="M383.353,167.686a5.859,5.859,0,1,1-5.859-5.859,5.859,5.859,0,0,1,5.859,5.859" transform="translate(551.674 1765.272)" fill="#c47b38"/>
    <path id="Trazado_634050" data-name="Trazado 634050" d="M321.151,61.1c-10.919,3.649-29.191,5.808-43.926,6.8v2.919H343.6V56.169s-5.567-.707-22.445,4.933" transform="translate(585.544 1803.187)" fill="#1f271d"/>
    <path id="Trazado_634051" data-name="Trazado 634051" d="M447.59,67.936c-14.818-.978-33.374-3.145-44.414-6.834-16.878-5.64-22.445-4.933-22.445-4.933V70.823h66.86Z" transform="translate(548.411 1803.187)" fill="#1f271d"/>
    <path id="Trazado_634052" data-name="Trazado 634052" d="M372.547,48.533s-.107-6.63,5.247-15.657V71.247s-2.732-.444-4.374-8.77Z" transform="translate(551.347 1811.534)" fill="#1f271d"/>
    <path id="Trazado_634053" data-name="Trazado 634053" d="M385.976,48.533s.106-6.63-5.247-15.657V71.247s2.732-.444,4.375-8.77Z" transform="translate(548.411 1811.534)" fill="#1f271d"/>
    <path id="Trazado_634054" data-name="Trazado 634054" d="M373.1,70.939a.188.188,0,0,1-.182-.143,43.386,43.386,0,0,1-.786-13.63.187.187,0,1,1,.372.046,43,43,0,0,0,.778,13.495.186.186,0,0,1-.137.226.183.183,0,0,1-.045.006" transform="translate(551.573 1802.879)" fill="#514933"/>
    <path id="Trazado_634055" data-name="Trazado 634055" d="M387.656,70.939a.175.175,0,0,1-.044-.006.186.186,0,0,1-.138-.226,42.942,42.942,0,0,0,.778-13.495.188.188,0,0,1,.373-.046,43.386,43.386,0,0,1-.786,13.63.188.188,0,0,1-.182.143" transform="translate(545.994 1802.879)" fill="#514933"/>
    <path id="Trazado_634056" data-name="Trazado 634056" d="M383.353,31.839a5.859,5.859,0,1,1-5.859-5.859,5.859,5.859,0,0,1,5.859,5.859" transform="translate(551.674 1814.008)" fill="#c47b38"/>
    <path id="Trazado_634057" data-name="Trazado 634057" d="M378.858,36.624a3.42,3.42,0,1,1,3.42-3.42,3.424,3.424,0,0,1-3.42,3.42" transform="translate(550.31 1812.643)" fill="#9e5022"/>
    <path id="Trazado_634058" data-name="Trazado 634058" d="M220.941,169.52s15.412-5.012,39.768-5.012,37.686,5.012,37.686,5.012a124.156,124.156,0,0,1-37.7,6.185c-20.528,0-39.75-6.185-39.75-6.185" transform="translate(605.736 1764.31)" fill="#1f294a"/>
    <path id="Trazado_634059" data-name="Trazado 634059" d="M231.365,138.854a.823.823,0,0,1-.376-.09.835.835,0,0,1-.369-1.122l31.508-62.3a.835.835,0,0,1,1.49.753l-31.508,62.3a.834.834,0,0,1-.746.458" transform="translate(602.296 1796.464)" fill="#1f271d"/>
    <path id="Trazado_634060" data-name="Trazado 634060" d="M312.559,138.984a.834.834,0,0,1-.743-.454L279.758,76.1a.835.835,0,1,1,1.485-.762L313.3,137.768a.835.835,0,0,1-.742,1.216" transform="translate(584.668 1796.464)" fill="#1f271d"/>
    <path id="Trazado_634061" data-name="Trazado 634061" d="M220.941,172.324c27.329,5.506,53.349,6.243,77.454,0,0,0-5.374,26.707-38.727,26.707s-38.727-26.707-38.727-26.707" transform="translate(605.736 1761.506)" fill="#3d4c83"/>
    <path id="Trazado_634062" data-name="Trazado 634062" d="M283.866,73.559a4.692,4.692,0,1,1-4.692-4.692,4.692,4.692,0,0,1,4.692,4.692" transform="translate(586.528 1798.622)" fill="#1f271d"/>
    <path id="Trazado_634063" data-name="Trazado 634063" d="M280.092,77.528a3.051,3.051,0,1,1,3.051-3.051,3.054,3.054,0,0,1-3.051,3.051" transform="translate(585.61 1797.704)" fill="#514933"/>
    <path id="Trazado_634064" data-name="Trazado 634064" d="M420.475,169.52s15.412-5.012,39.769-5.012,37.686,5.012,37.686,5.012a124.158,124.158,0,0,1-37.7,6.185c-20.528,0-39.75-6.185-39.75-6.185" transform="translate(534.152 1764.31)" fill="#1f294a"/>
    <path id="Trazado_634065" data-name="Trazado 634065" d="M430.9,138.854a.823.823,0,0,1-.376-.09.835.835,0,0,1-.369-1.122l31.508-62.3a.835.835,0,0,1,1.49.753l-31.508,62.3a.834.834,0,0,1-.746.458" transform="translate(530.711 1796.464)" fill="#1f271d"/>
    <path id="Trazado_634066" data-name="Trazado 634066" d="M512.093,138.984a.833.833,0,0,1-.743-.454L479.292,76.1a.835.835,0,1,1,1.485-.762l32.058,62.433a.835.835,0,0,1-.742,1.216" transform="translate(513.084 1796.464)" fill="#1f271d"/>
    <path id="Trazado_634067" data-name="Trazado 634067" d="M420.475,172.324c27.329,5.506,53.35,6.243,77.455,0,0,0-5.374,26.707-38.727,26.707s-38.727-26.707-38.727-26.707" transform="translate(534.152 1761.506)" fill="#3d4c83"/>
    <path id="Trazado_634068" data-name="Trazado 634068" d="M482.734,73.559a4.692,4.692,0,1,1-4.692-4.692,4.692,4.692,0,0,1,4.692,4.692" transform="translate(515.183 1798.622)" fill="#1f271d"/>
    <path id="Trazado_634069" data-name="Trazado 634069" d="M478.96,77.528a3.051,3.051,0,1,1,3.051-3.051,3.054,3.054,0,0,1-3.051,3.051" transform="translate(514.265 1797.704)" fill="#514933"/>
    <path id="Trazado_634070" data-name="Trazado 634070" d="M70.3,329.036s-6.4,1.417-5.445-3.045.88-6.108-1.719-8.136-5.215-3.03-3.224-6.241-1.787-5.708-3.738-7.437.251-3.032.768-6.3-3-2.777-3.274-6.893,3.905-8.926.31-14.592c0,0,4.829,2.5,6.414,6.9s.306,7.8,3.158,9.468,4.638,4.564,3.669,7.532.408,4.541,2.746,6.706,1.716,3.025,1.425,5.671.293,2.021,2.97,5.637,2.745,9.541-4.06,10.727" transform="translate(665.75 1724.171)" fill="#40401e"/>
    <path id="Trazado_634071" data-name="Trazado 634071" d="M73.849,336.176a.322.322,0,0,1-.033-.069l-12.8-38.845a.318.318,0,0,1,.2-.4l.006,0a.319.319,0,0,1,.4.2l12.8,38.843a.324.324,0,0,1,.016.095Z" transform="translate(663.115 1716.833)" fill="#1f271d"/>
    <path id="Trazado_634072" data-name="Trazado 634072" d="M94.415,329.067s6.362,1.409,5.417-3.029-.876-6.076,1.71-8.093,5.188-3.015,3.208-6.209,1.777-5.678,3.719-7.4-.251-3.016-.764-6.267,2.982-2.762,3.257-6.856-3.885-8.879-.308-14.514c0,0-4.8,2.491-6.381,6.866s-.3,7.755-3.141,9.418-4.614,4.54-3.65,7.492-.405,4.518-2.732,6.67-1.706,3.009-1.417,5.642-.292,2.01-2.954,5.606-2.731,9.49,4.039,10.67" transform="translate(653.18 1724.06)" fill="#40401e"/>
    <path id="Trazado_634073" data-name="Trazado 634073" d="M95.287,336a.3.3,0,0,1,.016-.094l12.729-38.638a.318.318,0,0,1,.4-.2l.006,0a.316.316,0,0,1,.2.4L95.9,336.1a.27.27,0,0,1-.032.069Z" transform="translate(650.815 1716.761)" fill="#1f271d"/>
    <path id="Trazado_634074" data-name="Trazado 634074" d="M82.506,322.524s-7.321-.606-4.821-5.07,2.972-6.25.861-9.285-4.58-4.977-1.381-7.756-.017-6.707-1.534-9.207,1.276-3.164,2.915-6.493-2.289-3.97-1.218-8.47,7.147-8.264,5.178-15.526c0,0,4.34,4.286,4.578,9.524s-2.261,8.452.239,11.19,3.452,6.428,1.429,9.286-1.072,5,.714,8.094.833,3.81-.357,6.548-.357,2.262,1.309,7.024-.228,11.131-7.912,10.141" transform="translate(658.024 1729.794)" fill="#66652b"/>
    <path id="Trazado_634075" data-name="Trazado 634075" d="M87.763,331.339a.338.338,0,0,1-.012-.085L86.944,285.4a.357.357,0,0,1,.349-.363H87.3a.358.358,0,0,1,.357.351l.807,45.854a.354.354,0,0,1-.014.107Z" transform="translate(653.808 1721.07)" fill="#40401e"/>
    <path id="Trazado_634076" data-name="Trazado 634076" d="M60.655,352.129l.659,2.441.127.469.594,2.206.127.469,5.908,21.9.127.47.6,2.206.126.469.674,2.5H86.5l.673-2.5.126-.469.6-2.206.127-.47,5.908-21.9.127-.469.594-2.206.126-.469.659-2.441Z" transform="translate(663.24 1697)" fill="#1f271d"/>
    <path id="Trazado_634077" data-name="Trazado 634077" d="M95.146,355.936l-.126.469H61.809l-.127-.469Z" transform="translate(662.871 1695.634)" fill="#514933"/>
    <path id="Trazado_634078" data-name="Trazado 634078" d="M94.829,360.109l-.127.47H62.933l-.127-.47Z" transform="translate(662.468 1694.137)" fill="#514933"/>
    <path id="Trazado_634079" data-name="Trazado 634079" d="M92.17,395l-.127.469h-19.7L72.218,395Z" transform="translate(659.092 1681.621)" fill="#514933"/>
    <path id="Trazado_634080" data-name="Trazado 634080" d="M91.852,399.17l-.126.469H73.469l-.126-.469Z" transform="translate(658.688 1680.124)" fill="#514933"/>
    <path id="Trazado_634081" data-name="Trazado 634081" d="M245.038,356.747v30.274H376.78a15.137,15.137,0,0,0,0-30.274Z" transform="translate(597.091 1695.343)" fill="#a64b31"/>
    <path id="Trazado_634082" data-name="Trazado 634082" d="M245.038,356.747v30.274H362.859a15.137,15.137,0,0,0,0-30.274Z" transform="translate(597.091 1695.343)" fill="#783013"/>
    <path id="Trazado_634083" data-name="Trazado 634083" d="M245.378,384.938H363.883a9.585,9.585,0,0,0,9.585-9.585v-1.643a9.586,9.586,0,0,0-9.585-9.585H245.378a.338.338,0,0,0-.338.338V384.6a.338.338,0,0,0,.338.338" transform="translate(597.091 1692.697)" fill="#f5efe0"/>
    <path id="Trazado_634084" data-name="Trazado 634084" d="M363.231,371.822l-118.19-.145,0-1.552,118.19.146a.776.776,0,1,1,0,1.551" transform="translate(597.09 1690.544)" fill="#d9cab8"/>
    <path id="Trazado_634085" data-name="Trazado 634085" d="M363.231,379.937l-118.19-.145,0-1.552,118.19.146a.776.776,0,0,1,0,1.551" transform="translate(597.09 1687.632)" fill="#d9cab8"/>
    <path id="Trazado_634086" data-name="Trazado 634086" d="M363.231,388.42l-118.19-.145,0-1.552,118.19.146a.776.776,0,1,1,0,1.551" transform="translate(597.09 1684.589)" fill="#d9cab8"/>
    <path id="Trazado_634087" data-name="Trazado 634087" d="M270.034,309.923V340.2H401.776a15.137,15.137,0,0,0,0-30.273Z" transform="translate(588.124 1712.141)" fill="#7a5f2e"/>
    <path id="Trazado_634088" data-name="Trazado 634088" d="M270.034,309.923V340.2H387.855a15.137,15.137,0,0,0,0-30.273Z" transform="translate(588.124 1712.141)" fill="#533d15"/>
    <path id="Trazado_634089" data-name="Trazado 634089" d="M270.036,338.113H388.879a9.586,9.586,0,0,0,9.585-9.585v-1.643a9.586,9.586,0,0,0-9.585-9.585H270.036Z" transform="translate(588.123 1709.495)" fill="#f5efe0"/>
    <path id="Trazado_634090" data-name="Trazado 634090" d="M388.227,333.112l-118.19-.145,0-1.552,118.19.146a.776.776,0,0,1,0,1.551" transform="translate(588.123 1704.431)" fill="#d9cab8"/>
    <path id="Trazado_634091" data-name="Trazado 634091" d="M388.227,341.6l-118.19-.145,0-1.552,118.19.146a.776.776,0,0,1,0,1.551" transform="translate(588.123 1701.387)" fill="#d9cab8"/>
    <path id="Trazado_634092" data-name="Trazado 634092" d="M388.227,325l-118.19-.145,0-1.552,118.19.146a.776.776,0,1,1,0,1.551" transform="translate(588.123 1707.342)" fill="#d9cab8"/>
    <path id="Trazado_634093" data-name="Trazado 634093" d="M254.283,263.123V293.4H386.025a15.137,15.137,0,0,0,0-30.274Z" transform="translate(593.775 1728.931)" fill="#3d4c83"/>
    <path id="Trazado_634094" data-name="Trazado 634094" d="M254.283,263.123V293.4H372.1a15.137,15.137,0,0,0,0-30.274Z" transform="translate(593.775 1728.931)" fill="#1f294a"/>
    <path id="Trazado_634095" data-name="Trazado 634095" d="M254.285,291.314H373.128a9.586,9.586,0,0,0,9.585-9.585v-1.643a9.586,9.586,0,0,0-9.585-9.585H254.285Z" transform="translate(593.774 1726.285)" fill="#f5efe0"/>
    <path id="Trazado_634096" data-name="Trazado 634096" d="M372.476,278.2l-118.19-.145,0-1.552,118.19.145a.776.776,0,0,1,0,1.552" transform="translate(593.773 1724.131)" fill="#d9cab8"/>
    <path id="Trazado_634097" data-name="Trazado 634097" d="M372.476,286.313l-118.19-.145,0-1.552,118.19.146a.776.776,0,1,1,0,1.551" transform="translate(593.773 1721.221)" fill="#d9cab8"/>
    <path id="Trazado_634098" data-name="Trazado 634098" d="M372.476,294.8l-118.19-.145,0-1.552,118.19.146a.776.776,0,1,1,0,1.551" transform="translate(593.773 1718.177)" fill="#d9cab8"/>
    <path id="Trazado_634099" data-name="Trazado 634099" d="M292.513,276.565v14.849l-4.655-4.656-4.815,4.815V276.5Z" transform="translate(583.457 1724.131)" fill="#a64b31"/>
    <path id="Trazado_634100" data-name="Trazado 634100" d="M525.879,342.5c-57.114-31.179-45.167-79.843-45.167-79.843,31.18-.583,45.167-30.014,45.167-30.014s13.987,29.431,45.167,30.014c0,0,11.947,48.663-45.167,79.843" transform="translate(512.915 1739.867)" fill="#9c5022"/>
    <path id="Trazado_634101" data-name="Trazado 634101" d="M528.82,342.073c-11.1-6.4-20.1-13.978-26.782-22.54a66.635,66.635,0,0,1-12.008-23.869,62.634,62.634,0,0,1-1.85-22.442c12.44-1.273,23.934-6.923,33.467-16.5a69.016,69.016,0,0,0,7.173-8.5,69.029,69.029,0,0,0,7.173,8.5c9.533,9.58,21.027,15.23,33.467,16.5a62.634,62.634,0,0,1-1.85,22.442A66.636,66.636,0,0,1,555.6,319.533c-6.68,8.561-15.682,16.135-26.782,22.54" transform="translate(509.974 1734.277)" fill="#c27b38"/>
    <path id="Trazado_634102" data-name="Trazado 634102" d="M562.748,310.064a25.011,25.011,0,1,1-25.01-25.01,25.011,25.011,0,0,1,25.01,25.01" transform="translate(501.056 1721.063)" fill="#9c5022"/>
    <path id="Trazado_634103" data-name="Trazado 634103" d="M539.764,333.478a21.387,21.387,0,1,1,15.124-6.264,21.247,21.247,0,0,1-15.124,6.264" transform="translate(499.03 1719.037)" fill="#c27b38"/>
    <path id="Trazado_634104" data-name="Trazado 634104" d="M544.761,302.929c6.847,0,11.5,4.1,12.558,10.215h-8.567a4.412,4.412,0,0,0-4.137-2.709c-2.746,0-4.43,2.233-4.43,5.675s1.684,5.675,4.43,5.675a4.413,4.413,0,0,0,4.137-2.709h8.567c-1.062,6.114-5.712,10.215-12.558,10.215-7.945,0-12.815-5.456-12.815-13.181s4.87-13.181,12.815-13.181" transform="translate(494.161 1714.651)" fill="#9c5022"/>
    <path id="Trazado_634105" data-name="Trazado 634105" d="M495.334,293.173a1.457,1.457,0,1,1-1.457-1.457,1.457,1.457,0,0,1,1.457,1.457" transform="translate(508.342 1718.673)" fill="#9c5022"/>
    <path id="Trazado_634106" data-name="Trazado 634106" d="M609.848,293.173a1.457,1.457,0,1,1-1.457-1.457,1.457,1.457,0,0,1,1.457,1.457" transform="translate(467.259 1718.673)" fill="#9c5022"/>
    <path id="Trazado_634107" data-name="Trazado 634107" d="M552.364,258.864a1.457,1.457,0,1,1-1.457-1.457,1.457,1.457,0,0,1,1.457,1.457" transform="translate(487.882 1730.982)" fill="#9c5022"/>
    <path id="Trazado_634108" data-name="Trazado 634108" d="M552.364,387.693a1.457,1.457,0,1,1-1.457-1.457,1.457,1.457,0,0,1,1.457,1.457" transform="translate(487.882 1684.764)" fill="#9c5022"/>
    <path id="Trazado_634109" data-name="Trazado 634109" d="M92.222,31.835l-50.009-.072a1.347,1.347,0,0,1-1.345-1.349l.021-14.159a1.347,1.347,0,0,1,1.349-1.345l50.009.072a1.346,1.346,0,0,1,1.345,1.349l-.02,14.159a1.347,1.347,0,0,1-1.349,1.345" transform="translate(670.338 1817.979)" fill="#dbccba"/>
    <path id="Trazado_634110" data-name="Trazado 634110" d="M101.048,24.325l-28.541-.041a.682.682,0,0,1-.681-.683v-.117a.682.682,0,0,1,.683-.681l28.541.041a.682.682,0,0,1,.681.683v.117a.682.682,0,0,1-.683.681" transform="translate(659.232 1815.147)" fill="#f5efe0"/>
    <path id="Trazado_634111" data-name="Trazado 634111" d="M101.04,29.4,72.5,29.363a.682.682,0,0,1-.68-.683v-.117a.682.682,0,0,1,.683-.681l28.541.041a.682.682,0,0,1,.681.683v.117a.682.682,0,0,1-.683.681" transform="translate(659.235 1813.325)" fill="#f5efe0"/>
    <path id="Trazado_634112" data-name="Trazado 634112" d="M101.034,34.022l-28.541-.041a.682.682,0,0,1-.681-.683v-.117a.682.682,0,0,1,.683-.681l28.541.041a.682.682,0,0,1,.681.683v.117a.682.682,0,0,1-.683.681" transform="translate(659.237 1811.669)" fill="#f5efe0"/>
    <path id="Trazado_634113" data-name="Trazado 634113" d="M51.879,30.326h0a6.083,6.083,0,1,1,6.091-6.073,6.082,6.082,0,0,1-6.091,6.073" transform="translate(668.567 1816.813)" fill="#c47b38"/>
    <path id="Trazado_634114" data-name="Trazado 634114" d="M54.5,28.1l-.009.923-1.172-.011.008-.882a4.89,4.89,0,0,1-2.131-.6l.646-1.424a3.994,3.994,0,0,0,1.915.551c.557.005.757-.11.759-.309.007-.732-3.216-.172-3.2-2.342.009-.939.7-1.723,2.064-1.9l.009-.906,1.172.012-.008.889a4.346,4.346,0,0,1,1.683.5l-.6,1.416a3.59,3.59,0,0,0-1.617-.448c-.574-.006-.758.159-.76.358-.007.7,3.216.147,3.2,2.292-.008.9-.664,1.673-1.955,1.885" transform="translate(666.633 1815.725)" fill="#f5efe0"/>
    <path id="Trazado_634115" data-name="Trazado 634115" d="M92.175,64.13l-50.009-.072a1.346,1.346,0,0,1-1.345-1.349l.021-14.159a1.347,1.347,0,0,1,1.349-1.345l50.009.072a1.346,1.346,0,0,1,1.345,1.349l-.02,14.158a1.346,1.346,0,0,1-1.349,1.345" transform="translate(670.355 1806.393)" fill="#dbccba"/>
    <path id="Trazado_634116" data-name="Trazado 634116" d="M101,56.62l-28.541-.041a.682.682,0,0,1-.68-.683v-.117a.682.682,0,0,1,.683-.681L101,55.139a.682.682,0,0,1,.681.683v.117a.682.682,0,0,1-.683.681" transform="translate(659.249 1803.561)" fill="#f5efe0"/>
    <path id="Trazado_634117" data-name="Trazado 634117" d="M100.994,61.7l-28.541-.041a.682.682,0,0,1-.68-.683v-.117a.682.682,0,0,1,.683-.681L101,60.218a.682.682,0,0,1,.681.683v.117a.682.682,0,0,1-.683.681" transform="translate(659.251 1801.739)" fill="#f5efe0"/>
    <path id="Trazado_634118" data-name="Trazado 634118" d="M100.987,66.317l-28.541-.041a.682.682,0,0,1-.68-.683v-.117a.682.682,0,0,1,.683-.681l28.541.041a.682.682,0,0,1,.681.683v.117a.682.682,0,0,1-.683.681" transform="translate(659.254 1800.083)" fill="#f5efe0"/>
    <path id="Trazado_634119" data-name="Trazado 634119" d="M51.832,62.621h0a6.083,6.083,0,1,1,6.091-6.074,6.083,6.083,0,0,1-6.091,6.074" transform="translate(668.584 1805.227)" fill="#66652b"/>
    <path id="Trazado_634120" data-name="Trazado 634120" d="M51.135,61.491l-1.914-2.653,1.148-.828.92,1.275,4.634-4.828,1.022.98Z" transform="translate(667.342 1803.791)" fill="#f5efe0"/>
    <rect id="Rectángulo_341261" data-name="Rectángulo 341261" width="23.4" height="29.238" transform="translate(698.391 1886.25)" fill="#dbccba"/>
    <path id="Trazado_634121" data-name="Trazado 634121" d="M42.344,104.724H26.39a.475.475,0,0,1,0-.951H42.344a.475.475,0,0,1,0,.951" transform="translate(675.703 1786.099)" fill="#f5efe0"/>
    <path id="Trazado_634122" data-name="Trazado 634122" d="M42.344,109.3H26.39a.475.475,0,0,1,0-.951H42.344a.475.475,0,0,1,0,.951" transform="translate(675.703 1784.456)" fill="#f5efe0"/>
    <path id="Trazado_634123" data-name="Trazado 634123" d="M42.344,113.885H26.39a.475.475,0,0,1,0-.951H42.344a.475.475,0,0,1,0,.951" transform="translate(675.703 1782.812)" fill="#f5efe0"/>
    <path id="Trazado_634124" data-name="Trazado 634124" d="M42.344,118.465H26.39a.475.475,0,0,1,0-.951H42.344a.475.475,0,0,1,0,.951" transform="translate(675.703 1781.169)" fill="#f5efe0"/>
    <path id="Trazado_634125" data-name="Trazado 634125" d="M42.344,123.046H26.39a.475.475,0,0,1,0-.951H42.344a.475.475,0,0,1,0,.951" transform="translate(675.703 1779.526)" fill="#f5efe0"/>
    <path id="Trazado_634126" data-name="Trazado 634126" d="M42.344,127.626H26.39a.475.475,0,0,1,0-.951H42.344a.475.475,0,0,1,0,.951" transform="translate(675.703 1777.883)" fill="#f5efe0"/>
    <path id="Trazado_634127" data-name="Trazado 634127" d="M32.2,136.111H26.39a.475.475,0,0,1,0-.951H32.2a.475.475,0,1,1,0,.951" transform="translate(675.703 1774.839)" fill="#f5efe0"/>
    <path id="Trazado_634128" data-name="Trazado 634128" d="M48.018,136.111H42.207a.475.475,0,0,1,0-.951h5.811a.475.475,0,0,1,0,.951" transform="translate(670.028 1774.839)" fill="#f5efe0"/>
    <g id="Grupo_946736" data-name="Grupo 946736" transform="translate(698.391 1886.25)" clip-path="url(#clip-path-2)">
      <rect id="Rectángulo_341262" data-name="Rectángulo 341262" width="11.901" height="22.507" transform="translate(0 0)" fill="#b6a593"/>
    </g>
    <rect id="Rectángulo_341264" data-name="Rectángulo 341264" width="23.4" height="29.238" transform="translate(685 1877.121)" fill="#dbccba"/>
    <path id="Trazado_634129" data-name="Trazado 634129" d="M21.462,90.487H5.508a.475.475,0,0,1,0-.951H21.462a.475.475,0,0,1,0,.951" transform="translate(683.194 1791.207)" fill="#f5efe0"/>
    <path id="Trazado_634130" data-name="Trazado 634130" d="M21.462,95.067H5.508a.475.475,0,0,1,0-.951H21.462a.475.475,0,0,1,0,.951" transform="translate(683.194 1789.563)" fill="#f5efe0"/>
    <path id="Trazado_634131" data-name="Trazado 634131" d="M21.462,99.647H5.508a.475.475,0,0,1,0-.951H21.462a.475.475,0,0,1,0,.951" transform="translate(683.194 1787.92)" fill="#f5efe0"/>
    <path id="Trazado_634132" data-name="Trazado 634132" d="M21.462,104.228H5.508a.475.475,0,0,1,0-.951H21.462a.475.475,0,0,1,0,.951" transform="translate(683.194 1786.277)" fill="#f5efe0"/>
    <path id="Trazado_634133" data-name="Trazado 634133" d="M21.462,108.808H5.508a.475.475,0,0,1,0-.951H21.462a.475.475,0,0,1,0,.951" transform="translate(683.194 1784.634)" fill="#f5efe0"/>
    <path id="Trazado_634134" data-name="Trazado 634134" d="M21.462,113.388H5.508a.475.475,0,0,1,0-.951H21.462a.475.475,0,0,1,0,.951" transform="translate(683.194 1782.991)" fill="#f5efe0"/>
    <path id="Trazado_634135" data-name="Trazado 634135" d="M11.319,121.874H5.508a.475.475,0,0,1,0-.951h5.811a.475.475,0,1,1,0,.951" transform="translate(683.194 1779.946)" fill="#f5efe0"/>
    <path id="Trazado_634136" data-name="Trazado 634136" d="M27.136,121.874H21.325a.475.475,0,0,1,0-.951h5.811a.475.475,0,0,1,0,.951" transform="translate(677.52 1779.946)" fill="#f5efe0"/>
    <path id="Trazado_634137" data-name="Trazado 634137" d="M228.052,12.036h-3.54v-.019h0a8.673,8.673,0,0,0-17.341,0h0v.019h-3.54v-.019h0a12.342,12.342,0,0,1,.253-2.3,12.218,12.218,0,0,1,23.915,0,12.342,12.342,0,0,1,.253,2.3h0a.174.174,0,0,1,0,.019" transform="translate(611.947 1823.328)" fill="#1f271d"/>
    <rect id="Rectángulo_341265" data-name="Rectángulo 341265" width="31.831" height="23.607" transform="translate(811.872 1836.05)" fill="#c47b38"/>
    <path id="Trazado_634138" data-name="Trazado 634138" d="M230.3,53.465v.044a1.509,1.509,0,0,1-1.5,1.461H196.851a1.51,1.51,0,0,1-1.505-1.461v-.044a1.507,1.507,0,0,1,1.505-1.5H228.8a1.508,1.508,0,0,1,1.5,1.5" transform="translate(614.919 1804.686)" fill="#9e5022"/>
    <path id="Trazado_634139" data-name="Trazado 634139" d="M218.9,40.973l.8-6.053-.624-.425a3.186,3.186,0,1,1,3.56,0l-.624.425.8,6.053Z" transform="translate(606.91 1813.045)" fill="#1f271d"/>
    <path id="Trazado_634140" data-name="Trazado 634140" d="M201.583,48.315a.776.776,0,1,1-.777-.776.776.776,0,0,1,.777.776" transform="translate(613.238 1806.273)" fill="#9e5022"/>
    <path id="Trazado_634141" data-name="Trazado 634141" d="M201.583,25.956a.776.776,0,1,1-.777-.777.776.776,0,0,1,.777.777" transform="translate(613.238 1814.295)" fill="#9e5022"/>
    <path id="Trazado_634142" data-name="Trazado 634142" d="M244.238,48.315a.776.776,0,1,1-.777-.776.776.776,0,0,1,.777.776" transform="translate(597.935 1806.273)" fill="#9e5022"/>
    <path id="Trazado_634143" data-name="Trazado 634143" d="M244.238,25.956a.776.776,0,1,1-.777-.777.776.776,0,0,1,.777.777" transform="translate(597.935 1814.295)" fill="#9e5022"/>
    <path id="Trazado_634144" data-name="Trazado 634144" d="M230.372,20.244v.022a1.507,1.507,0,0,1-1.505,1.484H196.92a1.508,1.508,0,0,1-1.505-1.484v-.022a1.51,1.51,0,0,1,1.505-1.5h31.947a1.509,1.509,0,0,1,1.505,1.5" transform="translate(614.894 1816.605)" fill="#9e5022"/>
    <path id="Trazado_634145" data-name="Trazado 634145" d="M603.6,163.555l-.012,16.737a1.429,1.429,0,0,1-1.43,1.429l-10.834-.008,0,0h-2.2l-4.166,0a1.428,1.428,0,0,1-1.429-1.43l.012-16.738a1.429,1.429,0,0,1,1.429-1.428l17.195.012a1.432,1.432,0,0,1,1.429,1.431" transform="translate(475.652 1765.169)" fill="#a64b31"/>
    <path id="Trazado_634146" data-name="Trazado 634146" d="M581.5,172.942a.216.216,0,0,1-.216-.216V161.741a1.849,1.849,0,0,1,1.847-1.847h9.162a.216.216,0,0,1,0,.432h-9.162a1.417,1.417,0,0,0-1.415,1.415v10.985a.216.216,0,0,1-.216.216" transform="translate(476.462 1765.965)" fill="#1f271d"/>
    <path id="Trazado_634147" data-name="Trazado 634147" d="M589.832,174.047a6,6,0,1,0,6-6,6,6,0,0,0-6,6m3.365,2.214a7.932,7.932,0,0,1-.32-2.1h2.711v2.1Zm1.414,3.165a5.493,5.493,0,0,1-3.591-2.683h1.827a6.68,6.68,0,0,0,1.042,1.912,6.087,6.087,0,0,0,.722.771m.977-2.683v2.813a4.989,4.989,0,0,1-1.332-1.214,6.155,6.155,0,0,1-.9-1.6Zm-2.095-5.649a7.474,7.474,0,0,1,1.88-2.543c.072-.006.144-.01.215-.013v2.557Zm-2.319,0a5.543,5.543,0,0,1,3.359-2.409,8.086,8.086,0,0,0-.759.935,7.9,7.9,0,0,0-.808,1.474Zm1.706,2.584a6.882,6.882,0,0,1,.416-2.1h2.292v2.1Zm-2.553,0a5.461,5.461,0,0,1,.573-2.1h1.885a7.4,7.4,0,0,0-.387,2.1Zm2.068.482a8.464,8.464,0,0,0,.3,2.1h-1.916a5.459,5.459,0,0,1-.463-2.1Zm6.813,0h2.135a5.46,5.46,0,0,1-.463,2.1h-1.972a8.469,8.469,0,0,0,.3-2.1m-3.138-3.066v-2.557c.051,0,.1,0,.153.008a7.116,7.116,0,0,1,1.217,1.361,7.391,7.391,0,0,1,.671,1.187Zm2.236.482a6.951,6.951,0,0,1,.416,2.1H596.07v-2.1Zm.33-.482a7.86,7.86,0,0,0-.808-1.474,8.033,8.033,0,0,0-.775-.951,5.532,5.532,0,0,1,3.43,2.425Zm.089,3.066a7.9,7.9,0,0,1-.319,2.1H596.07v-2.1Zm.48-.482a7.42,7.42,0,0,0-.387-2.1h1.94a5.445,5.445,0,0,1,.573,2.1Zm1.433,3.065a5.562,5.562,0,0,1-3.664,2.7,6.048,6.048,0,0,0,.739-.786,6.686,6.686,0,0,0,1.042-1.912Zm-2.4,0a5.678,5.678,0,0,1-2.17,2.779v-2.779Z" transform="translate(473.395 1763.04)" fill="#f5efe0"/>
    <path id="Trazado_634148" data-name="Trazado 634148" d="M583.558,207.763l.012,16.733A1.429,1.429,0,0,0,585,225.924l10.83-.008,0,0h2.194l4.165,0a1.428,1.428,0,0,0,1.428-1.43l-.012-16.733a1.429,1.429,0,0,0-1.428-1.428l-17.19.012a1.432,1.432,0,0,0-1.428,1.43" transform="translate(475.645 1749.309)" fill="#3d4c83"/>
    <path id="Trazado_634149" data-name="Trazado 634149" d="M581.909,217.6a.216.216,0,0,1-.216-.216V206.4a1.849,1.849,0,0,1,1.847-1.847H592.7a.216.216,0,0,1,0,.432H583.54a1.417,1.417,0,0,0-1.415,1.415v10.985a.216.216,0,0,1-.216.216" transform="translate(476.315 1749.943)" fill="#1f271d"/>
    <path id="Trazado_634150" data-name="Trazado 634150" d="M592.414,224.7l-2.918-4.044,1.751-1.263,1.4,1.945,7.065-7.361,1.558,1.495Z" transform="translate(473.515 1746.564)" fill="#f5efe0"/>
    <rect id="Rectángulo_341266" data-name="Rectángulo 341266" width="400" height="266.606" transform="translate(685 1823.328)" fill="none"/>
    <rect id="Rectángulo_341267" data-name="Rectángulo 341267" width="400" height="266.606" transform="translate(685 1823.328)" fill="none"/>
  </g>
</svg>
