<svg id="Grupo_112205" data-name="Grupo 112205" xmlns="http://www.w3.org/2000/svg" xmlns:xlink="http://www.w3.org/1999/xlink" width="174" height="151.627" viewBox="0 0 174 151.627">
  <defs>
    <clipPath id="clip-path">
      <rect id="Rectángulo_37611" data-name="Rectángulo 37611" width="174" height="151.627" fill="none"/>
    </clipPath>
    <clipPath id="clip-path-2">
      <rect id="Rectángulo_37610" data-name="Rectángulo 37610" width="174" height="151.626" fill="none"/>
    </clipPath>
    <clipPath id="clip-path-3">
      <rect id="Rectángulo_37606" data-name="Rectángulo 37606" width="55.515" height="34.278" fill="none"/>
    </clipPath>
    <clipPath id="clip-path-4">
      <rect id="Rectángulo_37607" data-name="Rectángulo 37607" width="69.993" height="29.085" fill="none"/>
    </clipPath>
    <clipPath id="clip-path-5">
      <rect id="Rectángulo_37608" data-name="Rectángulo 37608" width="32.405" height="19.869" fill="none"/>
    </clipPath>
    <clipPath id="clip-path-6">
      <rect id="Rectángulo_37609" data-name="Rectángulo 37609" width="45.015" height="25.965" fill="none"/>
    </clipPath>
  </defs>
  <g id="Grupo_112204" data-name="Grupo 112204" clip-path="url(#clip-path)">
    <g id="Grupo_112203" data-name="Grupo 112203" transform="translate(0 0.001)">
      <g id="Grupo_112202" data-name="Grupo 112202" clip-path="url(#clip-path-2)">
        <path id="Trazado_174917" data-name="Trazado 174917" d="M0,175.4l.024,1.907c.156,1.291,1.171,2.633,3.012,3.7l49.417,28.434a11.734,11.734,0,0,0,2.857,1.17,13.876,13.876,0,0,0,8.555-.189,8.8,8.8,0,0,0,1-.465l80.518-46.507a3.672,3.672,0,0,0,2.151-3.1h.018l-.052-3.1-1.635,1.206a9.436,9.436,0,0,0-1.36-.964L95.086,129.067c-3.683-2.118-9.243-2.358-12.427-.517L29.061,159.5,2.142,175.04l-.155.1Z" transform="translate(26.451 -59.569)" fill="#b3b3b3"/>
        <path id="Trazado_174918" data-name="Trazado 174918" d="M173.351,202.862l.034,2.752c.156,1.291,1.171,2.634,3.012,3.7l49.417,28.434a11.72,11.72,0,0,0,2.857,1.171V187.8H202.422L175.5,203.344l-.155.1Z" transform="translate(-146.91 -87.873)" fill="#4d4d4d"/>
        <path id="Trazado_174919" data-name="Trazado 174919" d="M195.174,265.688l3.957,2.291v-2.343l-3.957-2.291Z" transform="translate(-128.982 -123.219)" fill="#303030"/>
        <path id="Trazado_174920" data-name="Trazado 174920" d="M195.617,265.445V263.6l-.444-.256v2.343l3.957,2.29v-.5Z" transform="translate(-128.982 -123.219)" fill="#f9f9f9"/>
        <path id="Trazado_174921" data-name="Trazado 174921" d="M202.219,265.445l-.444.243v-2.343l.444.256Z" transform="translate(-135.584 -123.219)" fill="#dcdedd"/>
        <path id="Trazado_174922" data-name="Trazado 174922" d="M195.174,266.727l1.511-.643,2,1.169v1.508Z" transform="translate(-128.539 -124.501)" fill="#666"/>
        <path id="Trazado_174923" data-name="Trazado 174923" d="M200.439,265.028l0-.327-1.515-.874v1.844Z" transform="translate(-132.293 -123.445)" fill="#404040"/>
        <path id="Trazado_174924" data-name="Trazado 174924" d="M165.836,267.946v8.283a13.921,13.921,0,0,1-8.563.189v-8.473Z" transform="translate(-75.521 -125.372)" fill="#999"/>
        <path id="Trazado_174925" data-name="Trazado 174925" d="M145.416,157.559,64.892,204.053c-3.183,1.836-8.742,1.606-12.415-.519l-35.616-20.5-13.8-7.943a6.806,6.806,0,0,1-2.565-2.385c-.979-1.715-.449-3.552,1.676-4.78L82.7,121.434c3.182-1.836,8.741-1.607,12.413.519l49.419,28.431c.219.13.429.26.629.4,3.083,2.106,3.253,5.05.259,6.776" transform="translate(26.421 -56.239)" fill="#f2f2f2"/>
        <path id="Trazado_174926" data-name="Trazado 174926" d="M70.751,217.4l34.657-20.01L83.891,184.971l-34.657,20.01Z" transform="translate(42.395 -86.548)" fill="#f0f0f0"/>
        <path id="Trazado_174927" data-name="Trazado 174927" d="M83.889,186.156,50.258,205.573l-1.026-.593,34.658-20.009,21.518,12.423-1.026.592Z" transform="translate(42.397 -86.548)" fill="#dcdedd"/>
        <path id="Trazado_174928" data-name="Trazado 174928" d="M49.231,186.156v-1.185l21.518,12.423-1.026.592Z" transform="translate(77.055 -86.548)" fill="gray"/>
        <path id="Trazado_174929" data-name="Trazado 174929" d="M208.876,237.886l4.146,2.38-4.165,2.4-.336.666-.977.089-4.146-2.381Z" transform="translate(-147.25 -111.307)" fill="#ccc"/>
        <path id="Trazado_174930" data-name="Trazado 174930" d="M205.709,242l5.477-3.151-4.146-2.381-5.478,3.152Z" transform="translate(-144.437 -110.643)" fill="#999"/>
        <path id="Trazado_174931" data-name="Trazado 174931" d="M205.709,243.662l5.218-3,.259.149-5.477,3.151-4.147-2.38.26-.148Z" transform="translate(-144.437 -112.605)" fill="#fff"/>
        <path id="Trazado_174932" data-name="Trazado 174932" d="M211.856,242.389v.666L216,245.436v-.667Z" transform="translate(-154.732 -113.414)" fill="#1a1a1a"/>
        <path id="Trazado_174933" data-name="Trazado 174933" d="M207.039,240.94v.666l-5.477,3.152v-.667Z" transform="translate(-140.29 -112.736)" fill="#4d4d4d"/>
        <path id="Trazado_174934" data-name="Trazado 174934" d="M195.225,229.931l4.145,2.381-4.164,2.4-.336.666-.976.089-4.147-2.38Z" transform="translate(-126.335 -107.585)" fill="#ccc"/>
        <path id="Trazado_174935" data-name="Trazado 174935" d="M192.055,234.044l5.478-3.151-4.147-2.381-5.477,3.152Z" transform="translate(-123.519 -106.921)" fill="#999"/>
        <path id="Trazado_174936" data-name="Trazado 174936" d="M192.055,235.708l5.219-3,.259.149-5.478,3.151-4.146-2.38.259-.15Z" transform="translate(-123.519 -108.884)" fill="#fff"/>
        <path id="Trazado_174937" data-name="Trazado 174937" d="M198.2,234.435v.666l4.146,2.38v-.666Z" transform="translate(-133.814 -109.693)" fill="#1a1a1a"/>
        <path id="Trazado_174938" data-name="Trazado 174938" d="M193.387,232.986v.666l-5.478,3.152v-.667Z" transform="translate(-119.373 -109.015)" fill="#4d4d4d"/>
        <path id="Trazado_174939" data-name="Trazado 174939" d="M181.57,221.977l4.146,2.381-4.165,2.4-.336.667-.976.089-4.146-2.38Z" transform="translate(-105.415 -103.864)" fill="#ccc"/>
        <path id="Trazado_174940" data-name="Trazado 174940" d="M178.4,226.091l5.478-3.151-4.147-2.38-5.477,3.152Z" transform="translate(-102.602 -103.2)" fill="#999"/>
        <path id="Trazado_174941" data-name="Trazado 174941" d="M178.4,227.754l5.219-3,.259.149-5.478,3.151-4.146-2.38.26-.149Z" transform="translate(-102.602 -105.162)" fill="#fff"/>
        <path id="Trazado_174942" data-name="Trazado 174942" d="M184.552,226.482v.666l4.146,2.38v-.666Z" transform="translate(-112.898 -105.972)" fill="#1a1a1a"/>
        <path id="Trazado_174943" data-name="Trazado 174943" d="M179.734,225.033v.666l-5.478,3.152v-.666Z" transform="translate(-98.456 -105.293)" fill="#4d4d4d"/>
        <path id="Trazado_174944" data-name="Trazado 174944" d="M98.385,173.036l4.146,2.38-4.165,2.4-.336.666-.976.089-4.147-2.38Z" transform="translate(22.033 -80.964)" fill="#ccc"/>
        <path id="Trazado_174945" data-name="Trazado 174945" d="M95.218,177.148,100.7,174l-4.145-2.381-5.479,3.152Z" transform="translate(24.845 -80.3)" fill="#999"/>
        <path id="Trazado_174946" data-name="Trazado 174946" d="M95.218,178.813l5.218-3,.259.148-5.477,3.151-4.146-2.38.259-.149Z" transform="translate(24.845 -82.262)" fill="#fff"/>
        <path id="Trazado_174947" data-name="Trazado 174947" d="M101.366,177.54v.666l4.146,2.381v-.667Z" transform="translate(14.551 -83.071)" fill="#1a1a1a"/>
        <path id="Trazado_174948" data-name="Trazado 174948" d="M96.55,176.09v.666l-5.477,3.152v-.667Z" transform="translate(28.99 -82.393)" fill="#4d4d4d"/>
        <path id="Trazado_174949" data-name="Trazado 174949" d="M84.734,165.082l4.146,2.381-4.165,2.4-.336.667-.976.088-4.147-2.38Z" transform="translate(42.949 -77.243)" fill="#ccc"/>
        <path id="Trazado_174950" data-name="Trazado 174950" d="M81.564,169.2l5.478-3.151-4.146-2.38-5.477,3.151Z" transform="translate(45.763 -76.579)" fill="#999"/>
        <path id="Trazado_174951" data-name="Trazado 174951" d="M81.564,170.859l5.218-3,.26.149-5.478,3.152-4.146-2.381.259-.149Z" transform="translate(45.763 -78.541)" fill="#fff"/>
        <path id="Trazado_174952" data-name="Trazado 174952" d="M87.714,169.586v.666l4.146,2.381v-.667Z" transform="translate(35.468 -79.35)" fill="#1a1a1a"/>
        <path id="Trazado_174953" data-name="Trazado 174953" d="M82.9,168.137v.666l-5.478,3.152v-.667Z" transform="translate(49.909 -78.672)" fill="#4d4d4d"/>
        <path id="Trazado_174954" data-name="Trazado 174954" d="M67.9,153.248l4.146,2.38-7.782,4.462-.336.665-.976.089-4.147-2.38Z" transform="translate(70.665 -71.705)" fill="#ccc"/>
        <path id="Trazado_174955" data-name="Trazado 174955" d="M61.116,159.427l9.094-5.217-4.146-2.38-9.1,5.217Z" transform="translate(73.477 -71.042)" fill="#999"/>
        <path id="Trazado_174956" data-name="Trazado 174956" d="M61.116,161.089l8.835-5.067.259.15-9.094,5.217-4.147-2.381.26-.15Z" transform="translate(73.477 -73.003)" fill="#fff"/>
        <path id="Trazado_174957" data-name="Trazado 174957" d="M74.06,161.633v.666l4.147,2.38v-.666Z" transform="translate(56.386 -75.629)" fill="#1a1a1a"/>
        <path id="Trazado_174958" data-name="Trazado 174958" d="M66.064,156.3v.666l-9.094,5.217v-.666Z" transform="translate(77.623 -73.135)" fill="#4d4d4d"/>
        <path id="Trazado_174959" data-name="Trazado 174959" d="M165.01,210.418l4.146,2.38-7.471,4.316-.336.666-.977.089-4.146-2.38Z" transform="translate(-78.284 -98.455)" fill="#ccc"/>
        <path id="Trazado_174960" data-name="Trazado 174960" d="M158.536,216.449l8.784-5.071L163.174,209l-8.784,5.071Z" transform="translate(-75.47 -97.791)" fill="#999"/>
        <path id="Trazado_174961" data-name="Trazado 174961" d="M158.535,218.114l8.526-4.921.259.148-8.784,5.071-4.146-2.38.259-.149Z" transform="translate(-75.471 -99.753)" fill="#fff"/>
        <path id="Trazado_174962" data-name="Trazado 174962" d="M170.9,218.528v.666l4.146,2.38v-.666Z" transform="translate(-91.979 -102.25)" fill="#1a1a1a"/>
        <path id="Trazado_174963" data-name="Trazado 174963" d="M163.174,213.471v.666l-8.784,5.071v-.666Z" transform="translate(-71.324 -99.884)" fill="#4d4d4d"/>
        <path id="Trazado_174964" data-name="Trazado 174964" d="M144.6,186.207l4.146,2.38-4.165,2.4-.336.666-.977.089-4.146-2.38Z" transform="translate(-48.767 -87.127)" fill="#ccc"/>
        <path id="Trazado_174965" data-name="Trazado 174965" d="M141.427,190.32l5.479-3.152-4.146-2.38-5.478,3.151Z" transform="translate(-45.953 -86.463)" fill="#999"/>
        <path id="Trazado_174966" data-name="Trazado 174966" d="M141.427,191.984l5.219-3,.26.148-5.479,3.152-4.146-2.381.259-.15Z" transform="translate(-45.953 -88.425)" fill="#fff"/>
        <path id="Trazado_174967" data-name="Trazado 174967" d="M147.577,190.71v.666l4.146,2.38v-.666Z" transform="translate(-56.249 -89.234)" fill="#1a1a1a"/>
        <path id="Trazado_174968" data-name="Trazado 174968" d="M142.759,189.26v.666l-5.479,3.152v-.666Z" transform="translate(-41.807 -88.555)" fill="#4d4d4d"/>
        <path id="Trazado_174969" data-name="Trazado 174969" d="M199.229,217.91l4.146,2.38-4.164,2.4-.336.666-.977.089-4.146-2.38Z" transform="translate(-132.47 -101.961)" fill="#ccc"/>
        <path id="Trazado_174970" data-name="Trazado 174970" d="M196.062,222.021l5.477-3.151-4.146-2.38-5.478,3.152Z" transform="translate(-129.657 -101.296)" fill="#999"/>
        <path id="Trazado_174971" data-name="Trazado 174971" d="M196.062,223.686l5.218-3,.26.148-5.477,3.151-4.147-2.38.259-.15Z" transform="translate(-129.657 -103.258)" fill="#fff"/>
        <path id="Trazado_174972" data-name="Trazado 174972" d="M202.209,222.413v.666l4.147,2.38v-.666Z" transform="translate(-139.952 -104.067)" fill="#1a1a1a"/>
        <path id="Trazado_174973" data-name="Trazado 174973" d="M197.392,220.963v.667l-5.477,3.151v-.667Z" transform="translate(-125.51 -103.389)" fill="#4d4d4d"/>
        <path id="Trazado_174974" data-name="Trazado 174974" d="M185.577,209.955l4.145,2.381-4.164,2.4-.336.666-.977.089-4.146-2.381Z" transform="translate(-111.553 -98.238)" fill="#ccc"/>
        <path id="Trazado_174975" data-name="Trazado 174975" d="M182.409,214.068l5.477-3.151-4.146-2.381-5.477,3.152Z" transform="translate(-108.74 -97.574)" fill="#999"/>
        <path id="Trazado_174976" data-name="Trazado 174976" d="M182.409,215.731l5.218-3,.259.15-5.477,3.151-4.146-2.38.26-.15Z" transform="translate(-108.74 -99.536)" fill="#fff"/>
        <path id="Trazado_174977" data-name="Trazado 174977" d="M188.558,214.459v.666l4.146,2.381v-.666Z" transform="translate(-119.035 -100.346)" fill="#1a1a1a"/>
        <path id="Trazado_174978" data-name="Trazado 174978" d="M183.74,213.01v.665l-5.477,3.152v-.666Z" transform="translate(-104.594 -99.668)" fill="#4d4d4d"/>
        <path id="Trazado_174979" data-name="Trazado 174979" d="M171.924,202l4.146,2.381-4.165,2.4-.336.666-.976.089-4.147-2.381Z" transform="translate(-90.635 -94.517)" fill="#ccc"/>
        <path id="Trazado_174980" data-name="Trazado 174980" d="M168.755,206.114l5.478-3.152-4.146-2.38-5.478,3.151Z" transform="translate(-87.822 -93.853)" fill="#999"/>
        <path id="Trazado_174981" data-name="Trazado 174981" d="M168.755,207.778l5.218-3,.26.148-5.478,3.152-4.146-2.381.259-.149Z" transform="translate(-87.822 -95.815)" fill="#fff"/>
        <path id="Trazado_174982" data-name="Trazado 174982" d="M174.9,206.5v.667l4.146,2.38v-.666Z" transform="translate(-98.117 -96.624)" fill="#1a1a1a"/>
        <path id="Trazado_174983" data-name="Trazado 174983" d="M170.087,205.056v.667l-5.478,3.151v-.666Z" transform="translate(-83.676 -95.946)" fill="#4d4d4d"/>
        <path id="Trazado_174984" data-name="Trazado 174984" d="M158.249,194.16l4.146,2.38-4.165,2.4-.336.667-.976.088-4.147-2.379Z" transform="translate(-69.685 -90.848)" fill="#ccc"/>
        <path id="Trazado_174985" data-name="Trazado 174985" d="M155.082,198.273l5.477-3.151-4.146-2.381-5.477,3.151Z" transform="translate(-66.872 -90.184)" fill="#999"/>
        <path id="Trazado_174986" data-name="Trazado 174986" d="M155.082,199.937l5.219-3,.259.148-5.477,3.152-4.146-2.381.259-.148Z" transform="translate(-66.872 -92.146)" fill="#fff"/>
        <path id="Trazado_174987" data-name="Trazado 174987" d="M161.23,198.663v.667l4.146,2.381v-.667Z" transform="translate(-77.167 -92.955)" fill="#1a1a1a"/>
        <path id="Trazado_174988" data-name="Trazado 174988" d="M156.413,197.215v.666l-5.477,3.152v-.667Z" transform="translate(-62.725 -92.277)" fill="#4d4d4d"/>
        <path id="Trazado_174989" data-name="Trazado 174989" d="M130.942,178.253l4.147,2.38-4.165,2.4-.336.666-.977.089-4.146-2.381Z" transform="translate(-27.848 -83.405)" fill="#ccc"/>
        <path id="Trazado_174990" data-name="Trazado 174990" d="M127.776,182.366l5.477-3.152-4.146-2.381-5.478,3.152Z" transform="translate(-25.037 -82.741)" fill="#999"/>
        <path id="Trazado_174991" data-name="Trazado 174991" d="M127.776,184.03l5.218-3,.259.149-5.477,3.152-4.147-2.381.26-.148Z" transform="translate(-25.037 -84.703)" fill="#fff"/>
        <path id="Trazado_174992" data-name="Trazado 174992" d="M133.923,182.756v.666l4.147,2.381v-.666Z" transform="translate(-35.331 -85.512)" fill="#1a1a1a"/>
        <path id="Trazado_174993" data-name="Trazado 174993" d="M129.107,181.307v.666l-5.477,3.152v-.666Z" transform="translate(-20.89 -84.834)" fill="#4d4d4d"/>
        <path id="Trazado_174994" data-name="Trazado 174994" d="M116.382,170.192l4.146,2.381-4.165,2.4-.336.667-.978.089-4.146-2.381Z" transform="translate(-5.54 -79.633)" fill="#ccc"/>
        <path id="Trazado_174995" data-name="Trazado 174995" d="M113.217,174.3l5.477-3.151-4.146-2.381-5.479,3.151Z" transform="translate(-2.73 -78.969)" fill="#999"/>
        <path id="Trazado_174996" data-name="Trazado 174996" d="M113.217,175.968l5.218-3,.259.15-5.477,3.152-4.147-2.381.26-.148Z" transform="translate(-2.73 -80.931)" fill="#fff"/>
        <path id="Trazado_174997" data-name="Trazado 174997" d="M119.362,174.695v.667l4.147,2.381v-.667Z" transform="translate(-13.022 -81.74)" fill="#1a1a1a"/>
        <path id="Trazado_174998" data-name="Trazado 174998" d="M114.547,173.246v.666l-5.477,3.153V176.4Z" transform="translate(1.417 -81.062)" fill="#4d4d4d"/>
        <path id="Trazado_174999" data-name="Trazado 174999" d="M102.729,162.238l4.146,2.381-4.165,2.4-.336.666-.977.089-4.146-2.381Z" transform="translate(15.377 -75.912)" fill="#ccc"/>
        <path id="Trazado_175000" data-name="Trazado 175000" d="M99.563,166.351l5.477-3.152-4.146-2.38-5.479,3.152Z" transform="translate(18.189 -75.247)" fill="#999"/>
        <path id="Trazado_175001" data-name="Trazado 175001" d="M99.563,168.015l5.218-3,.259.149-5.477,3.152-4.147-2.38.26-.15Z" transform="translate(18.189 -77.21)" fill="#fff"/>
        <path id="Trazado_175002" data-name="Trazado 175002" d="M105.71,166.743v.665l4.147,2.381v-.666Z" transform="translate(7.895 -78.019)" fill="#1a1a1a"/>
        <path id="Trazado_175003" data-name="Trazado 175003" d="M100.894,165.292v.667l-5.477,3.151v-.666Z" transform="translate(22.336 -77.34)" fill="#4d4d4d"/>
        <path id="Trazado_175004" data-name="Trazado 175004" d="M89.409,154.428l4.147,2.38-4.165,2.4-.337.666-.976.09-4.147-2.381Z" transform="translate(35.784 -72.257)" fill="#ccc"/>
        <path id="Trazado_175005" data-name="Trazado 175005" d="M86.242,158.541l5.478-3.152-4.146-2.381L82.1,156.16Z" transform="translate(38.597 -71.593)" fill="#999"/>
        <path id="Trazado_175006" data-name="Trazado 175006" d="M86.242,160.2l5.219-3,.259.149L86.242,160.5,82.1,158.122l.259-.15Z" transform="translate(38.597 -73.555)" fill="#fff"/>
        <path id="Trazado_175007" data-name="Trazado 175007" d="M92.392,158.932v.666l4.145,2.38v-.665Z" transform="translate(28.301 -74.365)" fill="#1a1a1a"/>
        <path id="Trazado_175008" data-name="Trazado 175008" d="M87.574,157.482v.666L82.1,161.3v-.666Z" transform="translate(42.742 -73.686)" fill="#4d4d4d"/>
        <path id="Trazado_175009" data-name="Trazado 175009" d="M76.256,146.39l4.145,2.381-4.164,2.4-.336.667-.977.089-4.146-2.38Z" transform="translate(55.938 -68.496)" fill="#ccc"/>
        <path id="Trazado_175010" data-name="Trazado 175010" d="M73.088,150.5l5.477-3.151-4.146-2.38-5.478,3.152Z" transform="translate(58.75 -67.833)" fill="#999"/>
        <path id="Trazado_175011" data-name="Trazado 175011" d="M73.088,152.167l5.219-3,.259.149-5.477,3.151-4.147-2.38.26-.149Z" transform="translate(58.75 -69.795)" fill="#fff"/>
        <path id="Trazado_175012" data-name="Trazado 175012" d="M79.235,150.895v.666l4.147,2.381v-.667Z" transform="translate(48.457 -70.604)" fill="#1a1a1a"/>
        <path id="Trazado_175013" data-name="Trazado 175013" d="M74.419,149.445v.666l-5.477,3.152V152.6Z" transform="translate(62.897 -69.926)" fill="#4d4d4d"/>
        <path id="Trazado_175014" data-name="Trazado 175014" d="M217.852,226.657l4.146,2.38-7.472,4.315-.336.666-.976.089-4.147-2.381Z" transform="translate(-159.242 -106.053)" fill="#ccc"/>
        <path id="Trazado_175015" data-name="Trazado 175015" d="M211.378,232.688l8.784-5.071-4.146-2.38-8.784,5.071Z" transform="translate(-156.431 -105.389)" fill="#999"/>
        <path id="Trazado_175016" data-name="Trazado 175016" d="M211.378,234.352l8.526-4.922.259.148-8.784,5.071-4.146-2.381.259-.149Z" transform="translate(-156.431 -107.351)" fill="#fff"/>
        <path id="Trazado_175017" data-name="Trazado 175017" d="M223.742,234.766v.667l4.146,2.38v-.667Z" transform="translate(-172.94 -109.848)" fill="#1a1a1a"/>
        <path id="Trazado_175018" data-name="Trazado 175018" d="M216.017,229.709v.667l-8.784,5.071v-.667Z" transform="translate(-152.285 -107.481)" fill="#4d4d4d"/>
        <path id="Trazado_175019" data-name="Trazado 175019" d="M156.085,179.011l4.146,2.38-4.165,2.4-.336.666-.976.089-4.146-2.38Z" transform="translate(-66.369 -83.76)" fill="#ccc"/>
        <path id="Trazado_175020" data-name="Trazado 175020" d="M152.916,183.123l5.479-3.152-4.146-2.38-5.477,3.152Z" transform="translate(-63.555 -83.095)" fill="#999"/>
        <path id="Trazado_175021" data-name="Trazado 175021" d="M152.916,184.787l5.219-3,.259.149-5.479,3.151-4.145-2.38.259-.15Z" transform="translate(-63.555 -85.058)" fill="#fff"/>
        <path id="Trazado_175022" data-name="Trazado 175022" d="M159.067,183.515v.666l4.145,2.38v-.666Z" transform="translate(-73.852 -85.867)" fill="#1a1a1a"/>
        <path id="Trazado_175023" data-name="Trazado 175023" d="M154.249,182.065v.666l-5.478,3.152v-.666Z" transform="translate(-59.41 -85.188)" fill="#4d4d4d"/>
        <path id="Trazado_175024" data-name="Trazado 175024" d="M209.882,210.418l4.146,2.38-4.165,2.4-.337.666-.977.09-4.146-2.381Z" transform="translate(-148.792 -98.455)" fill="#ccc"/>
        <path id="Trazado_175025" data-name="Trazado 175025" d="M206.715,214.53l5.477-3.152L208.048,209l-5.478,3.151Z" transform="translate(-145.98 -97.791)" fill="#999"/>
        <path id="Trazado_175026" data-name="Trazado 175026" d="M206.715,216.194l5.218-3,.259.148-5.477,3.152-4.146-2.381.259-.149Z" transform="translate(-145.98 -99.753)" fill="#fff"/>
        <path id="Trazado_175027" data-name="Trazado 175027" d="M212.864,214.921v.667l4.146,2.379V217.3Z" transform="translate(-156.274 -100.562)" fill="#1a1a1a"/>
        <path id="Trazado_175028" data-name="Trazado 175028" d="M208.047,213.471v.666l-5.477,3.152v-.666Z" transform="translate(-141.834 -99.884)" fill="#4d4d4d"/>
        <path id="Trazado_175029" data-name="Trazado 175029" d="M222.806,217.924l4.146,2.38-4.165,2.4-.336.666-.976.089-4.147-2.38Z" transform="translate(-168.592 -101.967)" fill="#ccc"/>
        <path id="Trazado_175030" data-name="Trazado 175030" d="M219.639,222.037l5.477-3.152-4.146-2.38-5.478,3.151Z" transform="translate(-165.781 -101.303)" fill="#999"/>
        <path id="Trazado_175031" data-name="Trazado 175031" d="M219.637,223.7l5.219-3,.26.149L219.637,224l-4.146-2.381.26-.148Z" transform="translate(-165.779 -103.265)" fill="#fff"/>
        <path id="Trazado_175032" data-name="Trazado 175032" d="M225.787,222.427v.666l4.146,2.381v-.666Z" transform="translate(-176.074 -104.074)" fill="#1a1a1a"/>
        <path id="Trazado_175033" data-name="Trazado 175033" d="M220.97,220.978v.666l-5.477,3.152v-.666Z" transform="translate(-161.634 -103.396)" fill="#4d4d4d"/>
        <path id="Trazado_175034" data-name="Trazado 175034" d="M196.7,202.774l4.147,2.38-4.165,2.4-.336.666-.977.089-4.146-2.381Z" transform="translate(-128.602 -94.878)" fill="#ccc"/>
        <path id="Trazado_175035" data-name="Trazado 175035" d="M193.537,206.887l5.477-3.151-4.145-2.381-5.478,3.152Z" transform="translate(-125.79 -94.214)" fill="#999"/>
        <path id="Trazado_175036" data-name="Trazado 175036" d="M193.537,208.551l5.219-3,.259.15-5.477,3.151-4.146-2.38.259-.15Z" transform="translate(-125.79 -96.177)" fill="#fff"/>
        <path id="Trazado_175037" data-name="Trazado 175037" d="M199.686,207.278v.666l4.146,2.38v-.666Z" transform="translate(-136.084 -96.986)" fill="#1a1a1a"/>
        <path id="Trazado_175038" data-name="Trazado 175038" d="M194.869,205.829v.665l-5.477,3.152v-.666Z" transform="translate(-121.644 -96.308)" fill="#4d4d4d"/>
        <path id="Trazado_175039" data-name="Trazado 175039" d="M183.414,194.805l4.145,2.381-4.165,2.4-.336.666-.976.089-4.146-2.38Z" transform="translate(-108.238 -91.15)" fill="#ccc"/>
        <path id="Trazado_175040" data-name="Trazado 175040" d="M180.243,198.918l5.479-3.151-4.146-2.38-5.478,3.151Z" transform="translate(-105.423 -90.486)" fill="#999"/>
        <path id="Trazado_175041" data-name="Trazado 175041" d="M180.243,200.582l5.218-3,.26.148-5.479,3.152L176.1,198.5l.259-.15Z" transform="translate(-105.423 -92.448)" fill="#fff"/>
        <path id="Trazado_175042" data-name="Trazado 175042" d="M186.393,199.309v.666l4.146,2.38v-.666Z" transform="translate(-115.719 -93.257)" fill="#1a1a1a"/>
        <path id="Trazado_175043" data-name="Trazado 175043" d="M181.576,197.86v.667l-5.479,3.151v-.667Z" transform="translate(-101.278 -92.579)" fill="#4d4d4d"/>
        <path id="Trazado_175044" data-name="Trazado 175044" d="M169.739,186.964l4.146,2.381-4.164,2.4-.336.667-.977.089-4.147-2.381Z" transform="translate(-87.288 -87.481)" fill="#ccc"/>
        <path id="Trazado_175045" data-name="Trazado 175045" d="M166.57,191.076l5.478-3.152-4.147-2.38-5.477,3.152Z" transform="translate(-84.474 -86.816)" fill="#999"/>
        <path id="Trazado_175046" data-name="Trazado 175046" d="M166.57,192.74l5.218-3,.26.149-5.478,3.152-4.146-2.381.26-.149Z" transform="translate(-84.474 -88.778)" fill="#fff"/>
        <path id="Trazado_175047" data-name="Trazado 175047" d="M172.719,191.467v.667l4.146,2.381v-.667Z" transform="translate(-94.769 -89.588)" fill="#1a1a1a"/>
        <path id="Trazado_175048" data-name="Trazado 175048" d="M167.9,190.017v.667l-5.478,3.152v-.667Z" transform="translate(-80.328 -88.91)" fill="#4d4d4d"/>
        <path id="Trazado_175049" data-name="Trazado 175049" d="M142.432,171.058l4.146,2.38-4.164,2.4-.337.667-.977.089-4.146-2.38Z" transform="translate(-45.451 -80.038)" fill="#ccc"/>
        <path id="Trazado_175050" data-name="Trazado 175050" d="M139.265,175.17l5.478-3.151-4.146-2.381-5.478,3.151Z" transform="translate(-42.639 -79.374)" fill="#999"/>
        <path id="Trazado_175051" data-name="Trazado 175051" d="M139.265,176.833l5.219-3,.259.15-5.478,3.151-4.146-2.381.26-.148Z" transform="translate(-42.639 -81.336)" fill="#fff"/>
        <path id="Trazado_175052" data-name="Trazado 175052" d="M145.414,175.56v.666l4.146,2.381v-.667Z" transform="translate(-52.935 -82.145)" fill="#1a1a1a"/>
        <path id="Trazado_175053" data-name="Trazado 175053" d="M140.6,174.112v.666l-5.478,3.152v-.667Z" transform="translate(-38.493 -81.468)" fill="#4d4d4d"/>
        <path id="Trazado_175054" data-name="Trazado 175054" d="M127.872,163l4.145,2.379-4.164,2.4-.337.665-.976.089-4.146-2.381Z" transform="translate(-23.144 -76.267)" fill="#ccc"/>
        <path id="Trazado_175055" data-name="Trazado 175055" d="M124.7,167.109l5.478-3.152-4.146-2.381-5.479,3.152Z" transform="translate(-20.33 -75.602)" fill="#999"/>
        <path id="Trazado_175056" data-name="Trazado 175056" d="M124.7,168.773l5.219-3,.26.149-5.478,3.152-4.146-2.381.26-.148Z" transform="translate(-20.33 -77.564)" fill="#fff"/>
        <path id="Trazado_175057" data-name="Trazado 175057" d="M130.853,167.5v.666l4.146,2.38v-.666Z" transform="translate(-30.625 -78.373)" fill="#1a1a1a"/>
        <path id="Trazado_175058" data-name="Trazado 175058" d="M126.036,166.05v.666l-5.478,3.151V169.2Z" transform="translate(-16.184 -77.695)" fill="#4d4d4d"/>
        <path id="Trazado_175059" data-name="Trazado 175059" d="M114.22,155.042l4.146,2.381-4.164,2.4-.336.666-.977.089-4.147-2.38Z" transform="translate(-2.226 -72.545)" fill="#ccc"/>
        <path id="Trazado_175060" data-name="Trazado 175060" d="M111.051,159.154,116.529,156l-4.147-2.381-5.477,3.153Z" transform="translate(0.588 -71.88)" fill="#999"/>
        <path id="Trazado_175061" data-name="Trazado 175061" d="M111.051,160.819l5.218-3,.259.149-5.477,3.152-4.147-2.38.259-.15Z" transform="translate(0.588 -73.843)" fill="#fff"/>
        <path id="Trazado_175062" data-name="Trazado 175062" d="M117.2,159.547v.666l4.147,2.38v-.666Z" transform="translate(-9.706 -74.652)" fill="#1a1a1a"/>
        <path id="Trazado_175063" data-name="Trazado 175063" d="M112.382,158.1v.666l-5.477,3.152v-.666Z" transform="translate(4.734 -73.974)" fill="#4d4d4d"/>
        <path id="Trazado_175064" data-name="Trazado 175064" d="M100.9,147.231l4.146,2.38-4.165,2.4-.336.666-.977.089-4.147-2.38Z" transform="translate(18.181 -68.89)" fill="#ccc"/>
        <path id="Trazado_175065" data-name="Trazado 175065" d="M97.732,151.345l5.477-3.152-4.146-2.38-5.478,3.152Z" transform="translate(20.994 -68.226)" fill="#999"/>
        <path id="Trazado_175066" data-name="Trazado 175066" d="M97.732,153.008l5.218-3,.26.148-5.477,3.152-4.147-2.381.259-.149Z" transform="translate(20.994 -70.188)" fill="#fff"/>
        <path id="Trazado_175067" data-name="Trazado 175067" d="M103.879,151.735v.666l4.147,2.381v-.666Z" transform="translate(10.7 -70.997)" fill="#1a1a1a"/>
        <path id="Trazado_175068" data-name="Trazado 175068" d="M99.063,150.286v.666L93.585,154.1v-.666Z" transform="translate(25.141 -70.319)" fill="#4d4d4d"/>
        <path id="Trazado_175069" data-name="Trazado 175069" d="M87.745,139.194l4.145,2.38-4.164,2.4-.336.666-.976.089-4.146-2.381Z" transform="translate(38.336 -65.129)" fill="#ccc"/>
        <path id="Trazado_175070" data-name="Trazado 175070" d="M84.576,143.307l5.478-3.151-4.147-2.38-5.477,3.151Z" transform="translate(41.15 -64.466)" fill="#999"/>
        <path id="Trazado_175071" data-name="Trazado 175071" d="M84.576,144.971l5.218-3,.26.149-5.478,3.152-4.146-2.381.259-.148Z" transform="translate(41.15 -66.428)" fill="#fff"/>
        <path id="Trazado_175072" data-name="Trazado 175072" d="M90.724,143.7v.667l4.146,2.38v-.667Z" transform="translate(30.855 -67.237)" fill="#1a1a1a"/>
        <path id="Trazado_175073" data-name="Trazado 175073" d="M85.908,142.249v.666l-5.478,3.152V145.4Z" transform="translate(45.296 -66.559)" fill="#4d4d4d"/>
        <path id="Trazado_175074" data-name="Trazado 175074" d="M220.335,203.438l4.146,2.38-4.165,2.4-.336.666-.977.089-4.146-2.381Z" transform="translate(-164.807 -95.189)" fill="#ccc"/>
        <path id="Trazado_175075" data-name="Trazado 175075" d="M217.169,207.55l5.477-3.151-4.145-2.381-5.479,3.152Z" transform="translate(-161.995 -94.525)" fill="#999"/>
        <path id="Trazado_175076" data-name="Trazado 175076" d="M217.169,209.214l5.219-3,.259.15-5.477,3.151-4.147-2.38.26-.15Z" transform="translate(-161.995 -96.487)" fill="#fff"/>
        <path id="Trazado_175077" data-name="Trazado 175077" d="M223.316,207.942v.665l4.147,2.381v-.666Z" transform="translate(-172.289 -97.296)" fill="#1a1a1a"/>
        <path id="Trazado_175078" data-name="Trazado 175078" d="M218.5,206.492v.666l-5.477,3.151v-.666Z" transform="translate(-157.848 -96.618)" fill="#4d4d4d"/>
        <path id="Trazado_175079" data-name="Trazado 175079" d="M233.259,210.943l4.146,2.381-4.165,2.4-.336.666-.976.089-4.146-2.381Z" transform="translate(-184.607 -98.701)" fill="#ccc"/>
        <path id="Trazado_175080" data-name="Trazado 175080" d="M230.091,215.056l5.477-3.151-4.147-2.38-5.477,3.151Z" transform="translate(-181.794 -98.037)" fill="#999"/>
        <path id="Trazado_175081" data-name="Trazado 175081" d="M230.09,216.72l5.219-3,.26.15-5.479,3.151-4.145-2.38.259-.149Z" transform="translate(-181.794 -99.999)" fill="#fff"/>
        <path id="Trazado_175082" data-name="Trazado 175082" d="M236.24,215.447v.667l4.146,2.38v-.667Z" transform="translate(-192.089 -100.808)" fill="#1a1a1a"/>
        <path id="Trazado_175083" data-name="Trazado 175083" d="M231.422,214v.666l-5.477,3.152v-.666Z" transform="translate(-177.648 -100.13)" fill="#4d4d4d"/>
        <path id="Trazado_175084" data-name="Trazado 175084" d="M108.1,128.118l2.25,1.234-4.165,2.4-.336.666-.977.089-2.25-1.234Z" transform="translate(9.039 -59.947)" fill="#ccc"/>
        <path id="Trazado_175085" data-name="Trazado 175085" d="M103.039,131.084l5.479-3.152-2.251-1.234-5.478,3.152Z" transform="translate(11.852 -59.282)" fill="#999"/>
        <path id="Trazado_175086" data-name="Trazado 175086" d="M103.039,131.741l5.219-3,.259.149-5.479,3.152-2.251-1.235.26-.148Z" transform="translate(11.852 -60.237)" fill="#fff"/>
        <path id="Trazado_175087" data-name="Trazado 175087" d="M111.085,132.62v.666l2.251,1.234v-.666Z" transform="translate(1.556 -62.054)" fill="#1a1a1a"/>
        <path id="Trazado_175088" data-name="Trazado 175088" d="M106.268,129.018v.666l-5.478,3.152v-.666Z" transform="translate(14.102 -60.368)" fill="#4d4d4d"/>
        <path id="Trazado_175089" data-name="Trazado 175089" d="M121.362,135.892l2.251,1.234-4.165,2.4-.336.667-.976.088-2.251-1.234Z" transform="translate(-11.275 -63.585)" fill="#ccc"/>
        <path id="Trazado_175090" data-name="Trazado 175090" d="M116.3,138.86l5.477-3.152-2.25-1.233-5.478,3.151Z" transform="translate(-8.465 -62.921)" fill="#999"/>
        <path id="Trazado_175091" data-name="Trazado 175091" d="M116.3,139.516l5.218-3,.259.148-5.477,3.152-2.251-1.234.26-.149Z" transform="translate(-8.465 -63.876)" fill="#fff"/>
        <path id="Trazado_175092" data-name="Trazado 175092" d="M124.345,140.4v.666L126.6,142.3v-.667Z" transform="translate(-18.759 -65.692)" fill="#1a1a1a"/>
        <path id="Trazado_175093" data-name="Trazado 175093" d="M119.528,136.793v.667l-5.477,3.152v-.667Z" transform="translate(-6.214 -64.006)" fill="#4d4d4d"/>
        <path id="Trazado_175094" data-name="Trazado 175094" d="M134.622,143.668l2.251,1.236-4.165,2.4-.336.666-.977.089-2.25-1.235Z" transform="translate(-31.59 -67.223)" fill="#ccc"/>
        <path id="Trazado_175095" data-name="Trazado 175095" d="M129.56,146.635l5.477-3.152-2.25-1.234L127.31,145.4Z" transform="translate(-28.779 -66.559)" fill="#999"/>
        <path id="Trazado_175096" data-name="Trazado 175096" d="M129.56,147.292l5.219-3,.259.149-5.477,3.152-2.25-1.235.259-.149Z" transform="translate(-28.779 -67.513)" fill="#fff"/>
        <path id="Trazado_175097" data-name="Trazado 175097" d="M137.6,148.171v.666l2.25,1.235v-.666Z" transform="translate(-39.074 -69.33)" fill="#1a1a1a"/>
        <path id="Trazado_175098" data-name="Trazado 175098" d="M132.788,144.569v.666l-5.477,3.152v-.666Z" transform="translate(-26.529 -67.644)" fill="#4d4d4d"/>
        <path id="Trazado_175099" data-name="Trazado 175099" d="M147.882,151.444l2.251,1.235-4.165,2.4-.335.666-.977.089L142.4,154.6Z" transform="translate(-51.907 -70.861)" fill="#ccc"/>
        <path id="Trazado_175100" data-name="Trazado 175100" d="M142.82,154.411l5.477-3.152-2.251-1.234-5.477,3.151Z" transform="translate(-49.093 -70.197)" fill="#999"/>
        <path id="Trazado_175101" data-name="Trazado 175101" d="M142.819,155.067l5.218-3,.259.149-5.477,3.152-2.25-1.235.259-.15Z" transform="translate(-49.093 -71.151)" fill="#fff"/>
        <path id="Trazado_175102" data-name="Trazado 175102" d="M150.862,155.946v.667l2.251,1.235v-.667Z" transform="translate(-59.387 -72.968)" fill="#1a1a1a"/>
        <path id="Trazado_175103" data-name="Trazado 175103" d="M146.046,152.344v.667l-5.477,3.152V155.5Z" transform="translate(-46.842 -71.282)" fill="#4d4d4d"/>
        <path id="Trazado_175104" data-name="Trazado 175104" d="M161.141,159.22l2.251,1.233-4.165,2.4-.336.665-.977.089-2.25-1.234Z" transform="translate(-72.22 -74.5)" fill="#ccc"/>
        <path id="Trazado_175105" data-name="Trazado 175105" d="M156.079,162.186l5.478-3.152-2.25-1.235-5.478,3.152Z" transform="translate(-69.409 -73.835)" fill="#999"/>
        <path id="Trazado_175106" data-name="Trazado 175106" d="M156.079,162.843l5.219-3,.259.148-5.478,3.152-2.25-1.235.259-.15Z" transform="translate(-69.409 -74.79)" fill="#fff"/>
        <path id="Trazado_175107" data-name="Trazado 175107" d="M164.123,163.722v.666l2.25,1.234v-.666Z" transform="translate(-79.703 -76.606)" fill="#1a1a1a"/>
        <path id="Trazado_175108" data-name="Trazado 175108" d="M159.306,160.12v.666l-5.478,3.152v-.666Z" transform="translate(-67.159 -74.921)" fill="#4d4d4d"/>
        <path id="Trazado_175109" data-name="Trazado 175109" d="M174.4,166.994l2.25,1.234-4.165,2.4-.336.666-.977.089-2.25-1.236Z" transform="translate(-92.537 -78.137)" fill="#ccc"/>
        <path id="Trazado_175110" data-name="Trazado 175110" d="M169.339,169.961l5.477-3.152-2.25-1.235-5.478,3.152Z" transform="translate(-89.725 -77.473)" fill="#999"/>
        <path id="Trazado_175111" data-name="Trazado 175111" d="M169.339,170.619l5.218-3,.26.148-5.477,3.152-2.251-1.236.259-.148Z" transform="translate(-89.725 -78.428)" fill="#fff"/>
        <path id="Trazado_175112" data-name="Trazado 175112" d="M177.383,171.5v.667l2.251,1.234v-.666Z" transform="translate(-100.019 -80.244)" fill="#1a1a1a"/>
        <path id="Trazado_175113" data-name="Trazado 175113" d="M172.566,167.895v.666l-5.477,3.152v-.666Z" transform="translate(-87.473 -78.559)" fill="#4d4d4d"/>
        <path id="Trazado_175114" data-name="Trazado 175114" d="M187.662,174.77l2.25,1.234-4.165,2.4-.336.666-.976.089-2.251-1.234Z" transform="translate(-112.853 -81.776)" fill="#ccc"/>
        <path id="Trazado_175115" data-name="Trazado 175115" d="M182.6,177.737l5.477-3.152-2.251-1.234-5.477,3.152Z" transform="translate(-110.039 -81.111)" fill="#999"/>
        <path id="Trazado_175116" data-name="Trazado 175116" d="M182.6,178.393l5.218-3,.259.148-5.477,3.152-2.25-1.235.259-.149Z" transform="translate(-110.039 -82.066)" fill="#fff"/>
        <path id="Trazado_175117" data-name="Trazado 175117" d="M190.643,179.273v.666l2.25,1.235v-.667Z" transform="translate(-120.334 -83.882)" fill="#1a1a1a"/>
        <path id="Trazado_175118" data-name="Trazado 175118" d="M185.826,175.67v.667l-5.477,3.151v-.666Z" transform="translate(-107.789 -82.196)" fill="#4d4d4d"/>
        <path id="Trazado_175119" data-name="Trazado 175119" d="M200.921,182.545l2.251,1.235-4.165,2.4-.337.665-.976.089-2.25-1.235Z" transform="translate(-133.167 -85.413)" fill="#ccc"/>
        <path id="Trazado_175120" data-name="Trazado 175120" d="M195.858,185.512l5.478-3.152-2.25-1.235-5.478,3.151Z" transform="translate(-130.355 -84.749)" fill="#999"/>
        <path id="Trazado_175121" data-name="Trazado 175121" d="M195.858,186.169l5.219-3,.259.149-5.478,3.152-2.25-1.236.26-.149Z" transform="translate(-130.355 -85.704)" fill="#fff"/>
        <path id="Trazado_175122" data-name="Trazado 175122" d="M203.9,187.048v.667l2.25,1.234v-.666Z" transform="translate(-140.649 -87.52)" fill="#1a1a1a"/>
        <path id="Trazado_175123" data-name="Trazado 175123" d="M199.086,183.447v.666l-5.478,3.151V186.6Z" transform="translate(-128.105 -85.835)" fill="#4d4d4d"/>
        <path id="Trazado_175124" data-name="Trazado 175124" d="M214.181,190.321l2.25,1.234-4.165,2.4-.336.667-.977.089-2.251-1.235Z" transform="translate(-153.482 -89.052)" fill="#ccc"/>
        <path id="Trazado_175125" data-name="Trazado 175125" d="M209.118,193.288l5.478-3.152-2.25-1.234-5.478,3.151Z" transform="translate(-150.67 -88.387)" fill="#999"/>
        <path id="Trazado_175126" data-name="Trazado 175126" d="M209.118,193.944l5.219-3,.259.149-5.478,3.151-2.251-1.234.259-.149Z" transform="translate(-150.67 -89.342)" fill="#fff"/>
        <path id="Trazado_175127" data-name="Trazado 175127" d="M217.162,194.823v.667l2.251,1.234v-.666Z" transform="translate(-160.964 -91.158)" fill="#1a1a1a"/>
        <path id="Trazado_175128" data-name="Trazado 175128" d="M212.345,191.221v.666l-5.478,3.152v-.666Z" transform="translate(-148.419 -89.473)" fill="#4d4d4d"/>
        <path id="Trazado_175129" data-name="Trazado 175129" d="M227.441,198.1l2.25,1.234-4.164,2.4-.336.666-.977.089-2.251-1.234Z" transform="translate(-173.798 -92.69)" fill="#ccc"/>
        <path id="Trazado_175130" data-name="Trazado 175130" d="M222.378,201.063l5.478-3.152-2.251-1.234-5.479,3.152Z" transform="translate(-170.985 -92.025)" fill="#999"/>
        <path id="Trazado_175131" data-name="Trazado 175131" d="M222.378,201.719l5.218-3,.26.148-5.478,3.152-2.251-1.234.26-.149Z" transform="translate(-170.985 -92.981)" fill="#fff"/>
        <path id="Trazado_175132" data-name="Trazado 175132" d="M230.421,202.6v.666l2.251,1.234v-.666Z" transform="translate(-181.279 -94.797)" fill="#1a1a1a"/>
        <path id="Trazado_175133" data-name="Trazado 175133" d="M225.6,199v.667l-5.478,3.151v-.666Z" transform="translate(-168.734 -93.111)" fill="#4d4d4d"/>
        <path id="Trazado_175134" data-name="Trazado 175134" d="M240.7,205.872l2.25,1.234-4.164,2.4-.337.666-.976.089-2.25-1.234Z" transform="translate(-194.113 -96.328)" fill="#ccc"/>
        <path id="Trazado_175135" data-name="Trazado 175135" d="M235.637,208.839l5.478-3.152-2.25-1.234-5.478,3.151Z" transform="translate(-191.301 -95.664)" fill="#999"/>
        <path id="Trazado_175136" data-name="Trazado 175136" d="M235.637,209.5l5.218-3,.26.148-5.478,3.152-2.25-1.234.26-.15Z" transform="translate(-191.301 -96.618)" fill="#fff"/>
        <path id="Trazado_175137" data-name="Trazado 175137" d="M243.682,210.376v.666l2.25,1.234v-.666Z" transform="translate(-201.596 -98.435)" fill="#1a1a1a"/>
        <path id="Trazado_175138" data-name="Trazado 175138" d="M238.865,206.772v.667l-5.478,3.151v-.666Z" transform="translate(-189.05 -96.749)" fill="#4d4d4d"/>
        <path id="Trazado_175139" data-name="Trazado 175139" d="M253.96,213.648l2.25,1.234-4.165,2.4-.336.666-.976.089-2.251-1.234Z" transform="translate(-214.428 -99.966)" fill="#ccc"/>
        <path id="Trazado_175140" data-name="Trazado 175140" d="M248.9,216.614l5.478-3.151-2.25-1.234-5.478,3.151Z" transform="translate(-211.615 -99.302)" fill="#999"/>
        <path id="Trazado_175141" data-name="Trazado 175141" d="M248.9,217.27l5.219-3,.259.148-5.478,3.152-2.251-1.234.26-.149Z" transform="translate(-211.616 -100.257)" fill="#fff"/>
        <path id="Trazado_175142" data-name="Trazado 175142" d="M256.942,218.15v.667l2.25,1.235v-.667Z" transform="translate(-221.911 -102.073)" fill="#1a1a1a"/>
        <path id="Trazado_175143" data-name="Trazado 175143" d="M252.125,214.548v.667l-5.478,3.152V217.7Z" transform="translate(-209.365 -100.387)" fill="#4d4d4d"/>
        <path id="Trazado_175144" data-name="Trazado 175144" d="M207.156,195.794l4.147,2.38-4.165,2.4-.336.666-.976.089-4.146-2.38Z" transform="translate(-144.616 -91.613)" fill="#ccc"/>
        <path id="Trazado_175145" data-name="Trazado 175145" d="M203.989,199.906l5.478-3.152-4.146-2.381-5.477,3.152Z" transform="translate(-141.804 -90.948)" fill="#999"/>
        <path id="Trazado_175146" data-name="Trazado 175146" d="M203.989,201.57l5.219-3,.259.149-5.478,3.152-4.146-2.38.259-.15Z" transform="translate(-141.804 -92.91)" fill="#fff"/>
        <path id="Trazado_175147" data-name="Trazado 175147" d="M210.139,200.3v.666l4.146,2.38v-.666Z" transform="translate(-152.099 -93.72)" fill="#1a1a1a"/>
        <path id="Trazado_175148" data-name="Trazado 175148" d="M205.321,198.848v.666l-5.478,3.152V202Z" transform="translate(-137.658 -93.041)" fill="#4d4d4d"/>
        <path id="Trazado_175149" data-name="Trazado 175149" d="M193.865,187.826l4.146,2.381-4.165,2.4-.336.666-.977.09-4.146-2.381Z" transform="translate(-124.251 -87.884)" fill="#ccc"/>
        <path id="Trazado_175150" data-name="Trazado 175150" d="M190.7,191.938l5.477-3.152-4.146-2.38-5.477,3.152Z" transform="translate(-121.439 -87.22)" fill="#999"/>
        <path id="Trazado_175151" data-name="Trazado 175151" d="M190.7,193.6l5.218-3,.259.149L190.7,193.9l-4.146-2.381.259-.15Z" transform="translate(-121.439 -89.182)" fill="#fff"/>
        <path id="Trazado_175152" data-name="Trazado 175152" d="M196.846,192.329V193l4.146,2.381v-.666Z" transform="translate(-131.734 -89.991)" fill="#1a1a1a"/>
        <path id="Trazado_175153" data-name="Trazado 175153" d="M192.029,190.879v.667l-5.477,3.152v-.666Z" transform="translate(-117.293 -89.313)" fill="#4d4d4d"/>
        <path id="Trazado_175154" data-name="Trazado 175154" d="M180.191,179.983l4.146,2.381-4.165,2.4-.336.667-.977.089-4.146-2.381Z" transform="translate(-103.302 -84.215)" fill="#ccc"/>
        <path id="Trazado_175155" data-name="Trazado 175155" d="M177.024,184.1l5.477-3.151-4.146-2.38-5.478,3.151Z" transform="translate(-100.489 -83.551)" fill="#999"/>
        <path id="Trazado_175156" data-name="Trazado 175156" d="M177.024,185.761l5.218-3,.259.149-5.477,3.151-4.146-2.381.259-.149Z" transform="translate(-100.489 -85.513)" fill="#fff"/>
        <path id="Trazado_175157" data-name="Trazado 175157" d="M183.172,184.487v.666l4.146,2.381v-.667Z" transform="translate(-110.784 -86.322)" fill="#1a1a1a"/>
        <path id="Trazado_175158" data-name="Trazado 175158" d="M178.355,183.039v.666l-5.477,3.152v-.667Z" transform="translate(-96.343 -85.644)" fill="#4d4d4d"/>
        <path id="Trazado_175159" data-name="Trazado 175159" d="M166.374,171.837l4.146,2.381-4.165,2.4-.336.666-.977.089-4.146-2.38Z" transform="translate(-82.134 -80.403)" fill="#ccc"/>
        <path id="Trazado_175160" data-name="Trazado 175160" d="M163.208,175.95l5.477-3.151-4.146-2.38-5.478,3.151Z" transform="translate(-79.322 -79.74)" fill="#999"/>
        <path id="Trazado_175161" data-name="Trazado 175161" d="M163.207,177.614l5.219-3,.259.15-5.477,3.151-4.147-2.38.26-.149Z" transform="translate(-79.321 -81.701)" fill="#fff"/>
        <path id="Trazado_175162" data-name="Trazado 175162" d="M169.355,176.341v.666l4.147,2.38v-.666Z" transform="translate(-89.615 -82.51)" fill="#1a1a1a"/>
        <path id="Trazado_175163" data-name="Trazado 175163" d="M164.538,174.891v.666l-5.477,3.151v-.666Z" transform="translate(-75.175 -81.832)" fill="#4d4d4d"/>
        <path id="Trazado_175164" data-name="Trazado 175164" d="M152.885,164.077l4.146,2.38-4.165,2.4-.336.666-.976.089-4.146-2.38Z" transform="translate(-61.467 -76.772)" fill="#ccc"/>
        <path id="Trazado_175165" data-name="Trazado 175165" d="M149.718,168.189l5.477-3.152-4.146-2.381-5.478,3.152Z" transform="translate(-58.654 -76.108)" fill="#999"/>
        <path id="Trazado_175166" data-name="Trazado 175166" d="M149.717,169.853l5.219-3,.259.149-5.478,3.152-4.146-2.38.259-.149Z" transform="translate(-58.653 -78.07)" fill="#fff"/>
        <path id="Trazado_175167" data-name="Trazado 175167" d="M155.866,168.581v.666l4.146,2.38v-.666Z" transform="translate(-68.949 -78.879)" fill="#1a1a1a"/>
        <path id="Trazado_175168" data-name="Trazado 175168" d="M151.049,167.131v.666l-5.477,3.152v-.666Z" transform="translate(-54.508 -78.201)" fill="#4d4d4d"/>
        <path id="Trazado_175169" data-name="Trazado 175169" d="M138.324,156.016l4.146,2.381-4.165,2.4-.336.666-.977.088-4.146-2.38Z" transform="translate(-39.158 -73.001)" fill="#ccc"/>
        <path id="Trazado_175170" data-name="Trazado 175170" d="M135.158,160.129l5.477-3.152-4.146-2.38-5.477,3.151Z" transform="translate(-36.346 -72.336)" fill="#999"/>
        <path id="Trazado_175171" data-name="Trazado 175171" d="M135.157,161.793l5.218-3,.259.148-5.477,3.152-4.146-2.381.259-.149Z" transform="translate(-36.345 -74.298)" fill="#fff"/>
        <path id="Trazado_175172" data-name="Trazado 175172" d="M141.3,160.519v.666l4.146,2.381V162.9Z" transform="translate(-46.639 -75.107)" fill="#1a1a1a"/>
        <path id="Trazado_175173" data-name="Trazado 175173" d="M136.489,159.069v.666l-5.477,3.152v-.666Z" transform="translate(-32.201 -74.429)" fill="#4d4d4d"/>
        <path id="Trazado_175174" data-name="Trazado 175174" d="M124.672,148.063l4.146,2.38-4.164,2.4-.336.666-.977.089-4.146-2.38Z" transform="translate(-18.241 -69.279)" fill="#ccc"/>
        <path id="Trazado_175175" data-name="Trazado 175175" d="M121.5,152.175l5.477-3.152-4.145-2.38-5.478,3.152Z" transform="translate(-15.429 -68.615)" fill="#999"/>
        <path id="Trazado_175176" data-name="Trazado 175176" d="M121.5,153.839l5.218-3,.259.149-5.477,3.152-4.146-2.381.259-.15Z" transform="translate(-15.429 -70.577)" fill="#fff"/>
        <path id="Trazado_175177" data-name="Trazado 175177" d="M127.652,152.566v.666l4.146,2.381v-.666Z" transform="translate(-25.722 -71.386)" fill="#1a1a1a"/>
        <path id="Trazado_175178" data-name="Trazado 175178" d="M122.835,151.116v.667l-5.477,3.151v-.666Z" transform="translate(-11.282 -70.708)" fill="#4d4d4d"/>
        <path id="Trazado_175179" data-name="Trazado 175179" d="M111.352,140.252l4.146,2.38-4.165,2.4-.336.666-.976.089-4.146-2.38Z" transform="translate(2.166 -65.625)" fill="#ccc"/>
        <path id="Trazado_175180" data-name="Trazado 175180" d="M108.184,144.365l5.478-3.153-4.147-2.38-5.477,3.152Z" transform="translate(4.979 -64.96)" fill="#999"/>
        <path id="Trazado_175181" data-name="Trazado 175181" d="M108.184,146.028l5.218-3,.26.149-5.478,3.152-4.146-2.381.259-.149Z" transform="translate(4.979 -66.922)" fill="#fff"/>
        <path id="Trazado_175182" data-name="Trazado 175182" d="M114.333,144.755v.667l4.146,2.38v-.666Z" transform="translate(-5.316 -67.732)" fill="#1a1a1a"/>
        <path id="Trazado_175183" data-name="Trazado 175183" d="M109.516,143.3v.667l-5.478,3.151v-.665Z" transform="translate(9.125 -67.053)" fill="#4d4d4d"/>
        <path id="Trazado_175184" data-name="Trazado 175184" d="M98.2,132.214l4.146,2.381-4.164,2.4-.337.667-.976.088-4.146-2.38Z" transform="translate(22.322 -61.863)" fill="#ccc"/>
        <path id="Trazado_175185" data-name="Trazado 175185" d="M95.029,136.326l5.478-3.151L96.36,130.8l-5.477,3.152Z" transform="translate(25.134 -61.2)" fill="#999"/>
        <path id="Trazado_175186" data-name="Trazado 175186" d="M95.029,137.991l5.219-3,.259.149-5.478,3.151-4.146-2.38.26-.149Z" transform="translate(25.134 -63.161)" fill="#fff"/>
        <path id="Trazado_175187" data-name="Trazado 175187" d="M101.178,136.718v.666l4.146,2.381V139.1Z" transform="translate(14.839 -63.971)" fill="#1a1a1a"/>
        <path id="Trazado_175188" data-name="Trazado 175188" d="M96.361,135.268v.666l-5.478,3.152v-.667Z" transform="translate(29.281 -63.293)" fill="#4d4d4d"/>
        <path id="Trazado_175189" data-name="Trazado 175189" d="M234.04,218.9,244.3,224.76l-2.483,1.437-.335.666-.977.089L230.245,221.1Z" transform="translate(-192.814 -102.426)" fill="#ccc"/>
        <path id="Trazado_175190" data-name="Trazado 175190" d="M238.67,225.532l3.8-2.192L232.2,217.484l-3.8,2.193Z" transform="translate(-190.001 -101.761)" fill="#999"/>
        <path id="Trazado_175191" data-name="Trazado 175191" d="M238.67,227.031l3.536-2.042.26.149-3.8,2.191-10.263-5.855.26-.15Z" transform="translate(-190.001 -103.558)" fill="#fff"/>
        <path id="Trazado_175192" data-name="Trazado 175192" d="M235.54,221.6v.666l10.263,5.856v-.667Z" transform="translate(-197.134 -103.689)" fill="#1a1a1a"/>
        <path id="Trazado_175193" data-name="Trazado 175193" d="M232.2,228.491v.666l-3.8,2.192v-.666Z" transform="translate(-179.739 -106.911)" fill="#4d4d4d"/>
        <path id="Trazado_175194" data-name="Trazado 175194" d="M131.337,181.46l4.145,2.379L112.47,197.4l-.336.666-.976.089-4.146-2.38Z" transform="translate(-18.423 -84.906)" fill="#ccc"/>
        <path id="Trazado_175195" data-name="Trazado 175195" d="M109.322,196.733l24.325-14.313-4.146-2.381-24.326,14.313Z" transform="translate(-15.61 -84.241)" fill="#999"/>
        <path id="Trazado_175196" data-name="Trazado 175196" d="M109.322,198.4l24.066-14.163.259.148L109.322,198.7l-4.147-2.381.26-.149Z" transform="translate(-15.61 -86.204)" fill="#fff"/>
        <path id="Trazado_175197" data-name="Trazado 175197" d="M150.89,206.938v.666l4.147,2.381v-.666Z" transform="translate(-61.325 -96.827)" fill="#1a1a1a"/>
        <path id="Trazado_175198" data-name="Trazado 175198" d="M129.5,184.513v.666l-24.325,14.313v-.666Z" transform="translate(-11.464 -86.334)" fill="#4d4d4d"/>
        <path id="Trazado_175199" data-name="Trazado 175199" d="M212.049,11.01l-.634.118-1.328.252c.04.135.079.277.119.419a8.143,8.143,0,0,1,.187,1.157l1.114,13.378L214.4,60.87c.305,3.566-1.624,7.691-4.308,9.218L134.2,114.033c-.041.025-.093.051-.143.076l.875,2.282-1.67-.9a4.389,4.389,0,0,1-2.059-3.33c-.036-.2-.056-.411-.076-.62l-3.985-47.814-.01-.1a10.948,10.948,0,0,1,2.065-7.129,7.373,7.373,0,0,1,2.244-2.088L207.32,10.465a3.4,3.4,0,0,1,3.207-.276v-.009l1.142.628Z" transform="translate(-108.055 -4.636)" fill="#4d4d4d"/>
        <path id="Trazado_175200" data-name="Trazado 175200" d="M214.757,10.808l-.254.319-1.209.671L133.946,57.211l-1.665-.712a7.373,7.373,0,0,1,2.244-2.088l75.883-43.946a3.4,3.4,0,0,1,3.207-.276v-.009Z" transform="translate(-111.143 -4.636)" fill="#f2f2f2"/>
        <path id="Trazado_175201" data-name="Trazado 175201" d="M284.452,99.827l-2.516,7.506-5.143-2.633-.01-.1a10.948,10.948,0,0,1,2.065-7.129Z" transform="translate(-257.71 -45.607)" fill="#999"/>
        <path id="Trazado_175202" data-name="Trazado 175202" d="M205.548,15.672l1.113,13.377,2.891,34.538c.305,3.565-1.624,7.691-4.317,9.218l-56.249,32.073L129.351,116.75c-2.2,1.25-4.214.369-5.046-1.937a5.764,5.764,0,0,1-.291-1.132c-.037-.21-.056-.411-.076-.63l-4-47.914c-.306-3.565,1.633-7.691,4.316-9.217L152.013,40l26.245-15.621h.009l21.868-12.4a3.177,3.177,0,0,1,4.474.823,5.989,5.989,0,0,1,.939,2.876" transform="translate(-99.384 -5.339)" fill="#b3b3b3"/>
        <path id="Trazado_175203" data-name="Trazado 175203" d="M124.907,65.638l4.853,52.108L209.3,70.889l-4.853-52.107Z" transform="translate(-101.763 -8.789)" fill="#a9d6ff"/>
        <path id="Trazado_175204" data-name="Trazado 175204" d="M132.241,65.638l.862,9.305,79.626-45.972-.951-10.2Z" transform="translate(-109.094 -8.785)" fill="#4367c7"/>
        <g id="Grupo_112192" data-name="Grupo 112192" transform="translate(23.335 58.894)" style="mix-blend-mode: screen;isolation: isolate">
          <g id="Grupo_112191" data-name="Grupo 112191">
            <g id="Grupo_112190" data-name="Grupo 112190" clip-path="url(#clip-path-3)">
              <path id="Trazado_175205" data-name="Trazado 175205" d="M178.82,110.684l2.2,23.675,29.264,10.6,24.051-14.171Z" transform="translate(-178.82 -110.684)" fill="#668c6d"/>
            </g>
          </g>
        </g>
        <g id="Grupo_112195" data-name="Grupo 112195" transform="translate(37.548 40.408)" style="mix-blend-mode: screen;isolation: isolate">
          <g id="Grupo_112194" data-name="Grupo 112194">
            <g id="Grupo_112193" data-name="Grupo 112193" clip-path="url(#clip-path-4)">
              <path id="Trazado_175206" data-name="Trazado 175206" d="M124.9,83.9l57.438,21.128,12.556-7.392-.089-.941L138.4,75.941Z" transform="translate(-124.9 -75.941)" fill="#668c6d"/>
            </g>
          </g>
        </g>
        <g id="Grupo_112198" data-name="Grupo 112198" transform="translate(73.015 19.517)" style="mix-blend-mode: screen;isolation: isolate">
          <g id="Grupo_112197" data-name="Grupo 112197">
            <g id="Grupo_112196" data-name="Grupo 112196" clip-path="url(#clip-path-5)">
              <path id="Trazado_175207" data-name="Trazado 175207" d="M128.885,44.629,161.29,56.551l-1.239-13.368-17.669-6.5Z" transform="translate(-128.885 -36.681)" fill="#668c6d"/>
            </g>
          </g>
        </g>
        <path id="Trazado_175208" data-name="Trazado 175208" d="M198.493,19.5l4.726,50.734L124.893,116.38l.127,1.371L204.569,70.9l-4.853-52.1Z" transform="translate(-97.024 -8.794)" fill="#dcdedd"/>
        <path id="Trazado_175209" data-name="Trazado 175209" d="M125.02,162.986l79.548-46.853-1.35-.664-78.325,46.145Z" transform="translate(-97.024 -54.028)" fill="#f9f9f9"/>
        <path id="Trazado_175210" data-name="Trazado 175210" d="M210.352,57.538a2.212,2.212,0,0,1-.934,2,1.1,1.1,0,0,1-.549.151.943.943,0,0,1-.328-.057,1.178,1.178,0,0,1-.729-1.082,2.207,2.207,0,0,1,.934-2,1.089,1.089,0,0,1,.548-.155.937.937,0,0,1,.344.067h.009a1.192,1.192,0,0,1,.706,1.077" transform="translate(-146.933 -26.388)" fill="#f2f2f2"/>
        <path id="Trazado_175211" data-name="Trazado 175211" d="M208.334,58.779a1.428,1.428,0,0,0,.053.271v.009a.787.787,0,0,0,.476.56.7.7,0,0,0,.225.044.8.8,0,0,0,.412-.123,1.977,1.977,0,0,0,.822-1.767.915.915,0,0,0-.482-.822l-.039-.018a.759.759,0,0,0-.235-.044.749.749,0,0,0-.412.123.232.232,0,0,0-.06.044h-.01a2.01,2.01,0,0,0-.752,1.723" transform="translate(-147.18 -26.619)" fill="#518e90"/>
        <path id="Trazado_175212" data-name="Trazado 175212" d="M209.134,58.9a1.429,1.429,0,0,0,.053.271v.009a.6.6,0,0,0,.3.245.574.574,0,0,0,.527-.07,1.632,1.632,0,0,0,.683-1.469.778.778,0,0,0-.4-.682l-.038-.009a.466.466,0,0,0-.188-.043.53.53,0,0,0-.172.026h-.01a2.01,2.01,0,0,0-.752,1.723" transform="translate(-147.98 -26.743)" fill="#333"/>
        <path id="Trazado_175213" data-name="Trazado 175213" d="M183.363,18.706l-7.874-4.576a1.687,1.687,0,0,0-1.7.165l7.874,4.576a1.687,1.687,0,0,1,1.7-.166" transform="translate(-101.834 -6.536)" fill="#fff642"/>
        <path id="Trazado_175214" data-name="Trazado 175214" d="M227.391,91.591l7.874,4.576a1.681,1.681,0,0,1-.7-1.54l-7.874-4.576a1.681,1.681,0,0,0,.7,1.54" transform="translate(-181.888 -42.135)" fill="#fc912d"/>
        <path id="Trazado_175215" data-name="Trazado 175215" d="M235.881,53.872,228.007,49.3l.062,21.686,7.874,4.576Z" transform="translate(-183.265 -23.066)" fill="#fc912d"/>
        <path id="Trazado_175216" data-name="Trazado 175216" d="M209.682,19.16l-7.874-4.576L176.986,28.915l7.874,4.576Z" transform="translate(-129.857 -6.824)" fill="#fff642"/>
        <path id="Trazado_175217" data-name="Trazado 175217" d="M186.708,20.692h11.766V16.453h-4.422Z" transform="translate(-123.821 -7.699)" fill="#fcaa2d"/>
        <path id="Trazado_175218" data-name="Trazado 175218" d="M224.732,40.057l4.445,2.581h2.846V38.4h-4.416Z" transform="translate(-177.603 -17.968)" fill="#fcaa2d"/>
        <path id="Trazado_175219" data-name="Trazado 175219" d="M233.9,46.093l-7.874-4.576a5.269,5.269,0,0,0-2.388,4.14l7.874,4.576a5.267,5.267,0,0,1,2.388-4.139" transform="translate(-178.894 -19.426)" fill="#ffe042"/>
        <path id="Trazado_175220" data-name="Trazado 175220" d="M174.742,37.227a5.267,5.267,0,0,0-2.388,4.139l.062,21.686c0,1.523,1.081,2.136,2.4,1.374l24.822-14.332a5.266,5.266,0,0,0,2.387-4.139l-.061-21.686c0-1.523-1.082-2.136-2.4-1.373Z" transform="translate(-119.739 -10.56)" fill="#fcaa2d"/>
        <path id="Trazado_175221" data-name="Trazado 175221" d="M198.956,52.376c0-2.447-1.769-3.4-3.919-2.063a8.438,8.438,0,0,0-3.626,6.466c.014,1.427.637,2.331,1.585,2.56v7.6c0,.467.33.656.738.42l2.9-1.674a1.625,1.625,0,0,0,.737-1.272v-7.6a8.031,8.031,0,0,0,1.585-4.438" transform="translate(-126.806 -23.258)" fill="#ff6d40"/>
        <path id="Trazado_175222" data-name="Trazado 175222" d="M195.436,49.726a3.263,3.263,0,0,1,.461,1.805,8.033,8.033,0,0,1-1.585,4.438v7.6a1.625,1.625,0,0,1-.738,1.272L191.412,66.1v.858c0,.467.33.656.738.42l2.9-1.674a1.624,1.624,0,0,0,.737-1.272v-7.6a8.03,8.03,0,0,0,1.585-4.438c0-1.624-.782-2.584-1.935-2.659" transform="translate(-125.222 -23.267)" fill="#fff642"/>
        <path id="Trazado_175223" data-name="Trazado 175223" d="M189.608,18.806l-2.9-1.686.006,2.2,2.9,1.686Z" transform="translate(-114.962 -8.011)" fill="#ffe042"/>
        <path id="Trazado_175224" data-name="Trazado 175224" d="M189.62,7.873l-2.9-1.686c1.63.947,2.641,2.96,2.649,5.817l2.9,1.686c-.008-2.857-1.02-4.87-2.649-5.817" transform="translate(-117.623 -2.895)" fill="#fc912d"/>
        <path id="Trazado_175225" data-name="Trazado 175225" d="M227.63,40.758l-2.9-1.686.006,2.2,2.9,1.686Z" transform="translate(-173.214 -18.282)" fill="#fc912d"/>
        <path id="Trazado_175226" data-name="Trazado 175226" d="M199.756,2.442l-2.9-1.686c-2.031-1.18-4.841-1.017-7.935.77l2.9,1.686c3.095-1.786,5.9-1.95,7.935-.77" transform="translate(-126.281 -0.001)" fill="#fff642"/>
        <path id="Trazado_175227" data-name="Trazado 175227" d="M217.859,4.553l-2.9-1.686c-6.153,3.552-11.145,12.194-11.125,19.264l2.9,1.686c-.02-7.071,4.971-15.712,11.125-19.265" transform="translate(-152.318 -1.342)" fill="#ffe042"/>
        <path id="Trazado_175228" data-name="Trazado 175228" d="M193.909,4.694c-6.153,3.552-11.145,12.194-11.125,19.265l.006,2.2,2.087-1.205-.006-2.2c-.017-5.75,4.04-12.776,9.044-15.666s9.083-.56,9.1,5.19l.006,2.2,2.087-1.205-.006-2.2c-.02-7.07-5.044-9.929-11.194-6.379" transform="translate(-128.368 -1.483)" fill="#fcaa2d"/>
        <g id="Grupo_112201" data-name="Grupo 112201" transform="translate(90.085 74.895)" style="mix-blend-mode: multiply;isolation: isolate">
          <g id="Grupo_112200" data-name="Grupo 112200">
            <g id="Grupo_112199" data-name="Grupo 112199" clip-path="url(#clip-path-6)">
              <path id="Trazado_175229" data-name="Trazado 175229" d="M88.721,165.866l27.925-16.1c2.189-1.263,1.914-3.47-.613-4.929l-4.984-2.878c-2.527-1.459-6.35-1.617-8.538-.354l-27.925,16.1c-2.188,1.263-1.914,3.47.613,4.929l4.985,2.878c2.527,1.459,6.349,1.618,8.538.354" transform="translate(-73.108 -140.754)" fill="#ababab"/>
            </g>
          </g>
        </g>
        <path id="Trazado_175230" data-name="Trazado 175230" d="M113.864,34.079,133.3,30.262l-3.385,12.526c0,9.494-3.586,20.595-9.837,30.427l-9.306,14.643,7.047,4.068V93.29l-4.887-2.046c-.357-.15-.707-.313-1.045-.488l-.833-.482-7.848-4.51-.839-.482a14.12,14.12,0,0,1-4.1-3.9c-2.484-3.5-3.83-8.361-3.83-14.175V52.7Z" transform="translate(-9.543 -14.16)" fill="#ff6d40"/>
        <path id="Trazado_175231" data-name="Trazado 175231" d="M78.158,62.045,97.59,43.421l19.433-3.815v14.5c0,9.494-3.589,20.593-9.837,30.424l-9.6,15.1L88,95.614C81.747,93,78.158,86.043,78.158,76.549Z" transform="translate(15.39 -18.532)" fill="#ffaf40"/>
        <path id="Trazado_175232" data-name="Trazado 175232" d="M84.227,68.285l16.2-15.529,16.2-3.181V61.669c0,7.917-2.993,17.171-8.2,25.368l-8,12.587-8-3.349c-5.21-2.181-8.2-7.98-8.2-15.9Z" transform="translate(12.549 -23.197)" fill="#ff6d40"/>
        <path id="Trazado_175233" data-name="Trazado 175233" d="M124.759,103.417,127,99.559c.5-.866.5-1.8,0-2.085l-14.215-8.1c-.5-.286-1.316.184-1.817,1.049l-2.237,3.858c-.5.865-.5,1.8,0,2.085l14.215,8.1c.5.286,1.315-.183,1.817-1.049" transform="translate(-11.026 -41.777)" fill="#fff"/>
        <path id="Trazado_175234" data-name="Trazado 175234" d="M98.961,101.317l2.237,1.275c.5.286,1.315-.184,1.817-1.049l7.427-12.809c.5-.866.5-1.8,0-2.085L108.2,85.373c-.5-.286-1.315.184-1.817,1.049L98.961,99.232c-.5.866-.5,1.8,0,2.085" transform="translate(10.725 -39.908)" fill="#fff"/>
        <path id="Trazado_175235" data-name="Trazado 175235" d="M92.184,86.305c5.21-8.2,8.2-17.452,8.2-25.369V49.959l1.953-.384V61.669c0,7.917-2.993,17.171-8.2,25.368l-8,12.588-1.91-.8Z" transform="translate(26.844 -23.197)" fill="#ffc640"/>
        <path id="Trazado_175236" data-name="Trazado 175236" d="M106.25,35.234,86.818,39.049l-8.659-4.97,19.432-3.817Z" transform="translate(26.162 -14.16)" fill="#fff454"/>
        <path id="Trazado_175237" data-name="Trazado 175237" d="M123.336,61.029l-8.659-4.969L134.11,37.435l8.659,4.97Z" transform="translate(-29.789 -17.517)" fill="#ffc640"/>
        <path id="Trazado_175238" data-name="Trazado 175238" d="M180.776,132.149,251.9,91.086a2.664,2.664,0,0,1,2.64-.247l2.116,1.026-.771.915-.027-.009a5.939,5.939,0,0,1,.165,1.432v41.364c0,3.036-1.846,6.563-4.123,7.878l-71.124,41.063a4.112,4.112,0,0,1-.676.31l.009,1.074-1.911-1.107c-.941-.465-1.545-1.66-1.545-3.394V140.027c0-3.037,1.846-6.563,4.123-7.878" transform="translate(-176.653 -42.388)" fill="#7e63a9"/>
        <path id="Trazado_175239" data-name="Trazado 175239" d="M178.2,186.676l71.124-41.063c2.277-1.315,4.123-4.842,4.123-7.878V96.371c0-3.036-1.846-4.432-4.123-3.117L178.2,134.317c-2.277,1.315-4.123,4.842-4.123,7.878v41.364c0,3.036,1.846,4.432,4.123,3.117" transform="translate(-172.08 -43.402)" fill="#8f52f5"/>
        <path id="Trazado_175240" data-name="Trazado 175240" d="M181.485,159.179c0,9.177,6.484,12.874,14.481,8.256s14.481-15.8,14.481-24.977-6.483-12.874-14.481-8.256-14.481,15.8-14.481,24.977" transform="translate(-133.015 -61.863)" fill="#fff"/>
        <path id="Trazado_175241" data-name="Trazado 175241" d="M196.844,140.723s6.031-2.144,5.073,10.5a2.724,2.724,0,0,1-1.22,1.975l-5.966,3.444Z" transform="translate(-131.636 -65.78)" fill="#636363"/>
        <path id="Trazado_175242" data-name="Trazado 175242" d="M213.875,145.586s-6.031,4.82-5.073,16.361c.057.687.59.929,1.221.566l5.966-3.445Z" transform="translate(-153.037 -68.12)" fill="#636363"/>
        <path id="Trazado_175243" data-name="Trazado 175243" d="M197.617,153.858c0,4.441,2.6,6.537,5.818,4.682s5.818-6.959,5.818-11.4-2.605-6.537-5.818-4.683-5.818,6.959-5.818,11.4" transform="translate(-140.405 -66.34)" fill="#fad3aa"/>
        <path id="Trazado_175244" data-name="Trazado 175244" d="M198.1,150.529l.833-.481.5-1.547v1.26l1.143-.66.425-1.29.057,1.012,1.372-.792.714-1.438v1.026l1.527-.882.257-2.322.237,2.036.086-.049.257-.8.176.55,1.225-.707.233-.8.327.481.081-.047V143l.645,1.7,1.033-.6A3.351,3.351,0,0,0,207.8,141a3.429,3.429,0,0,0-3.429.35l-1.429.825a10.67,10.67,0,0,0-4.845,8.358" transform="translate(-140.628 -65.825)" fill="#636363"/>
        <path id="Trazado_175245" data-name="Trazado 175245" d="M204.946,173.686l3.708-2.141v-5.816l-3.708,2.141Z" transform="translate(-143.705 -77.545)" fill="#fad3aa"/>
        <path id="Trazado_175246" data-name="Trazado 175246" d="M191.043,187.62c2.526,1.033,5.811.626,9.394-1.443a28.713,28.713,0,0,0,9.393-9.4c-.27-4.135-3.391-5.711-7.194-3.516l-4.4,2.54a16.015,16.015,0,0,0-7.194,11.822" transform="translate(-137.484 -80.604)" fill="#56aa39"/>
        <path id="Trazado_175247" data-name="Trazado 175247" d="M208.653,174.349l-1.854,5.11-1.854-2.969Z" transform="translate(-143.704 -81.578)" fill="#fad3aa"/>
        <path id="Trazado_175248" data-name="Trazado 175248" d="M203.638,176.492l1.854,2.969,1.854-5.109,1.487,1.99-3.341,10.721-3.341-6.863Z" transform="translate(-142.397 -81.579)" fill="#a0d859"/>
        <path id="Trazado_175249" data-name="Trazado 175249" d="M174.082,141.372v5.99l79.37-45.824V95.548c0-2.612-1.847-3.665-4.123-2.351l-71.124,41.063a9.088,9.088,0,0,0-4.123,7.112" transform="translate(-172.081 -43.343)" fill="#272262"/>
        <path id="Trazado_175250" data-name="Trazado 175250" d="M244.746,185.3l35.631-20.572a3.454,3.454,0,0,0,1.443-2.757v-.647c0-1.063-.646-1.551-1.443-1.091L244.746,180.8a3.456,3.456,0,0,0-1.443,2.757v.647c0,1.063.646,1.551,1.443,1.091" transform="translate(-237.281 -74.893)" fill="#fff"/>
        <path id="Trazado_175251" data-name="Trazado 175251" d="M244.746,201.082l35.631-20.572a3.455,3.455,0,0,0,1.443-2.757v-.646c0-1.063-.646-1.552-1.443-1.091l-35.631,20.572a3.456,3.456,0,0,0-1.443,2.757v.646c0,1.063.646,1.551,1.443,1.091" transform="translate(-237.281 -82.277)" fill="#fff"/>
        <path id="Trazado_175252" data-name="Trazado 175252" d="M244.746,216.864l35.631-20.571a3.456,3.456,0,0,0,1.443-2.758v-.646c0-1.063-.646-1.551-1.443-1.091L244.746,212.37a3.456,3.456,0,0,0-1.443,2.757v.647c0,1.063.646,1.551,1.443,1.091" transform="translate(-237.281 -89.662)" fill="#fff"/>
        <path id="Trazado_175253" data-name="Trazado 175253" d="M244.746,232.647l35.631-20.572a3.454,3.454,0,0,0,1.443-2.757v-.646c0-1.063-.646-1.551-1.443-1.091l-35.631,20.571a3.456,3.456,0,0,0-1.443,2.757v.647c0,1.063.646,1.551,1.443,1.091" transform="translate(-237.281 -97.047)" fill="#fff"/>
        <path id="Trazado_175254" data-name="Trazado 175254" d="M180.151,104.468c0,1.372.969,1.925,2.165,1.234a4.768,4.768,0,0,0,2.165-3.733c0-1.372-.969-1.925-2.165-1.234a4.769,4.769,0,0,0-2.165,3.734" transform="translate(-106.339 -46.995)" fill="#fff"/>
        <path id="Trazado_175255" data-name="Trazado 175255" d="M189.708,109.986c0,1.372.969,1.925,2.165,1.234a4.769,4.769,0,0,0,2.165-3.733c0-1.372-.969-1.925-2.165-1.234a4.769,4.769,0,0,0-2.165,3.734" transform="translate(-120.981 -49.577)" fill="#fff"/>
        <path id="Trazado_175256" data-name="Trazado 175256" d="M199.265,115.5c0,1.372.969,1.925,2.165,1.234A4.769,4.769,0,0,0,203.594,113c0-1.371-.969-1.924-2.165-1.234a4.769,4.769,0,0,0-2.165,3.734" transform="translate(-135.623 -52.158)" fill="#fff"/>
        <path id="Trazado_175257" data-name="Trazado 175257" d="M208.822,121.021c0,1.372.969,1.925,2.165,1.234a4.769,4.769,0,0,0,2.164-3.733c0-1.372-.969-1.925-2.164-1.234a4.77,4.77,0,0,0-2.165,3.734" transform="translate(-150.265 -54.74)" fill="#fff"/>
      </g>
    </g>
  </g>
</svg>
