<svg xmlns="http://www.w3.org/2000/svg" xmlns:xlink="http://www.w3.org/1999/xlink" width="586.232" height="426.039" viewBox="0 0 586.232 426.039">
  <defs>
    <clipPath id="clip-path">
      <rect y="1" width="586.232" height="426.039" fill="none"/>
    </clipPath>
    <clipPath id="clip-path-2">
      <rect id="Rectángulo_341171" data-name="Rectángulo 341171" width="495.496" height="316.871" fill="none"/>
    </clipPath>
    <clipPath id="clip-path-7">
      <rect id="Rectángulo_341165" data-name="Rectángulo 341165" width="22.102" height="33.524" transform="translate(210.387 180.088)" fill="none"/>
    </clipPath>
    <clipPath id="clip-path-8">
      <rect id="Rectángulo_341166" data-name="Rectángulo 341166" width="2.859" height="56.392" transform="translate(172.268 161.774)" fill="none"/>
    </clipPath>
    <clipPath id="clip-path-9">
      <rect id="Rectángulo_341167" data-name="Rectángulo 341167" width="2.604" height="5.528" transform="translate(171.85 225.166)" fill="none"/>
    </clipPath>
    <clipPath id="clip-path-10">
      <rect id="Rectángulo_341168" data-name="Rectángulo 341168" width="8.689" height="33.152" transform="translate(205.047 182.237)" fill="none"/>
    </clipPath>
    <clipPath id="clip-path-11">
      <rect id="Rectángulo_341169" data-name="Rectángulo 341169" width="77.371" height="6.837" transform="translate(176.355 148.585)" fill="none"/>
    </clipPath>
    <clipPath id="clip-path-12">
      <rect id="Rectángulo_341153" data-name="Rectángulo 341153" width="136.368" height="289.886" fill="none"/>
    </clipPath>
    <clipPath id="clip-path-14">
      <rect id="Rectángulo_341147" data-name="Rectángulo 341147" width="20.98" height="13.826" fill="none"/>
    </clipPath>
    <clipPath id="clip-path-15">
      <rect id="Rectángulo_341148" data-name="Rectángulo 341148" width="2.794" height="5.989" fill="none"/>
    </clipPath>
    <clipPath id="clip-path-16">
      <rect id="Rectángulo_341149" data-name="Rectángulo 341149" width="5.972" height="4.399" fill="none"/>
    </clipPath>
    <clipPath id="clip-path-17">
      <rect id="Rectángulo_341150" data-name="Rectángulo 341150" width="27.231" height="2.993" fill="none"/>
    </clipPath>
    <clipPath id="clip-path-18">
      <rect id="Rectángulo_341151" data-name="Rectángulo 341151" width="75.808" height="102.99" fill="none"/>
    </clipPath>
  </defs>
  <g id="Grupo_946748" data-name="Grupo 946748" transform="translate(-835.163 -1953)">
    <g id="Grupo_de_desplazamiento_3" data-name="Grupo de desplazamiento 3" transform="translate(835.163 1952)" clip-path="url(#clip-path)" style="isolation: isolate">
      <g id="Grupo_946747" data-name="Grupo 946747" transform="translate(-835.163 -1952)">
        <g id="Grupo_946153" data-name="Grupo 946153" transform="translate(1349.001 2009.327) rotate(-45)">
          <path id="Trazado_597847" data-name="Trazado 597847" d="M0,6.088A6.088,6.088,0,1,0,6.088,0,6.088,6.088,0,0,0,0,6.088" transform="translate(68.897 0)" fill="#0f1e52"/>
          <path id="Trazado_599892" data-name="Trazado 599892" d="M0,6.088A6.088,6.088,0,1,0,6.088,0,6.088,6.088,0,0,0,0,6.088" transform="translate(54.958 24.688)" fill="#0f1e52"/>
          <path id="Trazado_597848" data-name="Trazado 597848" d="M0,6.088A6.088,6.088,0,1,0,6.088,0,6.088,6.088,0,0,0,0,6.088" transform="translate(41.418 0)" fill="#0f1e52"/>
          <path id="Trazado_599891" data-name="Trazado 599891" d="M0,6.088A6.088,6.088,0,1,0,6.088,0,6.088,6.088,0,0,0,0,6.088" transform="translate(27.478 24.688)" fill="#0f1e52"/>
          <path id="Trazado_599886" data-name="Trazado 599886" d="M0,6.088A6.088,6.088,0,1,0,6.088,0,6.088,6.088,0,0,0,0,6.088" transform="translate(13.94 0)" fill="#0f1e52"/>
          <path id="Trazado_599890" data-name="Trazado 599890" d="M0,6.088A6.088,6.088,0,1,0,6.088,0,6.088,6.088,0,0,0,0,6.088" transform="translate(0 24.689)" fill="#0f1e52"/>
        </g>
        <g id="Grupo_946561" data-name="Grupo 946561">
          <g id="Grupo_946560" data-name="Grupo 946560" transform="translate(877.673 1997.357)">
            <g id="Grupo_946559" data-name="Grupo 946559" clip-path="url(#clip-path-2)">
              <rect id="Rectángulo_341154" data-name="Rectángulo 341154" width="365.798" height="244.999" transform="translate(81.646)" fill="#fafafa"/>
              <rect id="Rectángulo_341155" data-name="Rectángulo 341155" width="365.798" height="24.473" transform="translate(81.646)" fill="#ebebeb"/>
              <g id="Grupo_946537" data-name="Grupo 946537">
                <g id="Grupo_946536" data-name="Grupo 946536" clip-path="url(#clip-path-2)">
                  <path id="Trazado_633778" data-name="Trazado 633778" d="M97.49,12.236a2.964,2.964,0,0,1-5.913,0,2.964,2.964,0,0,1,5.913,0" fill="#fafafa"/>
                  <path id="Trazado_633779" data-name="Trazado 633779" d="M107.031,12.236a2.964,2.964,0,0,1-5.913,0,2.964,2.964,0,0,1,5.913,0" fill="#fafafa"/>
                  <path id="Trazado_633780" data-name="Trazado 633780" d="M116.573,12.236a2.964,2.964,0,0,1-5.913,0,2.964,2.964,0,0,1,5.913,0" fill="#fafafa"/>
                </g>
              </g>
              <g id="Grupo_946539" data-name="Grupo 946539">
                <g id="Grupo_946538" data-name="Grupo 946538" clip-path="url(#clip-path-2)">
                  <path id="Trazado_633781" data-name="Trazado 633781" d="M415.553,276.952c-19.116-13.355-23.453-38.145-22.7-60.428.126-3.72-.282-7.641,1.487-10.9s5.9-5.494,9.229-3.926c2.762,1.3,3.966,4.513,5.511,7.17a21.753,21.753,0,0,0,8.724,8.332c2.368,1.229,5.3,1.981,7.637.692,3.208-1.771,3.587-6.2,3.564-9.9q-.066-10.344-.13-20.685c-.023-3.7-.033-7.476,1.117-10.988s3.693-6.772,7.212-7.758,7.872,1.043,8.615,4.664a34.3,34.3,0,0,1,.105,4.607c.1,1.536.818,3.235,2.277,3.663,1.476.433,2.957-.616,4.062-1.7,3.819-3.736,6.41-8.548,8.831-13.333s4.772-9.684,8.237-13.758,8.257-7.3,13.555-7.6,10.943,2.97,12.282,8.171-1.7,10.507-5.011,14.729a82.594,82.594,0,0,1-17.193,16.389c-1.167.828-2.431,1.722-2.876,3.093-.8,2.466,1.533,4.916,3.968,5.726,2.758.919,5.75.632,8.634.972s6.01,1.612,7.1,4.338c1.515,3.781-1.647,7.745-4.759,10.341A70.76,70.76,0,0,1,464.1,220.939c-2.721,1-5.585,1.87-7.78,3.781s-3.519,5.238-2.193,7.843,4.73,3.443,7.58,2.913,5.4-2.076,8.119-3.1c5.083-1.919,11.649-1.569,14.906,2.825,2.14,2.888,2.328,6.91,1.246,10.353a27.007,27.007,0,0,1-5.609,9.143c-8.148,9.559-18.579,17.256-30.374,21.345s-22.72,5.2-34.441.91" fill="#43a284"/>
                  <path id="Trazado_633782" data-name="Trazado 633782" d="M415.261,293.472a162.357,162.357,0,0,1,6.045-30.49,331.349,331.349,0,0,1,13.158-35.689l3.93-9.178c1.3-3.009,2.582-5.994,4.02-8.835a165.486,165.486,0,0,1,9.2-15.854c3.17-4.9,6.356-9.436,9.366-13.655s5.911-8.089,8.7-11.508A131.285,131.285,0,0,1,484,153.121c1.825-1.649,3.282-2.882,4.281-3.7l1.142-.928a2.623,2.623,0,0,1,.4-.3,2.669,2.669,0,0,1-.359.351l-1.1.98c-.97.856-2.4,2.12-4.194,3.8a138.85,138.85,0,0,0-14.13,15.251c-2.753,3.429-5.613,7.311-8.609,11.534s-6.153,8.771-9.3,13.668a167.6,167.6,0,0,0-9.127,15.811c-1.426,2.828-2.7,5.788-3.995,8.805s-2.6,6.077-3.925,9.174a339.744,339.744,0,0,0-13.184,35.6,165.34,165.34,0,0,0-6.166,30.356" fill="#263238"/>
                  <path id="Trazado_633783" data-name="Trazado 633783" d="M442.608,209.254a7.472,7.472,0,0,1-.361-1.578c-.2-1.023-.427-2.51-.687-4.353-.523-3.683-1.072-8.795-1.655-14.432s-1.2-10.73-1.781-14.4c-.284-1.833-.529-3.315-.711-4.337a7.454,7.454,0,0,1-.207-1.606,7.38,7.38,0,0,1,.466,1.551c.262,1.007.58,2.48.924,4.309.7,3.657,1.4,8.758,1.984,14.4.562,5.565,1.07,10.6,1.458,14.446.186,1.736.344,3.2.471,4.374a7.439,7.439,0,0,1,.1,1.617" fill="#263238"/>
                  <path id="Trazado_633784" data-name="Trazado 633784" d="M490.172,200.364a10.267,10.267,0,0,1-1.9.227c-1.221.109-2.987.257-5.164.509-4.356.47-10.351,1.33-16.924,2.569s-12.472,2.636-16.71,3.761c-2.124.547-3.831,1.037-5.012,1.368a10.14,10.14,0,0,1-1.857.455,10.187,10.187,0,0,1,1.778-.712c1.16-.409,2.851-.971,4.964-1.581,4.218-1.249,10.121-2.713,16.713-3.969a167.934,167.934,0,0,1,17-2.376c2.19-.19,3.968-.265,5.2-.291a10.138,10.138,0,0,1,1.911.04" fill="#263238"/>
                  <path id="Trazado_633785" data-name="Trazado 633785" d="M421.89,262.108a2.41,2.41,0,0,1-.326-.58l-.813-1.721c-.7-1.5-1.656-3.69-2.8-6.415-2.294-5.449-5.227-13.076-8.35-21.535s-5.983-16.1-8.16-21.594c-1.067-2.668-1.946-4.863-2.6-6.494-.28-.708-.509-1.292-.7-1.772a2.431,2.431,0,0,1-.2-.636,2.437,2.437,0,0,1,.326.581l.813,1.719c.7,1.5,1.656,3.691,2.8,6.416,2.3,5.449,5.228,13.075,8.352,21.538s5.982,16.1,8.159,21.592c1.068,2.667,1.946,4.863,2.6,6.493l.7,1.771a2.44,2.44,0,0,1,.2.637" fill="#263238"/>
                  <path id="Trazado_633786" data-name="Trazado 633786" d="M485.094,241.737a2.566,2.566,0,0,1-.627.259l-1.836.615-6.768,2.193c-5.715,1.854-13.578,4.5-22.263,7.444s-16.583,5.522-22.338,7.258c-2.877.868-5.212,1.548-6.835,1.984l-1.871.492a2.472,2.472,0,0,1-.666.125,2.567,2.567,0,0,1,.627-.259l1.836-.614,6.767-2.194c5.714-1.852,13.579-4.5,22.266-7.445s16.58-5.521,22.334-7.256c2.877-.869,5.212-1.548,6.836-1.985.751-.2,1.368-.36,1.872-.491a2.444,2.444,0,0,1,.666-.126" fill="#263238"/>
                </g>
              </g>
              <g id="Grupo_946541" data-name="Grupo 946541">
                <g id="Grupo_946540" data-name="Grupo 946540" clip-path="url(#clip-path-2)">
                  <path id="Trazado_633787" data-name="Trazado 633787" d="M404.281,313.272H31.38A14.567,14.567,0,0,1,16.813,298.7V61.977A14.567,14.567,0,0,1,31.38,47.41h372.9a14.567,14.567,0,0,1,14.567,14.567V298.7a14.567,14.567,0,0,1-14.567,14.567" fill="#263238"/>
                  <path id="Trazado_633788" data-name="Trazado 633788" d="M417.777,316.871H17.8A17.8,17.8,0,0,1,0,299.073v-5.465H435.575v5.465a17.8,17.8,0,0,1-17.8,17.8" fill="#263238"/>
                  <rect id="Rectángulo_341158" data-name="Rectángulo 341158" width="379.328" height="224.517" transform="translate(27.604 57.972)" fill="#455a64"/>
                  <path id="Trazado_633789" data-name="Trazado 633789" d="M178.2,293.608l5.4,8.6H259.66l5.019-8.6Z" fill="#455a64"/>
                  <path id="Trazado_633790" data-name="Trazado 633790" d="M396.627,281.771H38.691a3.273,3.273,0,0,1-3.273-3.273V68.847a3.272,3.272,0,0,1,3.272-3.273H396.627a3.273,3.273,0,0,1,3.273,3.272V278.5a3.273,3.273,0,0,1-3.273,3.272" fill="#ebebeb"/>
                  <rect id="Rectángulo_341159" data-name="Rectángulo 341159" width="364.482" height="200.357" transform="translate(35.417 81.414)" fill="#fafafa"/>
                  <path id="Trazado_633791" data-name="Trazado 633791" d="M65.31,73.923a2.911,2.911,0,1,1-2.911-2.91,2.911,2.911,0,0,1,2.911,2.91" fill="#263238"/>
                  <path id="Trazado_633792" data-name="Trazado 633792" d="M47.668,73.923a2.911,2.911,0,1,1-2.911-2.91,2.911,2.911,0,0,1,2.911,2.91" fill="#263238"/>
                  <path id="Trazado_633793" data-name="Trazado 633793" d="M56.137,73.923a2.911,2.911,0,1,1-2.911-2.91,2.911,2.911,0,0,1,2.911,2.91" fill="#263238"/>
                  <path id="Trazado_633794" data-name="Trazado 633794" d="M415.393,293.608c0,.144-89.232.26-199.281.26-110.086,0-199.3-.116-199.3-.26s89.214-.26,199.3-.26c110.049,0,199.281.116,199.281.26" fill="#455a64"/>
                  <rect id="Rectángulo_341160" data-name="Rectángulo 341160" width="83.173" height="5.564" transform="translate(60.677 182.343)" fill="#e0e0e0"/>
                  <rect id="Rectángulo_341161" data-name="Rectángulo 341161" width="83.174" height="5.564" transform="translate(168.106 105.096)" fill="#e0e0e0"/>
                  <path id="Trazado_633795" data-name="Trazado 633795" d="M374.984,125.817c0,.144-46.315.26-103.434.26-57.138,0-103.443-.116-103.443-.26s46.305-.26,103.443-.26c57.119,0,103.434.116,103.434.26" fill="#e0e0e0"/>
                  <path id="Trazado_633796" data-name="Trazado 633796" d="M374.984,137.966c0,.144-46.315.26-103.434.26-57.138,0-103.443-.116-103.443-.26s46.305-.26,103.443-.26c57.119,0,103.434.116,103.434.26" fill="#e0e0e0"/>
                  <path id="Trazado_633797" data-name="Trazado 633797" d="M374.984,150.116c0,.144-46.315.26-103.434.26-57.138,0-103.443-.116-103.443-.26s46.305-.26,103.443-.26c57.119,0,103.434.116,103.434.26" fill="#e0e0e0"/>
                  <path id="Trazado_633798" data-name="Trazado 633798" d="M374.984,162.265c0,.144-46.315.26-103.434.26-57.138,0-103.443-.116-103.443-.26s46.305-.26,103.443-.26c57.119,0,103.434.116,103.434.26" fill="#e0e0e0"/>
                  <path id="Trazado_633799" data-name="Trazado 633799" d="M374.984,174.414c0,.144-46.315.26-103.434.26-57.138,0-103.443-.116-103.443-.26s46.305-.26,103.443-.26c57.119,0,103.434.116,103.434.26" fill="#e0e0e0"/>
                  <path id="Trazado_633800" data-name="Trazado 633800" d="M248.861,186.564c0,.144-18.079.26-40.375.26s-40.38-.116-40.38-.26,18.076-.26,40.38-.26,40.375.116,40.375.26" fill="#e0e0e0"/>
                  <path id="Trazado_633801" data-name="Trazado 633801" d="M373.471,210.143c0,.144-30.442.26-67.985.26s-67.991-.116-67.991-.26,30.435-.26,67.991-.26,67.985.116,67.985.26" fill="#e0e0e0"/>
                  <path id="Trazado_633802" data-name="Trazado 633802" d="M373.471,223.04c0,.144-30.442.26-67.985.26s-67.991-.116-67.991-.26,30.435-.26,67.991-.26,67.985.116,67.985.26" fill="#e0e0e0"/>
                  <path id="Trazado_633803" data-name="Trazado 633803" d="M373.471,235.936c0,.144-30.442.26-67.985.26s-67.991-.116-67.991-.26,30.435-.26,67.991-.26,67.985.116,67.985.26" fill="#e0e0e0"/>
                  <path id="Trazado_633804" data-name="Trazado 633804" d="M373.471,248.833c0,.144-30.442.26-67.985.26s-67.991-.116-67.991-.26,30.435-.26,67.991-.26,67.985.116,67.985.26" fill="#e0e0e0"/>
                  <path id="Trazado_633805" data-name="Trazado 633805" d="M144.06,208.909c0,.144-18.147.26-40.527.26S63,209.053,63,208.909s18.143-.26,40.53-.26,40.527.116,40.527.26" fill="#e0e0e0"/>
                  <path id="Trazado_633806" data-name="Trazado 633806" d="M144.06,219.037c0,.144-18.147.26-40.527.26S63,219.181,63,219.037s18.143-.26,40.53-.26,40.527.116,40.527.26" fill="#e0e0e0"/>
                  <path id="Trazado_633807" data-name="Trazado 633807" d="M144.06,229.166c0,.144-18.147.26-40.527.26S63,229.31,63,229.166s18.143-.26,40.53-.26,40.527.116,40.527.26" fill="#e0e0e0"/>
                  <path id="Trazado_633808" data-name="Trazado 633808" d="M144.06,239.294c0,.144-18.147.26-40.527.26S63,239.438,63,239.294s18.143-.26,40.53-.26,40.527.116,40.527.26" fill="#e0e0e0"/>
                  <path id="Trazado_633809" data-name="Trazado 633809" d="M144.06,249.422c0,.144-18.147.26-40.527.26S63,249.566,63,249.422s18.143-.26,40.53-.26,40.527.116,40.527.26" fill="#e0e0e0"/>
                  <rect id="Rectángulo_341162" data-name="Rectángulo 341162" width="59.012" height="57.093" transform="translate(168.055 203.989)" fill="#f5f5f5"/>
                  <path id="Trazado_633810" data-name="Trazado 633810" d="M172.631,256.2l16.324-29.379,13.353,18.778,8.113-9.972L222.492,256.2Z" fill="#ebebeb"/>
                  <path id="Trazado_633811" data-name="Trazado 633811" d="M207.995,221.1a4.246,4.246,0,1,1-4.247-4.247,4.246,4.246,0,0,1,4.247,4.247" fill="#ebebeb"/>
                  <path id="Trazado_633812" data-name="Trazado 633812" d="M222.492,256.355a1.838,1.838,0,0,1-.014-.234c0-.171-.007-.389-.013-.666-.006-.607-.016-1.465-.028-2.569-.015-2.264-.036-5.539-.062-9.7-.031-8.339-.073-20.214-.124-34.472l.241.241-49.856.04c-.067.059.528-.529.276-.273v6.46q0,3.208,0,6.357c0,4.2-.005,8.3-.007,12.3-.009,8-.019,15.555-.027,22.509l-.245-.244,36.051.125,10.168.063,2.7.029.7.014a1.79,1.79,0,0,1,.246.014,1.3,1.3,0,0,1-.218.014l-.672.014-2.65.028-10.113.064-36.208.125h-.244v-.247c-.009-6.954-.018-14.513-.027-22.509,0-4-.005-8.107-.008-12.3q0-3.147,0-6.357v-6.46c-.251.246.341-.352.286-.29l49.856.04h.242v.242c-.051,14.321-.093,26.249-.123,34.625-.027,4.135-.048,7.391-.063,9.642q-.018,1.628-.028,2.523c-.006.266-.01.475-.013.64a1.056,1.056,0,0,1-.014.207" fill="#ebebeb"/>
                  <rect id="Rectángulo_341163" data-name="Rectángulo 341163" width="80.038" height="77.435" transform="translate(62.244 95.597)" fill="#f5f5f5"/>
                  <path id="Trazado_633813" data-name="Trazado 633813" d="M68.45,166.4l22.141-39.847,18.11,25.469,11-13.525,16.371,27.9Z" fill="#e0e0e0"/>
                  <path id="Trazado_633814" data-name="Trazado 633814" d="M116.415,118.808a5.76,5.76,0,1,1-5.76-5.76,5.76,5.76,0,0,1,5.76,5.76" fill="#e0e0e0"/>
                  <path id="Trazado_633815" data-name="Trazado 633815" d="M136.077,166.62a2.436,2.436,0,0,1-.019-.318c0-.231-.01-.526-.017-.9q-.015-1.236-.039-3.485c-.019-3.071-.048-7.512-.084-13.151-.041-11.31-.1-27.416-.168-46.754l.327.326-67.62.055c-.091.08.716-.717.375-.371v4.39q0,2.2,0,4.372,0,4.353,0,8.622c0,5.69-.006,11.262-.009,16.686-.012,10.844-.025,21.1-.036,30.529l-.332-.332,48.9.17,13.791.086,3.659.039.948.019a2.247,2.247,0,0,1,.333.019,1.571,1.571,0,0,1-.3.019l-.912.019-3.594.038-13.716.087-49.108.169h-.332v-.334c-.012-9.431-.024-19.685-.037-30.529,0-5.424-.006-11-.01-16.686q0-4.268,0-8.622V102.02c-.34.335.463-.477.388-.392l67.62.053h.329l0,.328c-.069,19.424-.127,35.6-.167,46.962-.036,5.608-.065,10.024-.085,13.077q-.025,2.208-.038,3.422c-.008.361-.014.645-.019.868a1.4,1.4,0,0,1-.018.281" fill="#e0e0e0"/>
                </g>
              </g>
              <g id="Grupo_946558" data-name="Grupo 946558">
                <g id="Grupo_946557" data-name="Grupo 946557" clip-path="url(#clip-path-2)">
                  <path id="Trazado_633816" data-name="Trazado 633816" d="M257.841,153.311l-8-.112.3-21.78a29.13,29.13,0,0,0-58.259.056l-.3,21.836-8-.112.3-21.78a37.13,37.13,0,0,1,74.259.056Z" fill="#263238"/>
                  <path id="Trazado_633817" data-name="Trazado 633817" d="M258.581,251H184.295a18.285,18.285,0,0,1-18.285-18.285V160.981A18.285,18.285,0,0,1,184.295,142.7h74.286a18.285,18.285,0,0,1,18.285,18.285v71.738A18.285,18.285,0,0,1,258.581,251" fill="#f3c035"/>
                  <g id="Grupo_946544" data-name="Grupo 946544" opacity="0.3">
                    <g id="Grupo_946543" data-name="Grupo 946543">
                      <g id="Grupo_946542" data-name="Grupo 946542" clip-path="url(#clip-path-7)">
                        <path id="Trazado_633818" data-name="Trazado 633818" d="M232.489,191.139a11.051,11.051,0,1,0-16.868,9.384l-2.83,13.089h18.126s-2.037-8.223-3.319-13.3a11.037,11.037,0,0,0,4.891-9.175"/>
                      </g>
                    </g>
                  </g>
                  <g id="Grupo_946547" data-name="Grupo 946547" opacity="0.2">
                    <g id="Grupo_946546" data-name="Grupo 946546">
                      <g id="Grupo_946545" data-name="Grupo 946545" clip-path="url(#clip-path-8)">
                        <path id="Trazado_633819" data-name="Trazado 633819" d="M173.107,218.166c-.719-.015-1.037-12.652-.711-28.222s1.173-28.184,1.892-28.169S175.326,174.424,175,190s-1.173,28.182-1.892,28.167" fill="#fff"/>
                      </g>
                    </g>
                  </g>
                  <g id="Grupo_946550" data-name="Grupo 946550" opacity="0.2">
                    <g id="Grupo_946549" data-name="Grupo 946549">
                      <g id="Grupo_946548" data-name="Grupo 946548" clip-path="url(#clip-path-9)">
                        <path id="Trazado_633820" data-name="Trazado 633820" d="M173.188,230.694c-.719.009-1.318-1.22-1.338-2.747s.546-2.771,1.266-2.781,1.317,1.221,1.338,2.747-.547,2.772-1.266,2.781" fill="#fff"/>
                      </g>
                    </g>
                  </g>
                  <g id="Grupo_946553" data-name="Grupo 946553" opacity="0.2">
                    <g id="Grupo_946552" data-name="Grupo 946552">
                      <g id="Grupo_946551" data-name="Grupo 946551" clip-path="url(#clip-path-10)">
                        <path id="Trazado_633821" data-name="Trazado 633821" d="M207.965,215.384c-.574-.188.777-5.946,3.134-13.61l.291,1.268c-1.063-1.065-2.177-2.179-3.338-3.4a12.184,12.184,0,0,1-2.987-7.356,11.323,11.323,0,0,1,1.475-6.245,9.814,9.814,0,0,1,2.811-3.173c.824-.569,1.37-.718,1.469-.58.258.317-1.436,1.655-2.626,4.562a10.7,10.7,0,0,0,1.789,11.045c1.118,1.181,2.2,2.326,3.218,3.4l.535.566-.244.7c-2.636,7.573-4.953,13.014-5.527,12.826" fill="#fff"/>
                      </g>
                    </g>
                  </g>
                  <g id="Grupo_946556" data-name="Grupo 946556" opacity="0.2">
                    <g id="Grupo_946555" data-name="Grupo 946555">
                      <g id="Grupo_946554" data-name="Grupo 946554" clip-path="url(#clip-path-11)">
                        <path id="Trazado_633822" data-name="Trazado 633822" d="M253.726,150.221c0,.36-4.43.652-11.585.833s-17.039.252-27.953.169c-5.459-.042-10.659-.118-15.388-.219-4.734-.055-9.008-.392-12.418-.036a16.026,16.026,0,0,0-7.587,2.564c-1.585,1.087-2.242,2-2.417,1.879-.125-.065.249-1.214,1.781-2.668a15.137,15.137,0,0,1,7.971-3.6,39.832,39.832,0,0,1,5.966-.469l6.722-.072c4.73-.03,9.931-.027,15.39.015,10.914.083,20.8.3,27.947.594s11.574.649,11.571,1.008" fill="#fff"/>
                      </g>
                    </g>
                  </g>
                </g>
              </g>
            </g>
          </g>
          <path id="Trazado_626150" data-name="Trazado 626150" d="M541,435.5c0,.116-121.116.209-270.487.209C121.09,435.713,0,435.619,0,435.5s121.09-.209,270.512-.209c149.371,0,270.487.093,270.487.209" transform="translate(835.163 1911.744)" fill="#263238"/>
          <g id="Grupo_946535" data-name="Grupo 946535" transform="translate(849.054 2068.153)">
            <g id="Grupo_946534" data-name="Grupo 946534" clip-path="url(#clip-path-12)">
              <g id="Grupo_946533" data-name="Grupo 946533">
                <g id="Grupo_946532" data-name="Grupo 946532" clip-path="url(#clip-path-12)">
                  <path id="Trazado_633642" data-name="Trazado 633642" d="M13.609,306.887l-.6,2.338s-8.154,13.806-7.188,15.1a5.087,5.087,0,0,0,5.654,1.839c2.837-.739,14.81-12.575,14.81-12.575l.684-1.892Z" transform="translate(-0.882 -36.517)" fill="#e8e8e8"/>
                  <g id="Grupo_946519" data-name="Grupo 946519" transform="translate(4.756 276.06)" opacity="0.3">
                    <g id="Grupo_946518" data-name="Grupo 946518">
                      <g id="Grupo_946517" data-name="Grupo 946517" clip-path="url(#clip-path-14)">
                        <path id="Trazado_633643" data-name="Trazado 633643" d="M6.617,321.964s3.533-1.626,5.567,3.12c0,0,1.53-.591,5.762-4.281s8.321-7.3,8.321-7.3.438-.362.306,0-.306,1-.306,1l-8.174,7.5s-4.894,4.366-6.122,4.716a5.19,5.19,0,0,1-4.028.053,4.427,4.427,0,0,1-2.327-2.1c0-.219,1-2.714,1-2.714" transform="translate(-5.618 -313.346)"/>
                      </g>
                    </g>
                  </g>
                  <path id="Trazado_633644" data-name="Trazado 633644" d="M12.868,327.736c-.044.01-.131-.47-.433-1.174a6.645,6.645,0,0,0-1.709-2.379,6.3,6.3,0,0,0-2.551-1.332c-.72-.184-1.188-.189-1.188-.236a2.835,2.835,0,0,1,1.227.046,5.758,5.758,0,0,1,2.682,1.311,6.12,6.12,0,0,1,1.713,2.516,3.18,3.18,0,0,1,.259,1.248" transform="translate(-1.073 -38.384)" fill="#263238"/>
                  <path id="Trazado_633645" data-name="Trazado 633645" d="M26.981,312.846a1.051,1.051,0,0,1-.187.2l-.57.531L24.1,315.492l-7.084,6.239a30.178,30.178,0,0,1-4.078,3.227,6.384,6.384,0,0,1-4.055,1,4.052,4.052,0,0,1-2.5-1.321,2.541,2.541,0,0,1-.543-.918,5.658,5.658,0,0,0,.619.844,4.029,4.029,0,0,0,2.45,1.2,6.286,6.286,0,0,0,3.912-1.028,31.541,31.541,0,0,0,4.031-3.219l7.132-6.176,2.181-1.848.6-.492a1.052,1.052,0,0,1,.222-.158" transform="translate(-0.895 -37.226)" fill="#263238"/>
                  <path id="Trazado_633646" data-name="Trazado 633646" d="M15.02,319.163a9.137,9.137,0,0,1-1.508-.976,9.229,9.229,0,0,1-1.465-1.046,4.492,4.492,0,0,1,1.61.815,4.641,4.641,0,0,1,1.364,1.207" transform="translate(-1.849 -37.737)" fill="#263238"/>
                  <path id="Trazado_633647" data-name="Trazado 633647" d="M16.963,316.954a11.221,11.221,0,0,1-1.852-.8,11.313,11.313,0,0,1-1.817-.881,5.643,5.643,0,0,1,1.923.629,5.81,5.81,0,0,1,1.745,1.05" transform="translate(-2.041 -37.514)" fill="#263238"/>
                  <path id="Trazado_633648" data-name="Trazado 633648" d="M18.841,314.979c-.053.062-.791-.611-1.862-1.154s-2.028-.751-2.014-.833a4.2,4.2,0,0,1,2.131.587,4.371,4.371,0,0,1,1.745,1.4" transform="translate(-2.297 -37.241)" fill="#263238"/>
                  <path id="Trazado_633649" data-name="Trazado 633649" d="M20.039,312.73c-.048.064-.735-.455-1.681-.891s-1.773-.629-1.759-.71a3.676,3.676,0,0,1,1.867.459,3.819,3.819,0,0,1,1.573,1.142" transform="translate(-2.548 -37.019)" fill="#263238"/>
                  <path id="Trazado_633650" data-name="Trazado 633650" d="M19.7,310.3a3.293,3.293,0,0,1-1.008-.7,7.592,7.592,0,0,1-.922-.984c-.157-.2-.314-.421-.463-.657a1.763,1.763,0,0,1-.21-.4.56.56,0,0,1,.086-.546.817.817,0,0,1,.924-.11,1.953,1.953,0,0,1,.673.483,2.672,2.672,0,0,1,.62,1.245,3.874,3.874,0,0,1,.083.928c-.008.218-.029.337-.046.337-.049,0-.027-.488-.218-1.216a2.6,2.6,0,0,0-.612-1.116,1.761,1.761,0,0,0-.594-.41.6.6,0,0,0-.632.043c-.131.137-.005.392.144.618s.289.446.436.646a9.419,9.419,0,0,0,.857,1c.529.532.906.809.882.845" transform="translate(-2.619 -36.508)" fill="#263238"/>
                  <path id="Trazado_633651" data-name="Trazado 633651" d="M19.928,310.182a.753.753,0,0,1,.091-.337,3.314,3.314,0,0,1,.484-.809,3.571,3.571,0,0,1,1.068-.885,3.329,3.329,0,0,1,.767-.3,1.016,1.016,0,0,1,.472,0,.524.524,0,0,1,.386.4,1.146,1.146,0,0,1-.35.9,3.2,3.2,0,0,1-1.886,1.085,2.664,2.664,0,0,1-.917.005c-.214-.037-.324-.088-.321-.1a6.232,6.232,0,0,0,1.2-.093,3.2,3.2,0,0,0,1.169-.543,3.133,3.133,0,0,0,.557-.527.939.939,0,0,0,.289-.663c-.035-.2-.307-.247-.549-.191a3.251,3.251,0,0,0-.709.261,3.679,3.679,0,0,0-1.039.788,9.267,9.267,0,0,0-.714,1.016" transform="translate(-3.028 -36.629)" fill="#263238"/>
                  <path id="Trazado_633652" data-name="Trazado 633652" d="M27.353,311.562a1.926,1.926,0,0,0-1.15.063,4.307,4.307,0,0,0-2.054,1.947,4.906,4.906,0,0,0-.544,2.853c.085.759.279,1.2.237,1.22a2.678,2.678,0,0,1-.422-1.193,4.726,4.726,0,0,1,.5-3.015,4.167,4.167,0,0,1,2.226-2,1.207,1.207,0,0,1,1.208.122" transform="translate(-3.585 -37.049)" fill="#263238"/>
                  <path id="Trazado_633653" data-name="Trazado 633653" d="M21.838,317.905a7.265,7.265,0,0,1-1.38,1.4,7.085,7.085,0,0,1-1.551,1.191,7.3,7.3,0,0,1,1.38-1.4,7.107,7.107,0,0,1,1.551-1.192" transform="translate(-2.902 -37.828)" fill="#263238"/>
                  <path id="Trazado_633654" data-name="Trazado 633654" d="M24.269,316.887c.073-.005.17.174.217.4s.027.433-.041.459-.167-.154-.217-.4-.031-.454.041-.459" transform="translate(-3.715 -37.707)" fill="#263238"/>
                  <path id="Trazado_633655" data-name="Trazado 633655" d="M24.479,314.914c.069.026.083.233.032.46s-.153.405-.226.4-.087-.214-.031-.46.157-.424.225-.4" transform="translate(-3.718 -37.472)" fill="#263238"/>
                  <path id="Trazado_633656" data-name="Trazado 633656" d="M25.483,313.232c.057.062-.048.225-.174.418s-.293.307-.356.268,0-.236.15-.44.336-.3.379-.247" transform="translate(-3.827 -37.271)" fill="#263238"/>
                  <path id="Trazado_633657" data-name="Trazado 633657" d="M27.135,312.19c.023.072-.124.212-.326.312s-.4.128-.439.063.106-.2.326-.312.416-.136.439-.063" transform="translate(-4.047 -37.144)" fill="#263238"/>
                  <path id="Trazado_633658" data-name="Trazado 633658" d="M29.094,311.945c-.009.076-.2.139-.422.141s-.414-.059-.424-.135.179-.138.422-.141.433.06.423.135" transform="translate(-4.336 -37.103)" fill="#263238"/>
                  <path id="Trazado_633659" data-name="Trazado 633659" d="M142,58.705c-.52.66-1.271,7.657-1.271,7.657s-12.4,21.992-14.128,22.329-9.245-15.279-9.245-15.279l-7.729,7.4s4.03,19.682,16.627,23.058c5.947,1.594,16.315-18.032,23.245-34.333.111-.261,3.695-9.14,3.695-9.14Z" transform="translate(-16.83 -6.985)" fill="#a56959"/>
                  <path id="Trazado_633660" data-name="Trazado 633660" d="M160.086,61.218c.013.017,0,.1-.042.223-.323,1.053-2.242,5.411-2.836,5.364-.666-.055-1.961-1.058-1.816-1.682s2.573-5.408,2.573-5.408.43-.731,1.767-.344c.826.24.354,1.847.354,1.847" transform="translate(-23.853 -7.051)" fill="#a56959"/>
                  <path id="Trazado_633661" data-name="Trazado 633661" d="M157.888,58.111c.013.017,0,.1-.042.223-.323,1.052-2.242,5.411-2.836,5.363-.666-.054-1.961-1.057-1.816-1.681s2.573-5.408,2.573-5.408.43-.731,1.767-.344c.826.24.354,1.847.354,1.847" transform="translate(-23.515 -6.682)" fill="#a56959"/>
                  <path id="Trazado_633662" data-name="Trazado 633662" d="M155.359,55.929c.013.017,0,.1-.042.223-.323,1.052-2.242,5.411-2.836,5.363-.666-.054-1.961-1.057-1.816-1.681s2.573-5.408,2.573-5.408.43-.731,1.767-.344c.826.24.354,1.847.354,1.847" transform="translate(-23.127 -6.422)" fill="#a56959"/>
                  <path id="Trazado_633663" data-name="Trazado 633663" d="M152.822,53.808c.013.017,0,.1-.042.223-.323,1.052-2.242,5.411-2.836,5.363-.666-.054-1.961-1.057-1.816-1.681s2.573-5.408,2.573-5.408.43-.731,1.767-.344c.826.24.354,1.847.354,1.847" transform="translate(-22.738 -6.17)" fill="#a56959"/>
                  <path id="Trazado_633664" data-name="Trazado 633664" d="M156.01,63.882a9.55,9.55,0,0,0,1.1-2.045,9.126,9.126,0,0,0,.829-2.143,9.516,9.516,0,0,0-1.1,2.046,9.157,9.157,0,0,0-.829,2.143" transform="translate(-23.948 -7.103)" fill="#7c4435"/>
                  <path id="Trazado_633665" data-name="Trazado 633665" d="M153.068,62.362a18.68,18.68,0,0,0,1.521-2.928,18.871,18.871,0,0,0,1.26-3.059,18.644,18.644,0,0,0-1.521,2.928,18.861,18.861,0,0,0-1.26,3.06" transform="translate(-23.497 -6.708)" fill="#7c4435"/>
                  <g id="Grupo_946522" data-name="Grupo 946522" transform="translate(127.132 48.291)" opacity="0.78">
                    <g id="Grupo_946521" data-name="Grupo 946521">
                      <g id="Grupo_946520" data-name="Grupo 946520" clip-path="url(#clip-path-15)">
                        <path id="Trazado_633666" data-name="Trazado 633666" d="M150.193,60.8a18.679,18.679,0,0,0,1.521-2.928,18.871,18.871,0,0,0,1.26-3.059,18.6,18.6,0,0,0-1.521,2.928,18.862,18.862,0,0,0-1.26,3.06" transform="translate(-150.187 -54.813)" fill="#7c4435"/>
                      </g>
                    </g>
                  </g>
                  <path id="Trazado_633667" data-name="Trazado 633667" d="M147.72,67.212l-.846-3.866a6.954,6.954,0,0,1,.759-4.949l.655-1.135,8.1,4.261s-2.022,2.743-4.061,1.127l1.487,3.334Z" transform="translate(-22.522 -6.814)" fill="#a56959"/>
                  <path id="Trazado_633668" data-name="Trazado 633668" d="M153.364,66.3c-.05-.006.036-.448-.077-1.2a4.346,4.346,0,0,0-1.458-2.644l-.774-.648.948.319,2.1.708-.046-.011a2.418,2.418,0,0,0,2.431-1.05,1.551,1.551,0,0,0,.1-.2l.117.286c-2.341-1.1-4.44-2.136-5.913-2.972a13.024,13.024,0,0,1-2.311-1.471,22.5,22.5,0,0,1,2.451,1.186c1.5.759,3.611,1.737,5.955,2.839l.19.089-.074.2a1.833,1.833,0,0,1-.133.277,2.5,2.5,0,0,1-1.31,1.089,3.366,3.366,0,0,1-1.54.158l-.024,0-.022-.008-2.085-.757.174-.329a4.391,4.391,0,0,1,1.436,2.913,2.379,2.379,0,0,1-.133,1.225" transform="translate(-22.793 -6.833)" fill="#7c4435"/>
                  <path id="Trazado_633669" data-name="Trazado 633669" d="M156.718,62.977c.084.01-.072.47.031,1.1.062.294.28.648.615.673a1.162,1.162,0,0,0,.988-.648c.538-.889,1.084-1.7,1.412-2.291s.508-.995.571-.972a2.315,2.315,0,0,1-.293,1.119,20.185,20.185,0,0,1-1.33,2.408,1.506,1.506,0,0,1-1.4.8,1.124,1.124,0,0,1-.87-1.038,2,2,0,0,1,.12-.873c.069-.189.127-.285.156-.277" transform="translate(-24.014 -7.239)" fill="#7c4435"/>
                  <path id="Trazado_633670" data-name="Trazado 633670" d="M104.45,118.887s-6.9-17.685-6.871-18.016l1.786-6.578.725-3.809,2.333,2.823,11.4-12.4c.21.3-5.161-7.82-10.6-15.766-3.795-5.539-7.9-6.755-10.3-6.931a15.9,15.9,0,0,0-3.055-.65l-19.622-.174a18.084,18.084,0,0,0-11.71,4.468c-.9.774-8.424,11.176-13.548,21.463L60.766,95.173l2.6-4.763.011.1c.218,1.615,1.152,6.323,1.461,7.923.957,4.964,1.258,10.936-1.063,15.034a128.529,128.529,0,0,0-4.523,14.05h48.413s-1.561-4.372-3.217-8.626" transform="translate(-6.906 -6.828)" fill="#6aceae"/>
                  <path id="Trazado_633671" data-name="Trazado 633671" d="M64.024,115.115l-1.663-1.39c-.009-.1-.014-.159-.014-.159l-.068.09-10.958-9.164,4.7-8.062L44.678,87.807c.052.573-10.527,16.884-9.1,20.089,2.024,4.531,15.764,13.588,21.388,17.157a34.543,34.543,0,0,0-4.542.93C51,126.474,55.667,127.762,56.8,128c.444.094,1.348-.637,2.313-1.607l.26.159.3-.744a33.488,33.488,0,0,0,2.881-3.5,12.823,12.823,0,0,0,.138-3.917Z" transform="translate(-5.442 -10.448)" fill="#a56959"/>
                  <path id="Trazado_633672" data-name="Trazado 633672" d="M137.941,312.1l-.061-1.668-16.23.488.141,5.5,1,.034c4.465.115,22.714.279,25.668-.677,3.3-1.069-10.522-3.676-10.522-3.676" transform="translate(-18.675 -36.939)" fill="#f6f6f6"/>
                  <g id="Grupo_946525" data-name="Grupo 946525" transform="translate(102.998 274.857)" opacity="0.3">
                    <g id="Grupo_946524" data-name="Grupo 946524">
                      <g id="Grupo_946523" data-name="Grupo 946523" clip-path="url(#clip-path-16)">
                        <path id="Trazado_633673" data-name="Trazado 633673" d="M127.649,316.316a5.409,5.409,0,0,0-2.161-3.276,5.578,5.578,0,0,0-3.811-1.031l.127,4.369Z" transform="translate(-121.677 -311.981)"/>
                      </g>
                    </g>
                  </g>
                  <g id="Grupo_946528" data-name="Grupo 946528" transform="translate(103.116 276.666)" opacity="0.3">
                    <g id="Grupo_946527" data-name="Grupo 946527">
                      <g id="Grupo_946526" data-name="Grupo 946526" clip-path="url(#clip-path-17)">
                        <path id="Trazado_633674" data-name="Trazado 633674" d="M144.725,314.034s4.852,1.209,4.274,1.992-19.025,1.289-27.182.822l.016-.35,21.523-.411s.43-1.988,1.37-2.053" transform="translate(-121.816 -314.034)"/>
                      </g>
                    </g>
                  </g>
                  <path id="Trazado_633675" data-name="Trazado 633675" d="M121.534,316.728a1.435,1.435,0,0,0,.278.021l.8.026,2.941.041c2.483.018,5.914,0,9.7-.1s7.215-.265,9.693-.416l2.933-.2.8-.068a1.406,1.406,0,0,0,.277-.036,1.57,1.57,0,0,0-.279,0l-.8.032-2.936.138c-2.479.116-5.905.259-9.691.36s-7.213.14-9.695.156l-2.94.018-.8.011a1.565,1.565,0,0,0-.279.017" transform="translate(-18.657 -37.601)" fill="#263238"/>
                  <path id="Trazado_633676" data-name="Trazado 633676" d="M147.258,316.3a6.3,6.3,0,0,1,.509-1.372,6.475,6.475,0,0,1,.969-1.115,2.152,2.152,0,0,0-1.139,1.02,2.049,2.049,0,0,0-.339,1.466" transform="translate(-22.601 -37.341)" fill="#263238"/>
                  <path id="Trazado_633677" data-name="Trazado 633677" d="M141.549,313.952c.047.026.267-.248.492-.614s.37-.684.323-.71-.267.248-.492.613-.37.685-.323.711" transform="translate(-21.728 -37.2)" fill="#263238"/>
                  <path id="Trazado_633678" data-name="Trazado 633678" d="M139.982,313.289c.037.038.288-.134.559-.383s.461-.483.424-.521-.288.134-.559.383-.461.483-.424.521" transform="translate(-21.488 -37.171)" fill="#263238"/>
                  <path id="Trazado_633679" data-name="Trazado 633679" d="M138.955,311.747a3.8,3.8,0,0,0,1.689-.028,3.829,3.829,0,0,0-1.689.028" transform="translate(-21.331 -37.083)" fill="#263238"/>
                  <path id="Trazado_633680" data-name="Trazado 633680" d="M138.583,310.588a1.669,1.669,0,0,0,.948.239,1.692,1.692,0,0,0,.968-.151,5.348,5.348,0,0,0-.958-.038,5.408,5.408,0,0,0-.958-.049" transform="translate(-21.274 -36.956)" fill="#263238"/>
                  <path id="Trazado_633681" data-name="Trazado 633681" d="M142.152,312.368a3.1,3.1,0,0,0,1.038-.035,6.294,6.294,0,0,0,1.1-.265,3.1,3.1,0,0,0,.626-.27.545.545,0,0,0,.248-.319.391.391,0,0,0-.169-.4,1.941,1.941,0,0,0-2.339.6,1.766,1.766,0,0,0-.319.68.557.557,0,0,0-.019.272,2.806,2.806,0,0,1,.449-.87,1.865,1.865,0,0,1,.87-.581,1.656,1.656,0,0,1,1.24.048c.168.114.109.3-.071.413a3.116,3.116,0,0,1-.576.257,7.3,7.3,0,0,1-1.061.3c-.619.123-1.014.136-1.013.167" transform="translate(-21.822 -36.996)" fill="#263238"/>
                  <path id="Trazado_633682" data-name="Trazado 633682" d="M142.217,312.355a.963.963,0,0,0,.1-.7,1.614,1.614,0,0,0-.3-.726,1.047,1.047,0,0,0-.88-.488.4.4,0,0,0-.306.472,1.1,1.1,0,0,0,.19.444,3.054,3.054,0,0,0,.509.595,1.5,1.5,0,0,0,.605.39c.018-.025-.212-.174-.507-.485a3.525,3.525,0,0,1-.453-.591c-.148-.209-.257-.587,0-.64.26-.032.532.211.7.407a1.633,1.633,0,0,1,.312.646,3.549,3.549,0,0,1,.037.677" transform="translate(-21.617 -36.94)" fill="#263238"/>
                  <path id="Trazado_633683" data-name="Trazado 633683" d="M121.776,311.944c0,.035.461-.055,1.194.008a5.329,5.329,0,0,1,2.634.967,5.065,5.065,0,0,1,1.693,2.18c.266.664.3,1.114.339,1.108a.88.88,0,0,0-.008-.315,4.045,4.045,0,0,0-.2-.839,4.841,4.841,0,0,0-1.706-2.286,5.1,5.1,0,0,0-2.743-.95,4.387,4.387,0,0,0-.888.047.948.948,0,0,0-.316.079" transform="translate(-18.694 -37.104)" fill="#263238"/>
                  <path id="Trazado_633684" data-name="Trazado 633684" d="M131.082,315.1a13.716,13.716,0,0,0,4.723-.085c-.007-.056-1.06.036-2.361.058s-2.357-.027-2.362.027" transform="translate(-20.123 -37.482)" fill="#263238"/>
                  <path id="Trazado_633685" data-name="Trazado 633685" d="M127.339,315.2c-.038.04.092.214.207.445s.179.438.235.433.075-.249-.059-.515-.35-.4-.383-.362" transform="translate(-19.547 -37.506)" fill="#263238"/>
                  <path id="Trazado_633686" data-name="Trazado 633686" d="M125.88,313.607c-.037.038.072.2.244.357s.341.258.379.22-.072-.2-.244-.357-.342-.258-.379-.22" transform="translate(-19.323 -37.316)" fill="#263238"/>
                  <path id="Trazado_633687" data-name="Trazado 633687" d="M123.841,312.9c.013.053.228.045.467.12s.414.192.455.155-.1-.249-.4-.337-.543.014-.525.062" transform="translate(-19.011 -37.222)" fill="#263238"/>
                  <path id="Trazado_633688" data-name="Trazado 633688" d="M122.394,312.6c-.018.049.077.127.212.174s.26.045.278,0-.077-.128-.212-.174-.261-.044-.279.005" transform="translate(-18.788 -37.192)" fill="#263238"/>
                  <path id="Trazado_633689" data-name="Trazado 633689" d="M79.97,10.087a5.729,5.729,0,0,0-6.9-.556A26.892,26.892,0,0,1,70.082,11.8c-1.867.893-4.067.2-6.1.536a6.643,6.643,0,0,0-5.225,6.728c.085,1.693.781,3.515-.012,5-.7,1.3-2.26,1.756-3.372,2.7a5.161,5.161,0,0,0-.669,6.814,24.719,24.719,0,0,1,1.9,2.121c.8,1.292.685,2.945.886,4.467S58.549,43.4,60.021,43.5c1.187.081,2.252-.955,3.438-.855,1.663.142,2.342,2.215,3.3,3.634a5.824,5.824,0,0,0,5.515,2.5c1.512-.214,3.008-1.046,4.487-.655,1.859.492,2.975,2.759,4.874,3.043,1.414.211,2.721-.766,3.77-1.775s2.116-2.158,3.521-2.421c1.691-.315,3.319.749,5.021.992a5.614,5.614,0,0,0,5.6-2.922c.936-1.765.933-3.93,1.807-5.729a32.262,32.262,0,0,1,2.257-3.291,4.566,4.566,0,0,0,.813-3.809c-.307-.915-1.052-1.607-1.414-2.5-.541-1.338-.144-2.857,0-4.3s-.142-3.2-1.414-3.792a12.629,12.629,0,0,1-1.629-.565c-.99-.64-.937-2.111-1.028-3.32a5.574,5.574,0,0,0-2.4-4.442,3.193,3.193,0,0,0-4.42,1.141" transform="translate(-8.247 -1.027)" fill="#263238"/>
                  <path id="Trazado_633690" data-name="Trazado 633690" d="M73.3,26.448a12.071,12.071,0,0,1-.62-9.556,11.416,11.416,0,0,1,6.559-6.719,16.792,16.792,0,0,1,6.642-.806A13.408,13.408,0,0,1,91.47,10.56a6.255,6.255,0,0,1,3.463,4.485" transform="translate(-11.049 -1.111)" fill="#6aceae"/>
                  <path id="Trazado_633691" data-name="Trazado 633691" d="M84.651,62.7h0a7.9,7.9,0,0,0,8.365-7.76c.163-4.406.3-8.859.3-8.859s6.414-.625,6.879-7.232.252-21.859.252-21.859a21.385,21.385,0,0,0-22.355,1.5l-.985.694.36,35.537A7.964,7.964,0,0,0,84.651,62.7" transform="translate(-11.838 -1.728)" fill="#a56959"/>
                  <path id="Trazado_633692" data-name="Trazado 633692" d="M101.07,30.294a.99.99,0,0,1,.016-1.36.9.9,0,0,1,1.307.017.991.991,0,0,1-.016,1.36.9.9,0,0,1-1.307-.017" transform="translate(-15.475 -3.41)" fill="#263238"/>
                  <path id="Trazado_633693" data-name="Trazado 633693" d="M103.459,29.107c-.106.108-.7-.431-1.575-.491s-1.537.37-1.627.248c-.045-.056.067-.255.356-.457a2.093,2.093,0,0,1,2.556.195c.259.243.341.458.289.506" transform="translate(-15.389 -3.339)" fill="#263238"/>
                  <path id="Trazado_633694" data-name="Trazado 633694" d="M91.055,29.077a.987.987,0,0,1,.225,1.34.9.9,0,0,1-1.288.234.987.987,0,0,1-.225-1.34.9.9,0,0,1,1.288-.234" transform="translate(-13.755 -3.439)" fill="#263238"/>
                  <path id="Trazado_633695" data-name="Trazado 633695" d="M92.184,29.347a1.76,1.76,0,0,0-1.575-.491c-.874-.073-1.537.37-1.627.248-.045-.056.067-.255.356-.457a2.093,2.093,0,0,1,2.556.195c.259.243.341.458.289.506" transform="translate(-13.658 -3.368)" fill="#263238"/>
                  <path id="Trazado_633696" data-name="Trazado 633696" d="M96.426,36.44a4.113,4.113,0,0,1,1.433-.223c.23-.011.413-.054.438-.181a1.35,1.35,0,0,0-.124-.692l-.583-1.894a26.2,26.2,0,0,1-1.213-4.959A26.1,26.1,0,0,1,98.065,33.3c.189.658.369,1.285.547,1.907a1.58,1.58,0,0,1,.067,1,.607.607,0,0,1-.416.355,1.424,1.424,0,0,1-.394.028,4.1,4.1,0,0,1-1.442-.144" transform="translate(-14.792 -3.39)" fill="#263238"/>
                  <path id="Trazado_633697" data-name="Trazado 633697" d="M94.8,49.829a14.4,14.4,0,0,1-8.14-2.974s1.679,4.883,8.053,4.689Z" transform="translate(-13.304 -5.575)" fill="#7c4435"/>
                  <path id="Trazado_633698" data-name="Trazado 633698" d="M83.932,14.219a6.119,6.119,0,0,0,5.087,5.448c1.562.194,3.25-.256,4.654.48a8.368,8.368,0,0,1,2.375,2.486,3.748,3.748,0,0,0,2.81,1.751,7.511,7.511,0,0,0,1.591-.391,1.8,1.8,0,0,1,1.574.176,13.228,13.228,0,0,0,.939-6.156A5.642,5.642,0,0,0,99.457,13.3c-1.261-.391-2.625-.142-3.922-.375a12.581,12.581,0,0,1-3.045-1.168,9.228,9.228,0,0,0-5.236-1.161,3.978,3.978,0,0,0-3.468,3.7" transform="translate(-12.862 -1.253)" fill="#263238"/>
                  <path id="Trazado_633699" data-name="Trazado 633699" d="M76.994,32.4c2.3,1.925,5.076-3.061,6.306-6.19a31.789,31.789,0,0,0,1.786-9.994A5.127,5.127,0,0,0,84.529,13c-.659-.927-.952.212-1.67-.659-1.41-1.711-4.021-.788-5.306-.207-2.141.968-3.481,3.455-3.9,5.984a25.783,25.783,0,0,0,.268,7.671q.237,1.742.474,3.483a5.867,5.867,0,0,0,.663,2.355,1.589,1.589,0,0,0,1.939.778" transform="translate(-11.276 -1.351)" fill="#263238"/>
                  <path id="Trazado_633700" data-name="Trazado 633700" d="M76.768,28.942a.982.982,0,0,0-.918-1c-1.185-.033-3.124.458-3.3,3.863-.256,4.863,4.238,3.646,4.253,3.507.012-.108-.019-4.481-.032-6.371" transform="translate(-11.135 -3.325)" fill="#a56959"/>
                  <path id="Trazado_633701" data-name="Trazado 633701" d="M75.993,33.612c-.019-.017-.085.055-.225.113a.788.788,0,0,1-.609-.022,2.132,2.132,0,0,1-.833-1.934,2.9,2.9,0,0,1,.292-1.2.955.955,0,0,1,.647-.615.412.412,0,0,1,.468.26c.055.139.02.234.045.244s.1-.076.078-.278a.549.549,0,0,0-.168-.315.6.6,0,0,0-.444-.15,1.153,1.153,0,0,0-.89.706A2.973,2.973,0,0,0,74,31.76a2.224,2.224,0,0,0,1.077,2.168.845.845,0,0,0,.751-.086c.152-.112.182-.219.166-.229" transform="translate(-11.36 -3.536)" fill="#7c4435"/>
                  <path id="Trazado_633702" data-name="Trazado 633702" d="M93.771,38.757a1.376,1.376,0,0,0,.417,1.743,1.258,1.258,0,0,0,1.689-.371,1.379,1.379,0,0,0-.295-1.769,1.255,1.255,0,0,0-1.71.241" transform="translate(-14.372 -4.537)" fill="#7c4435"/>
                  <path id="Trazado_633703" data-name="Trazado 633703" d="M96.6,39.736a2.355,2.355,0,0,1-1.981-.069c-1.076-.395-1.664-1.179-1.574-1.253.089-.1.753.47,1.722.821.964.367,1.822.366,1.833.5" transform="translate(-14.282 -4.57)" fill="#263238"/>
                  <path id="Trazado_633704" data-name="Trazado 633704" d="M82.558,9.168c-1.729-.252-2.964-2.01-3.254-3.8A13.186,13.186,0,0,1,79.915,0a7.767,7.767,0,0,1,2.911,4.3A8.055,8.055,0,0,1,82.4,9.544" transform="translate(-12.16 0)" fill="#6aceae"/>
                  <path id="Trazado_633705" data-name="Trazado 633705" d="M83.029,9.526a3.2,3.2,0,0,1,1.446-3.484,6.019,6.019,0,0,1,3.811-.7.624.624,0,0,1,.323.092.62.62,0,0,1,.2.418,3.408,3.408,0,0,1-1.822,3.276,9.222,9.222,0,0,1-3.745.916,1.087,1.087,0,0,1-.6-.054.412.412,0,0,1-.212-.521" transform="translate(-12.648 -0.631)" fill="#6aceae"/>
                  <path id="Trazado_633706" data-name="Trazado 633706" d="M108.408,18.942c-.021,0-.03-.093-.113-.231a.792.792,0,0,0-.574-.332.707.707,0,0,0-.809.473,1.063,1.063,0,0,0,.525,1.171,1.193,1.193,0,0,0,1.438-.482A2.088,2.088,0,0,0,109,17.606a3.263,3.263,0,0,0-3.786-1.951l-.258.084-1.175.382.964-.779a2.04,2.04,0,0,0,.555-2.109,2.427,2.427,0,0,0-1.444-1.523,3.93,3.93,0,0,0-3.57.545c-.464.29-.852.633-1.248.869a2.191,2.191,0,0,1-1.118.36c-.675,0-.933-.371-.906-.37a1.622,1.622,0,0,0,.9.194,2.112,2.112,0,0,0,1-.4c.361-.24.731-.6,1.211-.923a5.318,5.318,0,0,1,1.711-.788,3.518,3.518,0,0,1,2.17.122,2.826,2.826,0,0,1,1.709,1.785,2.487,2.487,0,0,1-.7,2.6l-.211-.4.3-.1a3.652,3.652,0,0,1,4.279,2.245,2.476,2.476,0,0,1-.22,2.319,1.506,1.506,0,0,1-1.872.536,1.342,1.342,0,0,1-.613-1.543.848.848,0,0,1,.494-.523,1.006,1.006,0,0,1,.576-.041.862.862,0,0,1,.624.463c.069.176.043.277.036.276" transform="translate(-14.893 -1.318)" fill="#263238"/>
                  <path id="Trazado_633707" data-name="Trazado 633707" d="M55.194,26.527a.958.958,0,0,1,.458.028,1.821,1.821,0,0,1,1.043.831,1.994,1.994,0,0,1,.3.965A1.657,1.657,0,0,1,56.6,29.5a1.965,1.965,0,0,1-1.19.651,1.765,1.765,0,0,1-1.462-.418,3.34,3.34,0,0,1-.506-3.4,4.7,4.7,0,0,1,2.626-2.893c.65-.261,1.337-.362,1.978-.573a2.409,2.409,0,0,0,1.531-1.184,3.634,3.634,0,0,0,.24-2.107,12.758,12.758,0,0,0-.594-2.237,7.769,7.769,0,0,1-.452-2.384,3.454,3.454,0,0,1,.812-2.249,4.019,4.019,0,0,1,1.879-1.236,5.075,5.075,0,0,1,2.106-.158c1.384.147,2.523.875,3.64,1.054a2.383,2.383,0,0,0,1.558-.223,4.557,4.557,0,0,0,1.166-1.006A6.82,6.82,0,0,1,72,9.259a3.813,3.813,0,0,1,2.053-.353,3.488,3.488,0,0,1,1.26.38,1.969,1.969,0,0,1,.293.181c.063.046.092.072.088.079a4.836,4.836,0,0,0-1.654-.463,3.728,3.728,0,0,0-1.932.407,6.757,6.757,0,0,0-1.944,1.866,4.81,4.81,0,0,1-1.238,1.1,2.712,2.712,0,0,1-1.77.286c-1.232-.193-2.34-.892-3.631-1.01A3.979,3.979,0,0,0,59.913,13a2.994,2.994,0,0,0-.7,1.959,7.383,7.383,0,0,0,.433,2.237,13.014,13.014,0,0,1,.609,2.317,4.079,4.079,0,0,1-.293,2.38,2.833,2.833,0,0,1-1.788,1.393c-.689.218-1.364.314-1.959.549a4.329,4.329,0,0,0-2.425,2.623,3.016,3.016,0,0,0,.371,3.032,1.635,1.635,0,0,0,2.259-.166,1.587,1.587,0,0,0,.128-1.847,1.8,1.8,0,0,0-.924-.834c-.272-.1-.432-.093-.431-.117" transform="translate(-8.169 -1.057)" fill="#263238"/>
                  <path id="Trazado_633708" data-name="Trazado 633708" d="M87.315,34.164a.2.2,0,0,1-.274-.1.216.216,0,0,1,.135-.266.2.2,0,0,1,.274.1.217.217,0,0,1-.135.266" transform="translate(-13.36 -4.02)" fill="#263238"/>
                  <path id="Trazado_633709" data-name="Trazado 633709" d="M89.29,33.982a.238.238,0,0,1-.253-.22.243.243,0,0,1,.184-.285.236.236,0,0,1,.253.22.244.244,0,0,1-.184.285" transform="translate(-13.668 -3.983)" fill="#263238"/>
                  <path id="Trazado_633710" data-name="Trazado 633710" d="M91.093,34.382a.267.267,0,0,1-.184-.318c.019-.159.133-.276.254-.26a.266.266,0,0,1,.184.317c-.019.16-.133.277-.254.261" transform="translate(-13.955 -4.022)" fill="#263238"/>
                  <path id="Trazado_633711" data-name="Trazado 633711" d="M88.968,35.633a.217.217,0,1,1,.22-.217.218.218,0,0,1-.22.217" transform="translate(-13.624 -4.189)" fill="#263238"/>
                  <path id="Trazado_633712" data-name="Trazado 633712" d="M101.421,34.64a.237.237,0,0,1-.252-.222.244.244,0,0,1,.185-.285.237.237,0,0,1,.252.222.243.243,0,0,1-.185.285" transform="translate(-15.53 -4.061)" fill="#263238"/>
                  <path id="Trazado_633713" data-name="Trazado 633713" d="M102.756,34.7c-.115-.041-.163-.218-.1-.4s.2-.292.312-.252.163.218.1.4-.2.292-.312.252" transform="translate(-15.754 -4.05)" fill="#263238"/>
                  <path id="Trazado_633714" data-name="Trazado 633714" d="M102.088,36.524a.244.244,0,0,1-.181-.287.237.237,0,0,1,.255-.218.244.244,0,0,1,.181.287.237.237,0,0,1-.255.218" transform="translate(-15.643 -4.286)" fill="#263238"/>
                  <path id="Trazado_633715" data-name="Trazado 633715" d="M122.281,289.97l-19.1-144.008-.537-9.3-47.781-2.359-1.993,7.83C46.165,166.732,12.29,285.68,12.29,285.68l16.551,5.434L78.1,154.822l22.935,134.9Z" transform="translate(-1.887 -15.982)" fill="#263238"/>
                  <path id="Trazado_633716" data-name="Trazado 633716" d="M116.1,135.228c-.121.012-.247-.272-.28-.635s.037-.668.158-.68.246.272.28.636-.037.667-.158.679" transform="translate(-17.779 -15.935)" fill="#455a64"/>
                  <path id="Trazado_633717" data-name="Trazado 633717" d="M116.679,141c-.121.012-.276-.564-.346-1.287s-.028-1.321.093-1.333.276.564.345,1.287.029,1.321-.092,1.333" transform="translate(-17.853 -16.466)" fill="#455a64"/>
                  <path id="Trazado_633718" data-name="Trazado 633718" d="M117.295,146.946c-.121.013-.278-.562-.351-1.285s-.034-1.321.087-1.334.278.563.351,1.286.034,1.32-.087,1.333" transform="translate(-17.946 -17.174)" fill="#455a64"/>
                  <path id="Trazado_633719" data-name="Trazado 633719" d="M117.934,152.889c-.121.014-.28-.561-.356-1.284s-.039-1.321.082-1.334.281.561.356,1.284.039,1.32-.082,1.334" transform="translate(-18.043 -17.881)" fill="#455a64"/>
                  <path id="Trazado_633720" data-name="Trazado 633720" d="M118.6,158.831c-.121.014-.283-.56-.361-1.283s-.043-1.32.078-1.334.282.56.361,1.283.043,1.32-.078,1.334" transform="translate(-18.144 -18.588)" fill="#455a64"/>
                  <path id="Trazado_633721" data-name="Trazado 633721" d="M119.28,164.769c-.121.015-.284-.559-.365-1.281s-.048-1.32.073-1.335.284.559.365,1.282.048,1.319-.073,1.334" transform="translate(-18.248 -19.295)" fill="#455a64"/>
                  <path id="Trazado_633722" data-name="Trazado 633722" d="M119.982,170.7c-.121.015-.286-.558-.369-1.28s-.052-1.32.069-1.335.286.559.369,1.28.052,1.32-.069,1.335" transform="translate(-18.355 -20.001)" fill="#455a64"/>
                  <path id="Trazado_633723" data-name="Trazado 633723" d="M120.7,176.64c-.121.015-.288-.558-.372-1.279s-.055-1.319.065-1.335.288.558.372,1.279.056,1.319-.065,1.335" transform="translate(-18.464 -20.708)" fill="#455a64"/>
                  <path id="Trazado_633724" data-name="Trazado 633724" d="M121.438,182.572c-.121.016-.289-.557-.375-1.278s-.059-1.319.062-1.335.289.557.375,1.278.059,1.319-.062,1.335" transform="translate(-18.577 -21.414)" fill="#455a64"/>
                  <path id="Trazado_633725" data-name="Trazado 633725" d="M122.187,188.5c-.121.016-.29-.556-.378-1.277s-.062-1.319.059-1.335.29.556.378,1.277.062,1.319-.059,1.335" transform="translate(-18.691 -22.12)" fill="#455a64"/>
                  <path id="Trazado_633726" data-name="Trazado 633726" d="M122.949,194.432c-.121.016-.291-.555-.381-1.277s-.064-1.319.057-1.335.291.555.381,1.276.064,1.32-.057,1.336" transform="translate(-18.807 -22.825)" fill="#455a64"/>
                  <path id="Trazado_633727" data-name="Trazado 633727" d="M123.723,200.359c-.121.017-.292-.555-.383-1.276s-.067-1.319.054-1.336.292.555.383,1.276.067,1.319-.054,1.336" transform="translate(-18.926 -23.531)" fill="#455a64"/>
                  <path id="Trazado_633728" data-name="Trazado 633728" d="M124.505,206.286c-.121.017-.293-.554-.384-1.275s-.069-1.319.052-1.336.293.554.385,1.275.069,1.319-.052,1.336" transform="translate(-19.045 -24.236)" fill="#455a64"/>
                  <path id="Trazado_633729" data-name="Trazado 633729" d="M125.295,212.212c-.121.017-.294-.554-.386-1.275s-.07-1.319.051-1.336.294.554.386,1.275.07,1.319-.051,1.336" transform="translate(-19.166 -24.941)" fill="#455a64"/>
                  <path id="Trazado_633730" data-name="Trazado 633730" d="M126.09,218.138c-.121.017-.294-.553-.387-1.274s-.071-1.319.049-1.336.295.553.388,1.274.07,1.319-.05,1.336" transform="translate(-19.288 -25.646)" fill="#455a64"/>
                  <path id="Trazado_633731" data-name="Trazado 633731" d="M126.89,224.062c-.121.017-.295-.553-.388-1.274s-.072-1.319.048-1.336.295.553.389,1.274.071,1.319-.049,1.336" transform="translate(-19.411 -26.351)" fill="#455a64"/>
                  <path id="Trazado_633732" data-name="Trazado 633732" d="M127.693,229.986c-.121.017-.295-.553-.389-1.274s-.072-1.319.049-1.336.294.553.388,1.274.073,1.319-.048,1.336" transform="translate(-19.534 -27.056)" fill="#455a64"/>
                  <path id="Trazado_633733" data-name="Trazado 633733" d="M128.513,235.9c-.12.019-.3-.551-.4-1.27s-.081-1.318.04-1.335.3.552.4,1.27.08,1.316-.04,1.335" transform="translate(-19.657 -27.761)" fill="#455a64"/>
                  <path id="Trazado_633734" data-name="Trazado 633734" d="M129.385,241.809c-.12.018-.3-.548-.4-1.266s-.089-1.316.031-1.335.3.548.4,1.267.088,1.315-.032,1.334" transform="translate(-19.789 -28.464)" fill="#455a64"/>
                  <path id="Trazado_633735" data-name="Trazado 633735" d="M130.273,247.714c-.12.019-.3-.548-.406-1.267s-.091-1.318.03-1.336.3.548.406,1.267.091,1.318-.03,1.336" transform="translate(-19.925 -29.167)" fill="#455a64"/>
                  <path id="Trazado_633736" data-name="Trazado 633736" d="M131.166,253.624c-.121.018-.3-.548-.408-1.266s-.091-1.316.029-1.336.3.548.407,1.267.092,1.315-.028,1.335" transform="translate(-20.062 -29.87)" fill="#455a64"/>
                  <path id="Trazado_633737" data-name="Trazado 633737" d="M132.061,259.526c-.12.019-.3-.547-.407-1.265s-.092-1.315.028-1.335.3.548.407,1.266.092,1.315-.028,1.334" transform="translate(-20.199 -30.572)" fill="#455a64"/>
                  <path id="Trazado_633738" data-name="Trazado 633738" d="M132.958,265.428c-.12.019-.3-.548-.408-1.266s-.092-1.315.028-1.335.3.548.408,1.266.092,1.315-.028,1.335" transform="translate(-20.337 -31.274)" fill="#455a64"/>
                  <path id="Trazado_633739" data-name="Trazado 633739" d="M133.857,271.334c-.12.019-.3-.548-.408-1.267s-.093-1.316.028-1.336.3.548.408,1.267.092,1.316-.028,1.336" transform="translate(-20.475 -31.977)" fill="#455a64"/>
                  <path id="Trazado_633740" data-name="Trazado 633740" d="M134.757,277.248c-.121.019-.3-.549-.409-1.269s-.093-1.318.027-1.337.3.549.409,1.269.093,1.318-.027,1.337" transform="translate(-20.613 -32.68)" fill="#455a64"/>
                  <path id="Trazado_633741" data-name="Trazado 633741" d="M135.655,283.158c-.12.019-.3-.549-.408-1.267s-.092-1.318.028-1.336.3.548.408,1.267.092,1.317-.028,1.336" transform="translate(-20.751 -33.384)" fill="#455a64"/>
                  <path id="Trazado_633742" data-name="Trazado 633742" d="M136.552,289.069c-.12.018-.3-.549-.408-1.268s-.092-1.317.029-1.336.3.548.407,1.267.092,1.317-.028,1.336" transform="translate(-20.889 -34.087)" fill="#455a64"/>
                  <path id="Trazado_633743" data-name="Trazado 633743" d="M137.447,294.98c-.12.019-.3-.549-.407-1.268s-.091-1.317.029-1.336.3.549.407,1.268.091,1.318-.029,1.336" transform="translate(-21.026 -34.791)" fill="#455a64"/>
                  <path id="Trazado_633744" data-name="Trazado 633744" d="M138.339,300.894c-.12.018-.3-.549-.406-1.269s-.091-1.318.03-1.336.3.549.406,1.269.091,1.318-.03,1.336" transform="translate(-21.163 -35.494)" fill="#455a64"/>
                  <path id="Trazado_633745" data-name="Trazado 633745" d="M139.221,306.812c-.12.018-.3-.55-.4-1.27s-.088-1.319.032-1.337.3.55.4,1.27.088,1.319-.032,1.337" transform="translate(-21.3 -36.198)" fill="#455a64"/>
                  <path id="Trazado_633746" data-name="Trazado 633746" d="M139.891,311.462c-.12.017-.257-.262-.306-.622s.01-.666.13-.685.258.261.306.622-.009.668-.13.685" transform="translate(-21.425 -36.906)" fill="#455a64"/>
                  <path id="Trazado_633747" data-name="Trazado 633747" d="M30.372,308.023c.116.038.125.351.019.7s-.284.6-.4.56-.124-.351-.019-.7.285-.6.4-.56" transform="translate(-4.59 -36.652)" fill="#455a64"/>
                  <path id="Trazado_633748" data-name="Trazado 633748" d="M32.153,302.236c.116.039.034.641-.183,1.344s-.486,1.242-.6,1.2-.035-.64.182-1.344.487-1.243.6-1.2" transform="translate(-4.807 -35.964)" fill="#455a64"/>
                  <path id="Trazado_633749" data-name="Trazado 633749" d="M34.029,296.458c.116.04.03.64-.19,1.344s-.493,1.24-.609,1.2-.03-.641.19-1.344.493-1.24.609-1.2" transform="translate(-5.093 -35.276)" fill="#455a64"/>
                  <path id="Trazado_633750" data-name="Trazado 633750" d="M35.935,290.689c.116.04.028.641-.2,1.343s-.5,1.238-.615,1.2-.027-.641.2-1.342.5-1.238.615-1.2" transform="translate(-5.384 -34.59)" fill="#455a64"/>
                  <path id="Trazado_633751" data-name="Trazado 633751" d="M37.87,284.929c.115.041.025.641-.2,1.342s-.5,1.235-.62,1.195-.025-.641.2-1.342.5-1.235.62-1.195" transform="translate(-5.679 -33.904)" fill="#455a64"/>
                  <path id="Trazado_633752" data-name="Trazado 633752" d="M39.832,279.177c.115.041.022.641-.208,1.341s-.51,1.233-.626,1.192-.022-.641.208-1.341.51-1.233.626-1.192" transform="translate(-5.979 -33.22)" fill="#455a64"/>
                  <path id="Trazado_633753" data-name="Trazado 633753" d="M41.819,273.433c.115.041.019.641-.214,1.34s-.516,1.231-.631,1.189-.019-.641.214-1.34.516-1.231.631-1.189" transform="translate(-6.283 -32.536)" fill="#455a64"/>
                  <path id="Trazado_633754" data-name="Trazado 633754" d="M43.831,267.7c.115.042.017.641-.219,1.339s-.521,1.229-.636,1.187-.016-.641.219-1.339.521-1.229.636-1.187" transform="translate(-6.59 -31.854)" fill="#455a64"/>
                  <path id="Trazado_633755" data-name="Trazado 633755" d="M45.867,261.967c.114.042.014.642-.224,1.338s-.526,1.227-.64,1.185-.014-.642.224-1.339.526-1.226.64-1.184" transform="translate(-6.901 -31.172)" fill="#455a64"/>
                  <path id="Trazado_633756" data-name="Trazado 633756" d="M47.923,256.245c.114.043.012.642-.229,1.337s-.529,1.225-.644,1.182-.012-.641.229-1.337.53-1.225.644-1.182" transform="translate(-7.215 -30.491)" fill="#455a64"/>
                  <path id="Trazado_633757" data-name="Trazado 633757" d="M50,250.529c.114.043.009.642-.234,1.337s-.534,1.223-.648,1.18-.009-.642.234-1.337.534-1.223.648-1.18" transform="translate(-7.533 -29.811)" fill="#455a64"/>
                  <path id="Trazado_633758" data-name="Trazado 633758" d="M52.1,244.82c.114.044.008.642-.238,1.336s-.538,1.222-.652,1.178-.008-.642.238-1.336.538-1.222.652-1.178" transform="translate(-7.854 -29.132)" fill="#455a64"/>
                  <path id="Trazado_633759" data-name="Trazado 633759" d="M54.21,239.117c.114.044.006.642-.242,1.336s-.541,1.22-.654,1.176-.006-.642.241-1.336.541-1.22.655-1.176" transform="translate(-8.177 -28.453)" fill="#455a64"/>
                  <path id="Trazado_633760" data-name="Trazado 633760" d="M56.34,233.419c.114.045,0,.642-.245,1.335s-.544,1.219-.658,1.174,0-.642.245-1.335.544-1.219.659-1.174" transform="translate(-8.503 -27.775)" fill="#455a64"/>
                  <path id="Trazado_633761" data-name="Trazado 633761" d="M58.485,227.726c.114.045,0,.642-.249,1.335s-.547,1.217-.66,1.173,0-.642.248-1.335.548-1.218.661-1.173" transform="translate(-8.832 -27.097)" fill="#455a64"/>
                  <path id="Trazado_633762" data-name="Trazado 633762" d="M60.643,222.038c.113.045,0,.642-.251,1.334s-.551,1.216-.664,1.171,0-.642.251-1.334.549-1.216.664-1.171" transform="translate(-9.162 -26.421)" fill="#455a64"/>
                  <path id="Trazado_633763" data-name="Trazado 633763" d="M62.812,216.355c.113.045,0,.642-.254,1.334s-.552,1.215-.666,1.169,0-.642.255-1.334.552-1.214.665-1.169" transform="translate(-9.494 -25.744)" fill="#455a64"/>
                  <path id="Trazado_633764" data-name="Trazado 633764" d="M64.993,210.676c.113.046,0,.642-.256,1.333s-.554,1.214-.669,1.168,0-.642.257-1.333.554-1.214.668-1.168" transform="translate(-9.829 -25.069)" fill="#455a64"/>
                  <path id="Trazado_633765" data-name="Trazado 633765" d="M67.183,205c.113.046,0,.642-.258,1.332s-.556,1.213-.67,1.167,0-.642.258-1.332.556-1.213.67-1.167" transform="translate(-10.164 -24.393)" fill="#455a64"/>
                  <path id="Trazado_633766" data-name="Trazado 633766" d="M69.38,199.328c.113.046,0,.642-.26,1.332s-.558,1.212-.671,1.166,0-.642.26-1.332.558-1.212.671-1.166" transform="translate(-10.501 -23.718)" fill="#455a64"/>
                  <path id="Trazado_633767" data-name="Trazado 633767" d="M71.585,193.659c.113.046,0,.642-.262,1.332s-.559,1.21-.672,1.165,0-.642.262-1.331.559-1.211.672-1.166" transform="translate(-10.839 -23.044)" fill="#455a64"/>
                  <path id="Trazado_633768" data-name="Trazado 633768" d="M73.794,187.992c.113.046,0,.642-.262,1.331s-.56,1.21-.673,1.165,0-.642.262-1.331.56-1.21.673-1.165" transform="translate(-11.178 -22.369)" fill="#455a64"/>
                  <path id="Trazado_633769" data-name="Trazado 633769" d="M76.007,182.328c.113.046,0,.642-.263,1.331s-.56,1.21-.674,1.164,0-.642.263-1.331.56-1.21.674-1.164" transform="translate(-11.517 -21.695)" fill="#455a64"/>
                  <path id="Trazado_633770" data-name="Trazado 633770" d="M78.223,176.667c.113.047-.006.641-.265,1.33s-.56,1.209-.674,1.163,0-.641.263-1.33.563-1.21.676-1.163" transform="translate(-11.857 -21.022)" fill="#455a64"/>
                  <path id="Trazado_633771" data-name="Trazado 633771" d="M80.53,171.046c.112.051-.022.643-.3,1.322s-.591,1.191-.7,1.144.02-.64.3-1.322.592-1.195.7-1.144" transform="translate(-12.202 -20.353)" fill="#455a64"/>
                  <path id="Trazado_633772" data-name="Trazado 633772" d="M83.114,165.554c.107.059-.061.642-.376,1.3s-.659,1.151-.77,1.1.058-.636.376-1.3.663-1.157.77-1.1" transform="translate(-12.578 -19.699)" fill="#455a64"/>
                  <path id="Trazado_633773" data-name="Trazado 633773" d="M86.29,160.41c.094.08-.153.632-.553,1.233s-.809,1.034-.913.969.143-.618.553-1.233.819-1.048.913-.968" transform="translate(-13.018 -19.086)" fill="#455a64"/>
                  <path id="Trazado_633774" data-name="Trazado 633774" d="M89.831,157.581c.033.122-.19.3-.48.46s-.569.248-.642.144.107-.369.436-.55.654-.176.686-.055" transform="translate(-13.615 -18.741)" fill="#455a64"/>
                  <path id="Trazado_633775" data-name="Trazado 633775" d="M68.48,71.807,38.2,70.957H7.328C3.28,70.957,0,74.5,0,78.882v21.792a95.3,95.3,0,0,0,10.073,43.369c5.7,11.141,14.535,22.613,28.131,29.9,12.5-4.887,21.828-17.913,27.531-29.054a95.3,95.3,0,0,0,10.072-43.369V79.732c0-4.377-3.28-7.925-7.327-7.925" transform="translate(0 -8.443)" fill="#294ddc"/>
                  <path id="Trazado_633776" data-name="Trazado 633776" d="M41.863,126.868l-11.2-9.647,3.777-4.751,6.753,5.816,11.05-13.2,4.467,4.052Z" transform="translate(-4.707 -12.505)" fill="#fff"/>
                  <g id="Grupo_946531" data-name="Grupo 946531" transform="translate(0 62.514)" opacity="0.3">
                    <g id="Grupo_946530" data-name="Grupo 946530">
                      <g id="Grupo_946529" data-name="Grupo 946529" clip-path="url(#clip-path-18)">
                        <path id="Trazado_633777" data-name="Trazado 633777" d="M68.481,71.806,38.2,70.956H7.327C3.281,70.956,0,74.5,0,78.881v21.792a95.3,95.3,0,0,0,10.072,43.369c5.7,11.141,14.536,22.613,28.132,29.9,12.5-4.886,21.828-17.913,27.531-29.054a95.3,95.3,0,0,0,10.072-43.369V79.731c0-4.377-3.281-7.925-7.327-7.925m-1,31.328a75.4,75.4,0,0,1-7.969,34.313C55,146.261,48.361,155.337,37.6,161.106c-10.757-5.769-17.145-14.845-21.657-23.659a75.4,75.4,0,0,1-7.969-34.313V85.893a6.047,6.047,0,0,1,5.8-6.27H61.684a6.047,6.047,0,0,1,5.8,6.27Z" transform="translate(0 -70.957)"/>
                      </g>
                    </g>
                  </g>
                </g>
              </g>
            </g>
          </g>
        </g>
      </g>
    </g>
  </g>
</svg>
